<svg xmlns="http://www.w3.org/2000/svg" xmlns:xlink="http://www.w3.org/1999/xlink" xmlns:inkscape="http://www.inkscape.org/namespaces/inkscape" version="1.1" width="497.15968" height="253.84" viewBox="0 0 497.15968 253.84">
<defs>
<clipPath id="clip_0">
<path transform="matrix(1,0,0,-1,0,253.84)" d="M44.746877 60.16H249.5945V216.16H44.746877Z"/>
</clipPath>
<clipPath id="clip_1">
<path transform="matrix(1,0,0,-1,0,253.84)" d="M44.746877 60.16H249.5945V216.16H44.746877Z"/>
</clipPath>
<clipPath id="clip_2">
<path transform="matrix(1,0,0,-1,0,253.84)" d="M44.746877 60.16H249.5945V216.16H44.746877Z"/>
</clipPath>
<clipPath id="clip_3">
<path transform="matrix(1,0,0,-1,0,253.84)" d="M44.746877 60.16H249.5945V216.16H44.746877Z"/>
</clipPath>
<clipPath id="clip_4">
<path transform="matrix(1,0,0,-1,0,253.84)" d="M44.746877 60.16H249.5945V216.16H44.746877Z"/>
</clipPath>
<clipPath id="clip_5">
<path transform="matrix(1,0,0,-1,0,253.84)" d="M44.746877 60.16H249.5945V216.16H44.746877Z"/>
</clipPath>
<clipPath id="clip_6">
<path transform="matrix(1,0,0,-1,0,253.84)" d="M44.746877 60.16H249.5945V216.16H44.746877Z"/>
</clipPath>
<clipPath id="clip_7">
<path transform="matrix(1,0,0,-1,0,253.84)" d="M44.746877 60.16H249.5945V216.16H44.746877Z"/>
</clipPath>
<clipPath id="clip_8">
<path transform="matrix(1,0,0,-1,0,253.84)" d="M44.746877 60.16H249.5945V216.16H44.746877Z"/>
</clipPath>
<clipPath id="clip_9">
<path transform="matrix(1,0,0,-1,0,253.84)" d="M44.746877 60.16H249.5945V216.16H44.746877Z"/>
</clipPath>
<clipPath id="clip_10">
<path transform="matrix(1,0,0,-1,0,253.84)" d="M44.746877 60.16H249.5945V216.16H44.746877Z"/>
</clipPath>
<clipPath id="clip_11">
<path transform="matrix(1,0,0,-1,0,253.84)" d="M44.746877 60.16H249.5945V216.16H44.746877Z"/>
</clipPath>
<clipPath id="clip_12">
<path transform="matrix(1,0,0,-1,0,253.84)" d="M44.746877 60.16H249.5945V216.16H44.746877Z"/>
</clipPath>
<clipPath id="clip_13">
<path transform="matrix(1,0,0,-1,0,253.84)" d="M44.746877 60.16H249.5945V216.16H44.746877Z"/>
</clipPath>
<clipPath id="clip_14">
<path transform="matrix(1,0,0,-1,0,253.84)" d="M44.746877 60.16H249.5945V216.16H44.746877Z"/>
</clipPath>
<clipPath id="clip_15">
<path transform="matrix(1,0,0,-1,0,253.84)" d="M44.746877 60.16H249.5945V216.16H44.746877Z"/>
</clipPath>
<clipPath id="clip_16">
<path transform="matrix(1,0,0,-1,54.058134,87.59999)" d="M-7-7H7V7H-7Z"/>
</clipPath>
<clipPath id="clip_17">
<path transform="matrix(1,0,0,-1,116.13317,148.43999)" d="M-7-7H7V7H-7Z"/>
</clipPath>
<clipPath id="clip_18">
<path transform="matrix(1,0,0,-1,178.2082,87.59999)" d="M-7-7H7V7H-7Z"/>
</clipPath>
<clipPath id="clip_19">
<path transform="matrix(1,0,0,-1,240.28325,58.47999)" d="M-7-7H7V7H-7Z"/>
</clipPath>
<clipPath id="clip_20">
<path transform="matrix(1,0,0,-1,0,253.84)" d="M44.746877 60.16H249.5945V216.16H44.746877Z"/>
</clipPath>
<clipPath id="clip_21">
<path transform="matrix(1,0,0,-1,54.058134,87.08)" d="M-7-7H7V7H-7Z"/>
</clipPath>
<clipPath id="clip_22">
<path transform="matrix(1,0,0,-1,116.13317,100.600009)" d="M-7-7H7V7H-7Z"/>
</clipPath>
<clipPath id="clip_23">
<path transform="matrix(1,0,0,-1,178.2082,50.680009)" d="M-7-7H7V7H-7Z"/>
</clipPath>
<clipPath id="clip_24">
<path transform="matrix(1,0,0,-1,240.28325,49.120008)" d="M-7-7H7V7H-7Z"/>
</clipPath>
<clipPath id="clip_25">
<path transform="matrix(1,0,0,-1,0,253.84)" d="M44.746877 60.16H249.5945V216.16H44.746877Z"/>
</clipPath>
<clipPath id="clip_26">
<path transform="matrix(1,0,0,-1,54.058134,86.03999)" d="M-7-7H7V7H-7Z"/>
</clipPath>
<clipPath id="clip_27">
<path transform="matrix(1,0,0,-1,116.13317,69.91999)" d="M-7-7H7V7H-7Z"/>
</clipPath>
<clipPath id="clip_28">
<path transform="matrix(1,0,0,-1,178.2082,57.95999)" d="M-7-7H7V7H-7Z"/>
</clipPath>
<clipPath id="clip_29">
<path transform="matrix(1,0,0,-1,240.28325,40.27999)" d="M-7-7H7V7H-7Z"/>
</clipPath>
<clipPath id="clip_30">
<path transform="matrix(1,0,0,-1,0,253.84)" d="M44.746877 60.16H249.5945V216.16H44.746877Z"/>
</clipPath>
<clipPath id="clip_31">
<path transform="matrix(1,0,0,-1,54.058134,79.28)" d="M-7.8284275-7.8284275H7.8284275V7.8284275H-7.8284275Z"/>
</clipPath>
<clipPath id="clip_32">
<path transform="matrix(1,0,0,-1,116.13317,75.64)" d="M-7.8284275-7.8284275H7.8284275V7.8284275H-7.8284275Z"/>
</clipPath>
<clipPath id="clip_33">
<path transform="matrix(1,0,0,-1,178.2082,39.76)" d="M-7.8284275-7.8284275H7.8284275V7.8284275H-7.8284275Z"/>
</clipPath>
<clipPath id="clip_34">
<path transform="matrix(1,0,0,-1,240.28325,43.399999)" d="M-7.8284275-7.8284275H7.8284275V7.8284275H-7.8284275Z"/>
</clipPath>
<clipPath id="clip_35">
<path transform="matrix(1,0,0,-1,0,253.84)" d="M44.746877 60.16H249.5945V216.16H44.746877Z"/>
</clipPath>
<clipPath id="clip_36">
<path transform="matrix(1,0,0,-1,54.058134,79.8)" d="M-7-7H7V7H-7Z"/>
</clipPath>
<clipPath id="clip_37">
<path transform="matrix(1,0,0,-1,116.13317,56.4)" d="M-7-7H7V7H-7Z"/>
</clipPath>
<clipPath id="clip_38">
<path transform="matrix(1,0,0,-1,178.2082,41.84)" d="M-7-7H7V7H-7Z"/>
</clipPath>
<clipPath id="clip_39">
<path transform="matrix(1,0,0,-1,240.28325,40.28)" d="M-7-7H7V7H-7Z"/>
</clipPath>
<clipPath id="clip_40">
<path transform="matrix(1,0,0,-1,0,253.84)" d="M284.88426 60.16H489.73188V216.16H284.88426Z"/>
</clipPath>
<clipPath id="clip_41">
<path transform="matrix(1,0,0,-1,0,253.84)" d="M284.88426 60.16H489.73188V216.16H284.88426Z"/>
</clipPath>
<clipPath id="clip_42">
<path transform="matrix(1,0,0,-1,0,253.84)" d="M284.88426 60.16H489.73188V216.16H284.88426Z"/>
</clipPath>
<clipPath id="clip_43">
<path transform="matrix(1,0,0,-1,0,253.84)" d="M284.88426 60.16H489.73188V216.16H284.88426Z"/>
</clipPath>
<clipPath id="clip_44">
<path transform="matrix(1,0,0,-1,0,253.84)" d="M284.88426 60.16H489.73188V216.16H284.88426Z"/>
</clipPath>
<clipPath id="clip_45">
<path transform="matrix(1,0,0,-1,0,253.84)" d="M284.88426 60.16H489.73188V216.16H284.88426Z"/>
</clipPath>
<clipPath id="clip_46">
<path transform="matrix(1,0,0,-1,0,253.84)" d="M284.88426 60.16H489.73188V216.16H284.88426Z"/>
</clipPath>
<clipPath id="clip_47">
<path transform="matrix(1,0,0,-1,0,253.84)" d="M284.88426 60.16H489.73188V216.16H284.88426Z"/>
</clipPath>
<clipPath id="clip_48">
<path transform="matrix(1,0,0,-1,0,253.84)" d="M284.88426 60.16H489.73188V216.16H284.88426Z"/>
</clipPath>
<clipPath id="clip_49">
<path transform="matrix(1,0,0,-1,0,253.84)" d="M284.88426 60.16H489.73188V216.16H284.88426Z"/>
</clipPath>
<clipPath id="clip_50">
<path transform="matrix(1,0,0,-1,0,253.84)" d="M284.88426 60.16H489.73188V216.16H284.88426Z"/>
</clipPath>
<clipPath id="clip_51">
<path transform="matrix(1,0,0,-1,0,253.84)" d="M284.88426 60.16H489.73188V216.16H284.88426Z"/>
</clipPath>
<clipPath id="clip_52">
<path transform="matrix(1,0,0,-1,0,253.84)" d="M284.88426 60.16H489.73188V216.16H284.88426Z"/>
</clipPath>
<clipPath id="clip_53">
<path transform="matrix(1,0,0,-1,0,253.84)" d="M284.88426 60.16H489.73188V216.16H284.88426Z"/>
</clipPath>
<clipPath id="clip_54">
<path transform="matrix(1,0,0,-1,0,253.84)" d="M284.88426 60.16H489.73188V216.16H284.88426Z"/>
</clipPath>
<clipPath id="clip_55">
<path transform="matrix(1,0,0,-1,0,253.84)" d="M284.88426 60.16H489.73188V216.16H284.88426Z"/>
</clipPath>
<clipPath id="clip_56">
<path transform="matrix(1,0,0,-1,294.1955,65.23999)" d="M-7-7H7V7H-7Z"/>
</clipPath>
<clipPath id="clip_57">
<path transform="matrix(1,0,0,-1,331.44053,189)" d="M-7-7H7V7H-7Z"/>
</clipPath>
<clipPath id="clip_58">
<path transform="matrix(1,0,0,-1,368.68556,134.4)" d="M-7-7H7V7H-7Z"/>
</clipPath>
<clipPath id="clip_59">
<path transform="matrix(1,0,0,-1,405.93058,86.56)" d="M-7-7H7V7H-7Z"/>
</clipPath>
<clipPath id="clip_60">
<path transform="matrix(1,0,0,-1,443.1756,58.479997)" d="M-7-7H7V7H-7Z"/>
</clipPath>
<clipPath id="clip_61">
<path transform="matrix(1,0,0,-1,480.42063,41.839998)" d="M-7-7H7V7H-7Z"/>
</clipPath>
<clipPath id="clip_62">
<path transform="matrix(1,0,0,-1,0,253.84)" d="M284.88426 60.16H489.73188V216.16H284.88426Z"/>
</clipPath>
<clipPath id="clip_63">
<path transform="matrix(1,0,0,-1,294.1955,77.2)" d="M-7-7H7V7H-7Z"/>
</clipPath>
<clipPath id="clip_64">
<path transform="matrix(1,0,0,-1,331.44053,94.88)" d="M-7-7H7V7H-7Z"/>
</clipPath>
<clipPath id="clip_65">
<path transform="matrix(1,0,0,-1,368.68556,63.679998)" d="M-7-7H7V7H-7Z"/>
</clipPath>
<clipPath id="clip_66">
<path transform="matrix(1,0,0,-1,405.93058,45.479997)" d="M-7-7H7V7H-7Z"/>
</clipPath>
<clipPath id="clip_67">
<path transform="matrix(1,0,0,-1,443.1756,39.759996)" d="M-7-7H7V7H-7Z"/>
</clipPath>
<clipPath id="clip_68">
<path transform="matrix(1,0,0,-1,480.42063,51.719995)" d="M-7-7H7V7H-7Z"/>
</clipPath>
<clipPath id="clip_69">
<path transform="matrix(1,0,0,-1,0,253.84)" d="M284.88426 60.16H489.73188V216.16H284.88426Z"/>
</clipPath>
<clipPath id="clip_70">
<path transform="matrix(1,0,0,-1,294.1955,87.08)" d="M-7-7H7V7H-7Z"/>
</clipPath>
<clipPath id="clip_71">
<path transform="matrix(1,0,0,-1,331.44053,116.200008)" d="M-7-7H7V7H-7Z"/>
</clipPath>
<clipPath id="clip_72">
<path transform="matrix(1,0,0,-1,368.68556,73.04001)" d="M-7-7H7V7H-7Z"/>
</clipPath>
<clipPath id="clip_73">
<path transform="matrix(1,0,0,-1,405.93058,50.94001)" d="M-7-7H7V7H-7Z"/>
</clipPath>
<clipPath id="clip_74">
<path transform="matrix(1,0,0,-1,443.1756,43.14001)" d="M-7-7H7V7H-7Z"/>
</clipPath>
<clipPath id="clip_75">
<path transform="matrix(1,0,0,-1,480.42063,118.020008)" d="M-7-7H7V7H-7Z"/>
</clipPath>
</defs>
<path transform="matrix(1,0,0,-1,0,253.84)" d="M0 0H497.15968V253.84H0Z" fill="#ffffff"/>
<path transform="matrix(1,0,0,-1,0,253.84)" d="M44.746877 60.16H249.5945V216.16H44.746877Z" fill="#ffffff"/>
<g clip-path="url(#clip_0)">
<g>
<path transform="matrix(1,0,0,-1,0,253.84)" d="M54.058134 181.12145V151.35855L60.265634 60.16H66.47314L72.68064 59.398668 78.888149 60.16 85.09565 57.11467 91.303157 61.553339 97.51066 66.50653 103.71816 67.42001 109.92567 75.359249 116.13317 85.48325 122.340679 66.46515 128.54817 87.176799 134.75568 81.61997 140.96318 82.23175 147.17069 79.691867 153.37819 75.48394 159.5857 95.40572 165.7932 77.69999 172.0007 79.729167 178.2082 137.6022 184.41571 141.1008 190.62322 155.79157 196.83072 146.13678 203.03823 121.99983 209.24573 195.60819 215.45323 147.18451 221.66074 193.5452 227.86824 114.795269 234.07575 163.01882 240.28325 167.3958V223.3242L234.07575 224.58119 227.86824 237.44474 221.66074 206.5348 215.45323 214.4155 209.24573 212.79181 203.03823 236.48017 196.83072 207.14322 190.62322 217.24845 184.41571 182.01921 178.2082 194.87779 172.0007 186.19083 165.7932 197.58002 159.5857 199.63428 153.37819 121.79606 147.17069 158.14813 140.96318 166.00826 134.75568 123.98003 128.54817 145.46321 122.340679 95.45486 116.13317 125.31675 109.92567 111.52075 103.71816 108.01999 97.51066 134.93347 91.303157 79.566669 85.09565 71.52533 78.888149 63.28 72.68064 63.00133 66.47314 60.16H60.265634L54.058134 181.12145Z" fill="#9b8afb" fill-opacity=".2"/>
<path transform="matrix(1,0,0,-1,0,253.84)" stroke-width="1" stroke-linecap="butt" stroke-linejoin="round" fill="none" stroke="#9b8afb" stroke-opacity=".2" d="M54.058134 181.12145V151.35855L60.265634 60.16H66.47314L72.68064 59.398668 78.888149 60.16 85.09565 57.11467 91.303157 61.553339 97.51066 66.50653 103.71816 67.42001 109.92567 75.359249 116.13317 85.48325 122.340679 66.46515 128.54817 87.176799 134.75568 81.61997 140.96318 82.23175 147.17069 79.691867 153.37819 75.48394 159.5857 95.40572 165.7932 77.69999 172.0007 79.729167 178.2082 137.6022 184.41571 141.1008 190.62322 155.79157 196.83072 146.13678 203.03823 121.99983 209.24573 195.60819 215.45323 147.18451 221.66074 193.5452 227.86824 114.795269 234.07575 163.01882 240.28325 167.3958V223.3242L234.07575 224.58119 227.86824 237.44474 221.66074 206.5348 215.45323 214.4155 209.24573 212.79181 203.03823 236.48017 196.83072 207.14322 190.62322 217.24845 184.41571 182.01921 178.2082 194.87779 172.0007 186.19083 165.7932 197.58002 159.5857 199.63428 153.37819 121.79606 147.17069 158.14813 140.96318 166.00826 134.75568 123.98003 128.54817 145.46321 122.340679 95.45486 116.13317 125.31675 109.92567 111.52075 103.71816 108.01999 97.51066 134.93347 91.303157 79.566669 85.09565 71.52533 78.888149 63.28 72.68064 63.00133 66.47314 60.16H60.265634L54.058134 181.12145Z"/>
</g>
</g>
<g clip-path="url(#clip_1)">
<g>
<path transform="matrix(1,0,0,-1,0,253.84)" d="M54.058134 172.66606V160.85393L60.265634 60.16 66.47314 59.018 72.68064 60.850397 78.888149 73.03355 85.09565 80.93267 91.303157 83.40277 97.51066 65.93538 103.71816 105.214168 109.92567 86.51413 116.13317 143.09001 122.340679 99.97513 128.54817 117.80118 134.75568 158.87354 140.96318 120.77512 147.17069 95.69035 153.37819 166.86865 159.5857 169.80016 165.7932 168.26818 172.0007 199.85393 178.2082 201.35868 184.41571 186.99677 190.62322 201.7047 196.83072 203.39409 203.03823 200.10526 209.24573 208.36 215.45323 203.8653 221.66074 213.17934 227.86824 208.91733 234.07575 204.4652 240.28325 187.53638V221.90363L234.07575 217.4548 227.86824 216.12267 221.66074 214.98067 215.45323 213.8947 209.24573 214.6 203.03823 216.61475 196.83072 211.24591 190.62322 217.09529 184.41571 205.80324 178.2082 204.96134 172.0007 211.66606 165.7932 183.97183 159.5857 210.51984 153.37819 204.09136 147.17069 206.62964 140.96318 191.94487 134.75568 196.48647 128.54817 176.19882 122.340679 171.14487 116.13317 163.39 109.92567 138.84587 103.71816 138.86583 97.51066 114.70462 91.303157 107.63723 85.09565 100.74733 78.888149 115.92645 72.68064 81.3096 66.47314 64.422 60.265634 60.16 54.058134 172.66606Z" fill="#7db8ff" fill-opacity=".2"/>
<path transform="matrix(1,0,0,-1,0,253.84)" stroke-width="1" stroke-linecap="butt" stroke-linejoin="round" fill="none" stroke="#7db8ff" stroke-opacity=".2" d="M54.058134 172.66606V160.85393L60.265634 60.16 66.47314 59.018 72.68064 60.850397 78.888149 73.03355 85.09565 80.93267 91.303157 83.40277 97.51066 65.93538 103.71816 105.214168 109.92567 86.51413 116.13317 143.09001 122.340679 99.97513 128.54817 117.80118 134.75568 158.87354 140.96318 120.77512 147.17069 95.69035 153.37819 166.86865 159.5857 169.80016 165.7932 168.26818 172.0007 199.85393 178.2082 201.35868 184.41571 186.99677 190.62322 201.7047 196.83072 203.39409 203.03823 200.10526 209.24573 208.36 215.45323 203.8653 221.66074 213.17934 227.86824 208.91733 234.07575 204.4652 240.28325 187.53638V221.90363L234.07575 217.4548 227.86824 216.12267 221.66074 214.98067 215.45323 213.8947 209.24573 214.6 203.03823 216.61475 196.83072 211.24591 190.62322 217.09529 184.41571 205.80324 178.2082 204.96134 172.0007 211.66606 165.7932 183.97183 159.5857 210.51984 153.37819 204.09136 147.17069 206.62964 140.96318 191.94487 134.75568 196.48647 128.54817 176.19882 122.340679 171.14487 116.13317 163.39 109.92567 138.84587 103.71816 138.86583 97.51066 114.70462 91.303157 107.63723 85.09565 100.74733 78.888149 115.92645 72.68064 81.3096 66.47314 64.422 60.265634 60.16 54.058134 172.66606Z"/>
</g>
</g>
<g clip-path="url(#clip_2)">
<g>
<path transform="matrix(1,0,0,-1,0,253.84)" d="M54.058134 174.94882V160.65119L60.265634 57.876 66.47314 74.2 72.68064 72.51089 78.888149 91.37301 85.09565 94.02525 91.303157 130.80268 97.51066 130.75643 103.71816 119.21867 109.92567 159.02907 116.13317 173.89061 122.340679 187.8082 128.54817 176.89435 134.75568 203.71733 140.96318 205.24 147.17069 207.01706 153.37819 201.3452 159.5857 194.41788 165.7932 208.7526 172.0007 209.92 178.2082 164.79723 184.41571 149.11293 190.62322 209.05667 196.83072 199.013 203.03823 207.23412 209.24573 199.112 215.45323 206.09394 221.66074 208.57706 227.86824 212.27867H234.07575L240.28325 211.17707V215.94293L234.07575 215.88134H227.86824L221.66074 213.34294 215.45323 217.90607 209.24573 220.728 203.03823 216.76589 196.83072 219.78699 190.62322 218.06334 184.41571 231.20708 178.2082 226.96279 172.0007 213.04 165.7932 215.2474 159.5857 219.18212 153.37819 214.3348 147.17069 211.78295 140.96318 211.48 134.75568 210.92267 128.54817 212.78565 122.340679 204.9918 116.13317 193.9494 109.92567 209.85092 103.71816 176.86133 97.51066 196.52358 91.303157 179.83733 85.09565 110.534748 78.888149 112.146999 72.68064 91.48911 66.47314 77.32 60.265634 68.684 54.058134 174.94882Z" fill="#63c29d" fill-opacity=".2"/>
<path transform="matrix(1,0,0,-1,0,253.84)" stroke-width="1" stroke-linecap="butt" stroke-linejoin="round" fill="none" stroke="#63c29d" stroke-opacity=".2" d="M54.058134 174.94882V160.65119L60.265634 57.876 66.47314 74.2 72.68064 72.51089 78.888149 91.37301 85.09565 94.02525 91.303157 130.80268 97.51066 130.75643 103.71816 119.21867 109.92567 159.02907 116.13317 173.89061 122.340679 187.8082 128.54817 176.89435 134.75568 203.71733 140.96318 205.24 147.17069 207.01706 153.37819 201.3452 159.5857 194.41788 165.7932 208.7526 172.0007 209.92 178.2082 164.79723 184.41571 149.11293 190.62322 209.05667 196.83072 199.013 203.03823 207.23412 209.24573 199.112 215.45323 206.09394 221.66074 208.57706 227.86824 212.27867H234.07575L240.28325 211.17707V215.94293L234.07575 215.88134H227.86824L221.66074 213.34294 215.45323 217.90607 209.24573 220.728 203.03823 216.76589 196.83072 219.78699 190.62322 218.06334 184.41571 231.20708 178.2082 226.96279 172.0007 213.04 165.7932 215.2474 159.5857 219.18212 153.37819 214.3348 147.17069 211.78295 140.96318 211.48 134.75568 210.92267 128.54817 212.78565 122.340679 204.9918 116.13317 193.9494 109.92567 209.85092 103.71816 176.86133 97.51066 196.52358 91.303157 179.83733 85.09565 110.534748 78.888149 112.146999 72.68064 91.48911 66.47314 77.32 60.265634 68.684 54.058134 174.94882Z"/>
</g>
</g>
<g clip-path="url(#clip_3)">
<g>
<path transform="matrix(1,0,0,-1,0,253.84)" d="M54.058134 178.48592V170.63408L60.265634 58.865205 66.47314 59.88557 72.68064 85.15733 78.888149 83.69029 85.09565 66.4 91.303157 102.97649 97.51066 113.78897 103.71816 139.90084 109.92567 143.01648 116.13317 154.83469 122.340679 170.68773 128.54817 152.4571 134.75568 196.7926 140.96318 187.10515 147.17069 205.24 153.37819 199.65119 159.5857 208.36 165.7932 214.73934 172.0007 213.31867 178.2082 212.27867 184.41571 214.73934 190.62322 212.65933 196.83072 211.69707 203.03823 210.3126 209.24573 191.78514 215.45323 214.21933 221.66074 200.1447 227.86824 201.95334 234.07575 214.21933 240.28325 204.53394V216.34607L234.07575 216.02066 227.86824 219.96666 221.66074 215.5353 215.45323 216.02066 209.24573 220.77486 203.03823 216.8074 196.83072 216.46294 190.62322 214.46067 184.41571 216.54067 178.2082 215.88134 172.0007 216.92133 165.7932 216.54067 159.5857 214.6 153.37819 213.94882 147.17069 211.48 140.96318 216.09485 134.75568 203.2874 128.54817 222.66289 122.340679 202.35227 116.13317 201.5653 109.92567 181.14351 103.71816 204.01917 97.51066 199.97103 91.303157 141.10352 85.09565 163.12 78.888149 141.66971 72.68064 92.36266 66.47314 73.95443 60.265634 71.8548 54.058134 178.48592Z" fill="#f4a259" fill-opacity=".2"/>
<path transform="matrix(1,0,0,-1,0,253.84)" stroke-width="1" stroke-linecap="butt" stroke-linejoin="round" fill="none" stroke="#f4a259" stroke-opacity=".2" d="M54.058134 178.48592V170.63408L60.265634 58.865205 66.47314 59.88557 72.68064 85.15733 78.888149 83.69029 85.09565 66.4 91.303157 102.97649 97.51066 113.78897 103.71816 139.90084 109.92567 143.01648 116.13317 154.83469 122.340679 170.68773 128.54817 152.4571 134.75568 196.7926 140.96318 187.10515 147.17069 205.24 153.37819 199.65119 159.5857 208.36 165.7932 214.73934 172.0007 213.31867 178.2082 212.27867 184.41571 214.73934 190.62322 212.65933 196.83072 211.69707 203.03823 210.3126 209.24573 191.78514 215.45323 214.21933 221.66074 200.1447 227.86824 201.95334 234.07575 214.21933 240.28325 204.53394V216.34607L234.07575 216.02066 227.86824 219.96666 221.66074 215.5353 215.45323 216.02066 209.24573 220.77486 203.03823 216.8074 196.83072 216.46294 190.62322 214.46067 184.41571 216.54067 178.2082 215.88134 172.0007 216.92133 165.7932 216.54067 159.5857 214.6 153.37819 213.94882 147.17069 211.48 140.96318 216.09485 134.75568 203.2874 128.54817 222.66289 122.340679 202.35227 116.13317 201.5653 109.92567 181.14351 103.71816 204.01917 97.51066 199.97103 91.303157 141.10352 85.09565 163.12 78.888149 141.66971 72.68064 92.36266 66.47314 73.95443 60.265634 71.8548 54.058134 178.48592Z"/>
</g>
</g>
<g clip-path="url(#clip_4)">
<g>
<path transform="matrix(1,0,0,-1,0,253.84)" d="M54.058134 178.2645V169.8155L60.265634 55.226846 66.47314 83.52196 72.68064 81.53514 78.888149 110.323238 85.09565 102.502849 91.303157 142.5131 97.51066 146.88722 103.71816 169.40338 109.92567 168.68094 116.13317 190.34815 122.340679 176.96349 128.54817 193.44287 134.75568 195.77849 140.96318 210.20627 147.17069 194.67755 153.37819 203.37293 159.5857 186.78276 165.7932 173.73909 172.0007 194.55268 178.2082 211.09934 184.41571 201.67467 190.62322 210.338 196.83072 204.3853 203.03823 204.4652 209.24573 208.7526 215.45323 211.69707 221.66074 216.16 227.86824 209.05667 234.07575 202.97394 240.28325 211.75867V215.36133L234.07575 214.78607 227.86824 218.06334 221.66074 216.16 215.45323 216.46294 209.24573 215.2474 203.03823 217.4548 196.83072 214.4147 190.62322 215.742 184.41571 216.08533 178.2082 212.90067 172.0007 214.36733 165.7932 211.78092 159.5857 211.21724 153.37819 214.90708 147.17069 213.46245 140.96318 212.75374 134.75568 212.36151 128.54817 218.59712 122.340679 218.69652 116.13317 204.53186 109.92567 208.25907 103.71816 206.75662 97.51066 194.95278 91.303157 193.8669 85.09565 183.95716 78.888149 142.59677 72.68064 122.244869 66.47314 106.21804 60.265634 94.733158 54.058134 178.2645Z" fill="#f16b6f" fill-opacity=".2"/>
<path transform="matrix(1,0,0,-1,0,253.84)" stroke-width="1" stroke-linecap="butt" stroke-linejoin="round" fill="none" stroke="#f16b6f" stroke-opacity=".2" d="M54.058134 178.2645V169.8155L60.265634 55.226846 66.47314 83.52196 72.68064 81.53514 78.888149 110.323238 85.09565 102.502849 91.303157 142.5131 97.51066 146.88722 103.71816 169.40338 109.92567 168.68094 116.13317 190.34815 122.340679 176.96349 128.54817 193.44287 134.75568 195.77849 140.96318 210.20627 147.17069 194.67755 153.37819 203.37293 159.5857 186.78276 165.7932 173.73909 172.0007 194.55268 178.2082 211.09934 184.41571 201.67467 190.62322 210.338 196.83072 204.3853 203.03823 204.4652 209.24573 208.7526 215.45323 211.69707 221.66074 216.16 227.86824 209.05667 234.07575 202.97394 240.28325 211.75867V215.36133L234.07575 214.78607 227.86824 218.06334 221.66074 216.16 215.45323 216.46294 209.24573 215.2474 203.03823 217.4548 196.83072 214.4147 190.62322 215.742 184.41571 216.08533 178.2082 212.90067 172.0007 214.36733 165.7932 211.78092 159.5857 211.21724 153.37819 214.90708 147.17069 213.46245 140.96318 212.75374 134.75568 212.36151 128.54817 218.59712 122.340679 218.69652 116.13317 204.53186 109.92567 208.25907 103.71816 206.75662 97.51066 194.95278 91.303157 193.8669 85.09565 183.95716 78.888149 142.59677 72.68064 122.244869 66.47314 106.21804 60.265634 94.733158 54.058134 178.2645Z"/>
</g>
</g>
<g clip-path="url(#clip_5)">
<path transform="matrix(1,0,0,-1,0,253.84)" stroke-width=".8" stroke-linecap="square" stroke-linejoin="round" fill="none" stroke="#b0b0b0" stroke-opacity=".3" d="M54.058134 60.16V216.16"/>
</g>
<path transform="matrix(1,0,0,-1,0,253.84)" d="M54.058134 60.16V56.66"/>
<path transform="matrix(1,0,0,-1,0,253.84)" stroke-width=".8" stroke-linecap="butt" stroke-linejoin="round" fill="none" stroke="#000000" d="M54.058134 60.16V56.66"/>
<text xml:space="preserve" transform="matrix(1 0 -0 1 50.878446 208.27375)" font-size="10" font-family="DejaVuSans"><tspan y="0" x="0">0</tspan></text>
<g clip-path="url(#clip_6)">
<path transform="matrix(1,0,0,-1,0,253.84)" stroke-width=".8" stroke-linecap="square" stroke-linejoin="round" fill="none" stroke="#b0b0b0" stroke-opacity=".3" d="M116.13317 60.16V216.16"/>
</g>
<path transform="matrix(1,0,0,-1,0,253.84)" d="M116.13317 60.16V56.66"/>
<path transform="matrix(1,0,0,-1,0,253.84)" stroke-width=".8" stroke-linecap="butt" stroke-linejoin="round" fill="none" stroke="#000000" d="M116.13317 60.16V56.66"/>
<text xml:space="preserve" transform="matrix(1 0 -0 1 106.59411 208.27375)" font-size="10" font-family="DejaVuSans"><tspan y="0" x="0 6.3600008 12.720001">100</tspan></text>
<g clip-path="url(#clip_7)">
<path transform="matrix(1,0,0,-1,0,253.84)" stroke-width=".8" stroke-linecap="square" stroke-linejoin="round" fill="none" stroke="#b0b0b0" stroke-opacity=".3" d="M178.2082 60.16V216.16"/>
</g>
<path transform="matrix(1,0,0,-1,0,253.84)" d="M178.2082 60.16V56.66"/>
<path transform="matrix(1,0,0,-1,0,253.84)" stroke-width=".8" stroke-linecap="butt" stroke-linejoin="round" fill="none" stroke="#000000" d="M178.2082 60.16V56.66"/>
<text xml:space="preserve" transform="matrix(1 0 -0 1 168.66915 208.27375)" font-size="10" font-family="DejaVuSans"><tspan y="0" x="0 6.3600008 12.720001">200</tspan></text>
<g clip-path="url(#clip_8)">
<path transform="matrix(1,0,0,-1,0,253.84)" stroke-width=".8" stroke-linecap="square" stroke-linejoin="round" fill="none" stroke="#b0b0b0" stroke-opacity=".3" d="M240.28325 60.16V216.16"/>
</g>
<path transform="matrix(1,0,0,-1,0,253.84)" d="M240.28325 60.16V56.66"/>
<path transform="matrix(1,0,0,-1,0,253.84)" stroke-width=".8" stroke-linecap="butt" stroke-linejoin="round" fill="none" stroke="#000000" d="M240.28325 60.16V56.66"/>
<text xml:space="preserve" transform="matrix(1 0 -0 1 230.74419 208.27375)" font-size="10" font-family="DejaVuSans"><tspan y="0" x="0 6.3600008 12.720001">300</tspan></text>
<text xml:space="preserve" transform="matrix(1 0 -0 1 70.24881 222.71125)" font-size="11" font-family="DejaVuSans"><tspan y="0" x="0 6.952 13.926001 20.438 23.496 27.782626 34.514627 41.488626 52.202627 58.967626 65.94163 70.25363 73.75163 80.73663 85.04863 91.81363 98.79863 104.52963 108.02763 112.317638 121.53564 128.53163 135.52764 142.52364 149.51964">Environment Steps (&#x00d7;1000)</tspan></text>
<g clip-path="url(#clip_9)">
<path transform="matrix(1,0,0,-1,0,253.84)" stroke-width=".8" stroke-linecap="square" stroke-linejoin="round" fill="none" stroke="#b0b0b0" stroke-opacity=".3" d="M44.746877 60.16H249.5945"/>
</g>
<path transform="matrix(1,0,0,-1,0,253.84)" d="M44.746877 60.16H41.246877"/>
<path transform="matrix(1,0,0,-1,0,253.84)" stroke-width=".8" stroke-linecap="butt" stroke-linejoin="round" fill="none" stroke="#000000" d="M44.746877 60.16H41.246877"/>
<text xml:space="preserve" transform="matrix(1 0 -0 1 21.840626 197.47687)" font-size="10" font-family="DejaVuSans"><tspan y="0" x="0 6.3600008 9.540001">0.0</tspan></text>
<g clip-path="url(#clip_10)">
<path transform="matrix(1,0,0,-1,0,253.84)" stroke-width=".8" stroke-linecap="square" stroke-linejoin="round" fill="none" stroke="#b0b0b0" stroke-opacity=".3" d="M44.746877 91.36H249.5945"/>
</g>
<path transform="matrix(1,0,0,-1,0,253.84)" d="M44.746877 91.36H41.246877"/>
<path transform="matrix(1,0,0,-1,0,253.84)" stroke-width=".8" stroke-linecap="butt" stroke-linejoin="round" fill="none" stroke="#000000" d="M44.746877 91.36H41.246877"/>
<text xml:space="preserve" transform="matrix(1 0 -0 1 21.840626 166.27687)" font-size="10" font-family="DejaVuSans"><tspan y="0" x="0 6.3600008 9.540001">0.2</tspan></text>
<g clip-path="url(#clip_11)">
<path transform="matrix(1,0,0,-1,0,253.84)" stroke-width=".8" stroke-linecap="square" stroke-linejoin="round" fill="none" stroke="#b0b0b0" stroke-opacity=".3" d="M44.746877 122.56H249.5945"/>
</g>
<path transform="matrix(1,0,0,-1,0,253.84)" d="M44.746877 122.56H41.246877"/>
<path transform="matrix(1,0,0,-1,0,253.84)" stroke-width=".8" stroke-linecap="butt" stroke-linejoin="round" fill="none" stroke="#000000" d="M44.746877 122.56H41.246877"/>
<text xml:space="preserve" transform="matrix(1 0 -0 1 21.840626 135.07688)" font-size="10" font-family="DejaVuSans"><tspan y="0" x="0 6.3600008 9.540001">0.4</tspan></text>
<g clip-path="url(#clip_12)">
<path transform="matrix(1,0,0,-1,0,253.84)" stroke-width=".8" stroke-linecap="square" stroke-linejoin="round" fill="none" stroke="#b0b0b0" stroke-opacity=".3" d="M44.746877 153.76H249.5945"/>
</g>
<path transform="matrix(1,0,0,-1,0,253.84)" d="M44.746877 153.76H41.246877"/>
<path transform="matrix(1,0,0,-1,0,253.84)" stroke-width=".8" stroke-linecap="butt" stroke-linejoin="round" fill="none" stroke="#000000" d="M44.746877 153.76H41.246877"/>
<text xml:space="preserve" transform="matrix(1 0 -0 1 21.840626 103.87688)" font-size="10" font-family="DejaVuSans"><tspan y="0" x="0 6.3600008 9.540001">0.6</tspan></text>
<g clip-path="url(#clip_13)">
<path transform="matrix(1,0,0,-1,0,253.84)" stroke-width=".8" stroke-linecap="square" stroke-linejoin="round" fill="none" stroke="#b0b0b0" stroke-opacity=".3" d="M44.746877 184.96H249.5945"/>
</g>
<path transform="matrix(1,0,0,-1,0,253.84)" d="M44.746877 184.96H41.246877"/>
<path transform="matrix(1,0,0,-1,0,253.84)" stroke-width=".8" stroke-linecap="butt" stroke-linejoin="round" fill="none" stroke="#000000" d="M44.746877 184.96H41.246877"/>
<text xml:space="preserve" transform="matrix(1 0 -0 1 21.840626 72.676868)" font-size="10" font-family="DejaVuSans"><tspan y="0" x="0 6.3600008 9.540001">0.8</tspan></text>
<g clip-path="url(#clip_14)">
<path transform="matrix(1,0,0,-1,0,253.84)" stroke-width=".8" stroke-linecap="square" stroke-linejoin="round" fill="none" stroke="#b0b0b0" stroke-opacity=".3" d="M44.746877 216.16H249.5945"/>
</g>
<path transform="matrix(1,0,0,-1,0,253.84)" d="M44.746877 216.16H41.246877"/>
<path transform="matrix(1,0,0,-1,0,253.84)" stroke-width=".8" stroke-linecap="butt" stroke-linejoin="round" fill="none" stroke="#000000" d="M44.746877 216.16H41.246877"/>
<text xml:space="preserve" transform="matrix(1 0 -0 1 21.840626 41.476869)" font-size="10" font-family="DejaVuSans"><tspan y="0" x="0 6.3600008 9.540001">1.0</tspan></text>
<text xml:space="preserve" transform="matrix(0 -1 1 0 15.559375 152.17218)" font-size="11" font-family="DejaVuSans"><tspan y="0" x="0 6.9850008 13.959001 20.009 26.059002 32.824 38.555 44.286 47.784 55.194627 61.937627 66.249629">Success Rate</tspan></text>
<g clip-path="url(#clip_15)">
<path transform="matrix(1,0,0,-1,0,253.84)" stroke-width="2" stroke-linecap="square" stroke-linejoin="round" fill="none" stroke="#9b8afb" d="M54.058134 166.24 60.265634 60.94H66.47314L72.68064 61.2 78.888149 61.72 85.09565 64.32 91.303157 70.56 97.51066 100.72 103.71816 87.72 109.92567 93.44 116.13317 105.4 122.340679 80.96 128.54817 116.32 134.75568 102.8 140.96318 124.12 147.17069 118.92 153.37819 98.64 159.5857 147.52 165.7932 137.64 172.0007 132.96 178.2082 166.24 184.41571 161.56 190.62322 186.52 196.83072 176.64 203.03823 179.24 209.24573 204.2 215.45323 180.8 221.66074 200.04 227.86824 176.12 234.07575 193.8 240.28325 195.36"/>
<g clip-path="url(#clip_16)">
<path transform="matrix(1,0,0,-1,54.058134,87.59999)" d="M0-2C.530406-2 1.03916-1.789267 1.414214-1.414214 1.789267-1.03916 2-.530406 2 0 2 .530406 1.789267 1.03916 1.414214 1.414214 1.03916 1.789267 .530406 2 0 2-.530406 2-1.03916 1.789267-1.414214 1.414214-1.789267 1.03916-2 .530406-2 0-2-.530406-1.789267-1.03916-1.414214-1.414214-1.03916-1.789267-.530406-2 0-2Z" fill="#9b8afb"/>
<path transform="matrix(1,0,0,-1,54.058134,87.59999)" stroke-width="1" stroke-linecap="butt" stroke-linejoin="round" fill="none" stroke="#9b8afb" d="M0-2C.530406-2 1.03916-1.789267 1.414214-1.414214 1.789267-1.03916 2-.530406 2 0 2 .530406 1.789267 1.03916 1.414214 1.414214 1.03916 1.789267 .530406 2 0 2-.530406 2-1.03916 1.789267-1.414214 1.414214-1.789267 1.03916-2 .530406-2 0-2-.530406-1.789267-1.03916-1.414214-1.414214-1.03916-1.789267-.530406-2 0-2Z"/>
</g>
<g clip-path="url(#clip_17)">
<path transform="matrix(1,0,0,-1,116.13317,148.43999)" d="M0-2C.530406-2 1.03916-1.789267 1.414214-1.414214 1.789267-1.03916 2-.530406 2 0 2 .530406 1.789267 1.03916 1.414214 1.414214 1.03916 1.789267 .530406 2 0 2-.530406 2-1.03916 1.789267-1.414214 1.414214-1.789267 1.03916-2 .530406-2 0-2-.530406-1.789267-1.03916-1.414214-1.414214-1.03916-1.789267-.530406-2 0-2Z" fill="#9b8afb"/>
<path transform="matrix(1,0,0,-1,116.13317,148.43999)" stroke-width="1" stroke-linecap="butt" stroke-linejoin="round" fill="none" stroke="#9b8afb" d="M0-2C.530406-2 1.03916-1.789267 1.414214-1.414214 1.789267-1.03916 2-.530406 2 0 2 .530406 1.789267 1.03916 1.414214 1.414214 1.03916 1.789267 .530406 2 0 2-.530406 2-1.03916 1.789267-1.414214 1.414214-1.789267 1.03916-2 .530406-2 0-2-.530406-1.789267-1.03916-1.414214-1.414214-1.03916-1.789267-.530406-2 0-2Z"/>
</g>
<g clip-path="url(#clip_18)">
<path transform="matrix(1,0,0,-1,178.2082,87.59999)" d="M0-2C.530406-2 1.03916-1.789267 1.414214-1.414214 1.789267-1.03916 2-.530406 2 0 2 .530406 1.789267 1.03916 1.414214 1.414214 1.03916 1.789267 .530406 2 0 2-.530406 2-1.03916 1.789267-1.414214 1.414214-1.789267 1.03916-2 .530406-2 0-2-.530406-1.789267-1.03916-1.414214-1.414214-1.03916-1.789267-.530406-2 0-2Z" fill="#9b8afb"/>
<path transform="matrix(1,0,0,-1,178.2082,87.59999)" stroke-width="1" stroke-linecap="butt" stroke-linejoin="round" fill="none" stroke="#9b8afb" d="M0-2C.530406-2 1.03916-1.789267 1.414214-1.414214 1.789267-1.03916 2-.530406 2 0 2 .530406 1.789267 1.03916 1.414214 1.414214 1.03916 1.789267 .530406 2 0 2-.530406 2-1.03916 1.789267-1.414214 1.414214-1.789267 1.03916-2 .530406-2 0-2-.530406-1.789267-1.03916-1.414214-1.414214-1.03916-1.789267-.530406-2 0-2Z"/>
</g>
<g clip-path="url(#clip_19)">
<path transform="matrix(1,0,0,-1,240.28325,58.47999)" d="M0-2C.530406-2 1.03916-1.789267 1.414214-1.414214 1.789267-1.03916 2-.530406 2 0 2 .530406 1.789267 1.03916 1.414214 1.414214 1.03916 1.789267 .530406 2 0 2-.530406 2-1.03916 1.789267-1.414214 1.414214-1.789267 1.03916-2 .530406-2 0-2-.530406-1.789267-1.03916-1.414214-1.414214-1.03916-1.789267-.530406-2 0-2Z" fill="#9b8afb"/>
<path transform="matrix(1,0,0,-1,240.28325,58.47999)" stroke-width="1" stroke-linecap="butt" stroke-linejoin="round" fill="none" stroke="#9b8afb" d="M0-2C.530406-2 1.03916-1.789267 1.414214-1.414214 1.789267-1.03916 2-.530406 2 0 2 .530406 1.789267 1.03916 1.414214 1.414214 1.03916 1.789267 .530406 2 0 2-.530406 2-1.03916 1.789267-1.414214 1.414214-1.789267 1.03916-2 .530406-2 0-2-.530406-1.789267-1.03916-1.414214-1.414214-1.03916-1.789267-.530406-2 0-2Z"/>
</g>
</g>
<g clip-path="url(#clip_20)">
<path transform="matrix(1,0,0,-1,0,253.84)" stroke-width="2" stroke-linecap="butt" stroke-dasharray="7.4,3.2" stroke-linejoin="round" fill="none" stroke="#7db8ff" d="M54.058134 166.76 60.265634 60.94 66.47314 61.72 72.68064 71.08 78.888149 94.48 85.09565 90.84 91.303157 95.52 97.51066 90.32 103.71816 122.04 109.92567 112.68 116.13317 153.24 122.340679 135.56 128.54817 147 134.75568 177.68 140.96318 156.36 147.17069 151.16 153.37819 185.48 159.5857 190.16 165.7932 176.12 172.0007 205.76 178.2082 203.16 184.41571 196.4 190.62322 209.4 196.83072 207.32 203.03823 208.36 209.24573 211.48 215.45323 208.88 221.66074 214.08 227.86824 212.52 234.07575 210.96 240.28325 204.72"/>
<g clip-path="url(#clip_21)">
<path transform="matrix(1,0,0,-1,54.058134,87.08)" d="M-2-2H2V2H-2Z" fill="#7db8ff"/>
<path transform="matrix(1,0,0,-1,54.058134,87.08)" stroke-width="1" stroke-linecap="butt" stroke-miterlimit="10" stroke-linejoin="miter" fill="none" stroke="#7db8ff" d="M-2-2H2V2H-2Z"/>
</g>
<g clip-path="url(#clip_22)">
<path transform="matrix(1,0,0,-1,116.13317,100.600009)" d="M-2-2H2V2H-2Z" fill="#7db8ff"/>
<path transform="matrix(1,0,0,-1,116.13317,100.600009)" stroke-width="1" stroke-linecap="butt" stroke-miterlimit="10" stroke-linejoin="miter" fill="none" stroke="#7db8ff" d="M-2-2H2V2H-2Z"/>
</g>
<g clip-path="url(#clip_23)">
<path transform="matrix(1,0,0,-1,178.2082,50.680009)" d="M-2-2H2V2H-2Z" fill="#7db8ff"/>
<path transform="matrix(1,0,0,-1,178.2082,50.680009)" stroke-width="1" stroke-linecap="butt" stroke-miterlimit="10" stroke-linejoin="miter" fill="none" stroke="#7db8ff" d="M-2-2H2V2H-2Z"/>
</g>
<g clip-path="url(#clip_24)">
<path transform="matrix(1,0,0,-1,240.28325,49.120008)" d="M-2-2H2V2H-2Z" fill="#7db8ff"/>
<path transform="matrix(1,0,0,-1,240.28325,49.120008)" stroke-width="1" stroke-linecap="butt" stroke-miterlimit="10" stroke-linejoin="miter" fill="none" stroke="#7db8ff" d="M-2-2H2V2H-2Z"/>
</g>
</g>
<g clip-path="url(#clip_25)">
<path transform="matrix(1,0,0,-1,0,253.84)" stroke-width="2" stroke-linecap="butt" stroke-dasharray="12.8,3.2,2,3.2" stroke-linejoin="round" fill="none" stroke="#63c29d" d="M54.058134 167.8 60.265634 63.28 66.47314 75.76 72.68064 82 78.888149 101.76 85.09565 102.28 91.303157 155.32 97.51066 163.64 103.71816 148.04 109.92567 184.44 116.13317 183.92 122.340679 196.4 128.54817 194.84 134.75568 207.32 140.96318 208.36 147.17069 209.4 153.37819 207.84 159.5857 206.8 165.7932 212 172.0007 211.48 178.2082 195.88 184.41571 190.16 190.62322 213.56 196.83072 209.4 203.03823 212 209.24573 209.92 215.45323 212 221.66074 210.96 227.86824 214.08H234.07575L240.28325 213.56"/>
<g clip-path="url(#clip_26)">
<path transform="matrix(1,0,0,-1,54.058134,86.03999)" d="M0 2-2-2H2Z" fill="#63c29d"/>
<path transform="matrix(1,0,0,-1,54.058134,86.03999)" stroke-width="1" stroke-linecap="butt" stroke-miterlimit="10" stroke-linejoin="miter" fill="none" stroke="#63c29d" d="M0 2-2-2H2Z"/>
</g>
<g clip-path="url(#clip_27)">
<path transform="matrix(1,0,0,-1,116.13317,69.91999)" d="M0 2-2-2H2Z" fill="#63c29d"/>
<path transform="matrix(1,0,0,-1,116.13317,69.91999)" stroke-width="1" stroke-linecap="butt" stroke-miterlimit="10" stroke-linejoin="miter" fill="none" stroke="#63c29d" d="M0 2-2-2H2Z"/>
</g>
<g clip-path="url(#clip_28)">
<path transform="matrix(1,0,0,-1,178.2082,57.95999)" d="M0 2-2-2H2Z" fill="#63c29d"/>
<path transform="matrix(1,0,0,-1,178.2082,57.95999)" stroke-width="1" stroke-linecap="butt" stroke-miterlimit="10" stroke-linejoin="miter" fill="none" stroke="#63c29d" d="M0 2-2-2H2Z"/>
</g>
<g clip-path="url(#clip_29)">
<path transform="matrix(1,0,0,-1,240.28325,40.27999)" d="M0 2-2-2H2Z" fill="#63c29d"/>
<path transform="matrix(1,0,0,-1,240.28325,40.27999)" stroke-width="1" stroke-linecap="butt" stroke-miterlimit="10" stroke-linejoin="miter" fill="none" stroke="#63c29d" d="M0 2-2-2H2Z"/>
</g>
</g>
<g clip-path="url(#clip_30)">
<path transform="matrix(1,0,0,-1,0,253.84)" stroke-width="2" stroke-linecap="butt" stroke-dasharray="2,3.3" stroke-linejoin="round" fill="none" stroke="#f4a259" d="M54.058134 174.56 60.265634 65.36 66.47314 66.92 72.68064 88.76 78.888149 112.68 85.09565 114.76 91.303157 122.04 97.51066 156.88 103.71816 171.96 109.92567 162.08 116.13317 178.2 122.340679 186.52 128.54817 187.56 134.75568 200.04 140.96318 201.6 147.17069 208.36 153.37819 206.8 159.5857 211.48 165.7932 215.64 172.0007 215.12 178.2082 214.08 184.41571 215.64 190.62322 213.56 196.83072 214.08 203.03823 213.56 209.24573 206.28 215.45323 215.12 221.66074 207.84 227.86824 210.96 234.07575 215.12 240.28325 210.44"/>
<g clip-path="url(#clip_31)">
<path transform="matrix(1,0,0,-1,54.058134,79.28)" d="M0-2.828427 2.828427 0 0 2.828427-2.828427 0Z" fill="#f4a259"/>
<path transform="matrix(1,0,0,-1,54.058134,79.28)" stroke-width="1" stroke-linecap="butt" stroke-miterlimit="10" stroke-linejoin="miter" fill="none" stroke="#f4a259" d="M0-2.828427 2.828427 0 0 2.828427-2.828427 0Z"/>
</g>
<g clip-path="url(#clip_32)">
<path transform="matrix(1,0,0,-1,116.13317,75.64)" d="M0-2.828427 2.828427 0 0 2.828427-2.828427 0Z" fill="#f4a259"/>
<path transform="matrix(1,0,0,-1,116.13317,75.64)" stroke-width="1" stroke-linecap="butt" stroke-miterlimit="10" stroke-linejoin="miter" fill="none" stroke="#f4a259" d="M0-2.828427 2.828427 0 0 2.828427-2.828427 0Z"/>
</g>
<g clip-path="url(#clip_33)">
<path transform="matrix(1,0,0,-1,178.2082,39.76)" d="M0-2.828427 2.828427 0 0 2.828427-2.828427 0Z" fill="#f4a259"/>
<path transform="matrix(1,0,0,-1,178.2082,39.76)" stroke-width="1" stroke-linecap="butt" stroke-miterlimit="10" stroke-linejoin="miter" fill="none" stroke="#f4a259" d="M0-2.828427 2.828427 0 0 2.828427-2.828427 0Z"/>
</g>
<g clip-path="url(#clip_34)">
<path transform="matrix(1,0,0,-1,240.28325,43.399999)" d="M0-2.828427 2.828427 0 0 2.828427-2.828427 0Z" fill="#f4a259"/>
<path transform="matrix(1,0,0,-1,240.28325,43.399999)" stroke-width="1" stroke-linecap="butt" stroke-miterlimit="10" stroke-linejoin="miter" fill="none" stroke="#f4a259" d="M0-2.828427 2.828427 0 0 2.828427-2.828427 0Z"/>
</g>
</g>
<g clip-path="url(#clip_35)">
<path transform="matrix(1,0,0,-1,0,253.84)" stroke-width="2" stroke-linecap="square" stroke-linejoin="round" fill="none" stroke="#f16b6f" d="M54.058134 174.04 60.265634 74.98 66.47314 94.87 72.68064 101.89 78.888149 126.46 85.09565 143.23 91.303157 168.19 97.51066 170.92 103.71816 188.08 109.92567 188.47 116.13317 197.44 122.340679 197.83 128.54817 206.02 134.75568 204.07 140.96318 211.48 147.17069 204.07 153.37819 209.14 159.5857 199 165.7932 192.76 172.0007 204.46 178.2082 212 184.41571 208.88 190.62322 213.04 196.83072 209.4 203.03823 210.96 209.24573 212 215.45323 214.08 221.66074 216.16 227.86824 213.56 234.07575 208.88 240.28325 213.56"/>
<g clip-path="url(#clip_36)">
<path transform="matrix(1,0,0,-1,54.058134,79.8)" d="M0-2 2 2H-2Z" fill="#f16b6f"/>
<path transform="matrix(1,0,0,-1,54.058134,79.8)" stroke-width="1" stroke-linecap="butt" stroke-miterlimit="10" stroke-linejoin="miter" fill="none" stroke="#f16b6f" d="M0-2 2 2H-2Z"/>
</g>
<g clip-path="url(#clip_37)">
<path transform="matrix(1,0,0,-1,116.13317,56.4)" d="M0-2 2 2H-2Z" fill="#f16b6f"/>
<path transform="matrix(1,0,0,-1,116.13317,56.4)" stroke-width="1" stroke-linecap="butt" stroke-miterlimit="10" stroke-linejoin="miter" fill="none" stroke="#f16b6f" d="M0-2 2 2H-2Z"/>
</g>
<g clip-path="url(#clip_38)">
<path transform="matrix(1,0,0,-1,178.2082,41.84)" d="M0-2 2 2H-2Z" fill="#f16b6f"/>
<path transform="matrix(1,0,0,-1,178.2082,41.84)" stroke-width="1" stroke-linecap="butt" stroke-miterlimit="10" stroke-linejoin="miter" fill="none" stroke="#f16b6f" d="M0-2 2 2H-2Z"/>
</g>
<g clip-path="url(#clip_39)">
<path transform="matrix(1,0,0,-1,240.28325,40.28)" d="M0-2 2 2H-2Z" fill="#f16b6f"/>
<path transform="matrix(1,0,0,-1,240.28325,40.28)" stroke-width="1" stroke-linecap="butt" stroke-miterlimit="10" stroke-linejoin="miter" fill="none" stroke="#f16b6f" d="M0-2 2 2H-2Z"/>
</g>
</g>
<path transform="matrix(1,0,0,-1,0,253.84)" stroke-width=".8" stroke-linecap="square" stroke-miterlimit="10" stroke-linejoin="miter" fill="none" stroke="#000000" d="M44.746877 60.16V216.16"/>
<path transform="matrix(1,0,0,-1,0,253.84)" stroke-width=".8" stroke-linecap="square" stroke-miterlimit="10" stroke-linejoin="miter" fill="none" stroke="#000000" d="M249.5945 60.16V216.16"/>
<path transform="matrix(1,0,0,-1,0,253.84)" stroke-width=".8" stroke-linecap="square" stroke-miterlimit="10" stroke-linejoin="miter" fill="none" stroke="#000000" d="M44.746877 60.16H249.5945"/>
<path transform="matrix(1,0,0,-1,0,253.84)" stroke-width=".8" stroke-linecap="square" stroke-miterlimit="10" stroke-linejoin="miter" fill="none" stroke="#000000" d="M44.746877 216.16H249.5945"/>
<text xml:space="preserve" transform="matrix(1 0 -0 1 111.076938 31.679993)" font-size="12" font-family="DejaVuSansMono"><tspan y="0" x="0 7.224001 14.448002 21.672003 28.896004 36.120004 43.344 50.568 57.792 65.016">BoxCleanup</tspan></text>
<path transform="matrix(1,0,0,-1,0,253.84)" d="M284.88426 60.16H489.73188V216.16H284.88426Z" fill="#ffffff"/>
<g clip-path="url(#clip_40)">
<g>
<path transform="matrix(1,0,0,-1,0,253.84)" d="M294.1955 192.52591V184.67409L297.92 60.16H301.6445 305.36903L309.0935 56.353338 312.81803 60.16 316.5425 58.637334 320.26704 63.28 323.99153 57.876 327.71604 57.11467 331.44053 60.16 335.16505 64.424709 338.88954 57.570405 342.61405 57.78457 346.33854 59.55412 350.06306 76.43091 353.78755 73.8988 357.51206 58.406007 361.23655 43.612257 364.96107 58.78667 368.68556 92.24047 372.41007 84.3185 376.13456 75.26992 379.85908 64.352008 383.58357 151.476 387.30809 138.66268 391.03257 112.78468 394.75709 125.68 398.48158 107.90336 402.2061 146.50601 405.93058 151.8894 409.6551 180.01134 413.37959 180.11334 417.1041 173.28867 420.82859 199.79866 424.5531 181.723 428.2776 189.54773 432.00209 190.03067 435.7266 123.958789 439.45109 189.78787 443.1756 191.75734 446.9001 186.19068 450.6246 200.56 454.3491 194.56147 458.0736 198.2252 461.7981 204.516 465.5226 209.15866 469.2471 183.84024 472.97163 201.81707 476.6961 204.93706 480.42063 207.23412V216.76589L476.6961 209.70294 472.97163 206.58293 469.2471 211.03977 465.5226 212.76134 461.7981 215.324 458.0736 211.2148 454.3491 205.51854 450.6246 213.04 446.9001 208.68932 443.1756 198.96266 439.45109 213.41213 435.7266 223.0812 432.00209 215.24933 428.2776 204.29227 424.5531 214.19699 420.82859 203.40134 417.1041 203.91133 413.37959 198.12667 409.6551 203.42867 405.93058 182.6706 402.2061 188.05399 398.48158 197.53664 394.75709 169.36 391.03257 208.25533 387.30809 185.49733 383.58357 162.284 379.85908 199.48799 376.13456 192.73009 372.41007 156.64151 368.68556 146.63953 364.96107 94.81333 361.23655 125.587749 357.51206 96.23399 353.78755 137.9412 350.06306 135.40909 346.33854 69.08588 342.61405 109.33543 338.88954 83.5496 335.16505 79.8153 331.44053 69.52 327.71604 71.52533 323.99153 68.684 320.26704 75.76 316.5425 65.84267 312.81803 60.16 309.0935 74.36666 305.36903 60.16H301.6445 297.92L294.1955 192.52591Z" fill="#63c29d" fill-opacity=".2"/>
<path transform="matrix(1,0,0,-1,0,253.84)" stroke-width="1" stroke-linecap="butt" stroke-linejoin="round" fill="none" stroke="#63c29d" stroke-opacity=".2" d="M294.1955 192.52591V184.67409L297.92 60.16H301.6445 305.36903L309.0935 56.353338 312.81803 60.16 316.5425 58.637334 320.26704 63.28 323.99153 57.876 327.71604 57.11467 331.44053 60.16 335.16505 64.424709 338.88954 57.570405 342.61405 57.78457 346.33854 59.55412 350.06306 76.43091 353.78755 73.8988 357.51206 58.406007 361.23655 43.612257 364.96107 58.78667 368.68556 92.24047 372.41007 84.3185 376.13456 75.26992 379.85908 64.352008 383.58357 151.476 387.30809 138.66268 391.03257 112.78468 394.75709 125.68 398.48158 107.90336 402.2061 146.50601 405.93058 151.8894 409.6551 180.01134 413.37959 180.11334 417.1041 173.28867 420.82859 199.79866 424.5531 181.723 428.2776 189.54773 432.00209 190.03067 435.7266 123.958789 439.45109 189.78787 443.1756 191.75734 446.9001 186.19068 450.6246 200.56 454.3491 194.56147 458.0736 198.2252 461.7981 204.516 465.5226 209.15866 469.2471 183.84024 472.97163 201.81707 476.6961 204.93706 480.42063 207.23412V216.76589L476.6961 209.70294 472.97163 206.58293 469.2471 211.03977 465.5226 212.76134 461.7981 215.324 458.0736 211.2148 454.3491 205.51854 450.6246 213.04 446.9001 208.68932 443.1756 198.96266 439.45109 213.41213 435.7266 223.0812 432.00209 215.24933 428.2776 204.29227 424.5531 214.19699 420.82859 203.40134 417.1041 203.91133 413.37959 198.12667 409.6551 203.42867 405.93058 182.6706 402.2061 188.05399 398.48158 197.53664 394.75709 169.36 391.03257 208.25533 387.30809 185.49733 383.58357 162.284 379.85908 199.48799 376.13456 192.73009 372.41007 156.64151 368.68556 146.63953 364.96107 94.81333 361.23655 125.587749 357.51206 96.23399 353.78755 137.9412 350.06306 135.40909 346.33854 69.08588 342.61405 109.33543 338.88954 83.5496 335.16505 79.8153 331.44053 69.52 327.71604 71.52533 323.99153 68.684 320.26704 75.76 316.5425 65.84267 312.81803 60.16 309.0935 74.36666 305.36903 60.16H301.6445 297.92L294.1955 192.52591Z"/>
</g>
</g>
<g clip-path="url(#clip_41)">
<g>
<path transform="matrix(1,0,0,-1,0,253.84)" d="M294.1955 188.34867V164.93134L297.92 60.16 301.6445 57.11467 305.36903 68.51263 309.0935 75.00524 312.81803 54.4796 316.5425 78.88 320.26704 101.71578 323.99153 111.54839 327.71604 112.89923 331.44053 130.0123 335.16505 103.260318 338.88954 70.42711 342.61405 105.25117 346.33854 104.54735 350.06306 89.91832 353.78755 102.13127 357.51206 128.99385 361.23655 180.42787 364.96107 146.69193 368.68556 171.09648 372.41007 185.67136 376.13456 141.59439 379.85908 177.563 383.58357 178.57997 387.30809 200.83867 391.03257 199.69667 394.75709 186.96024 398.48158 202.36557 402.2061 199.85393 405.93058 206.8 409.6551 204.5926 413.37959 205.48146 417.1041 198.83335 420.82859 207.5053 424.5531 202.36557 428.2776 208.59409 432.00209 204.95409 435.7266 208.59409 439.45109 197.453 443.1756 211.69707 446.9001 209.61707 450.6246 207.35263 454.3491 211.61934 458.0736 210.47734 461.7981 199.98818 465.5226 207.1926 469.2471 213.31867H472.97163L476.6961 210.47734 480.42063 191.8904V212.34961L476.6961 217.68267 472.97163 216.92133H469.2471L465.5226 213.6874 461.7981 215.69184 458.0736 217.68267 454.3491 213.42067 450.6246 215.60738 446.9001 214.38294 443.1756 216.46294 439.45109 218.22699 435.7266 216.4459 432.00209 212.80591 428.2776 216.4459 424.5531 216.43444 420.82859 217.5347 417.1041 216.84667 413.37959 216.43854 409.6551 211.0874 405.93058 209.92 402.2061 211.66606 398.48158 216.43444 394.75709 214.15976 391.03257 208.70334 387.30809 204.44133 383.58357 217.34003 379.85908 210.037 376.13456 227.2856 372.41007 212.32865 368.68556 209.22351 364.96107 212.82808 361.23655 204.05213 357.51206 213.88614 353.78755 209.54872 350.06306 192.64168 346.33854 196.73265 342.61405 168.98883 338.88954 204.85289 335.16505 180.33968 331.44053 187.9077 327.71604 131.18077 323.99153 164.7716 320.26704 150.68422 316.5425 138.16 312.81803 102.2404 309.0935 109.79476 305.36903 76.76737 301.6445 71.52533 297.92 60.16 294.1955 188.34867Z" fill="#f16b6f" fill-opacity=".2"/>
<path transform="matrix(1,0,0,-1,0,253.84)" stroke-width="1" stroke-linecap="butt" stroke-linejoin="round" fill="none" stroke="#f16b6f" stroke-opacity=".2" d="M294.1955 188.34867V164.93134L297.92 60.16 301.6445 57.11467 305.36903 68.51263 309.0935 75.00524 312.81803 54.4796 316.5425 78.88 320.26704 101.71578 323.99153 111.54839 327.71604 112.89923 331.44053 130.0123 335.16505 103.260318 338.88954 70.42711 342.61405 105.25117 346.33854 104.54735 350.06306 89.91832 353.78755 102.13127 357.51206 128.99385 361.23655 180.42787 364.96107 146.69193 368.68556 171.09648 372.41007 185.67136 376.13456 141.59439 379.85908 177.563 383.58357 178.57997 387.30809 200.83867 391.03257 199.69667 394.75709 186.96024 398.48158 202.36557 402.2061 199.85393 405.93058 206.8 409.6551 204.5926 413.37959 205.48146 417.1041 198.83335 420.82859 207.5053 424.5531 202.36557 428.2776 208.59409 432.00209 204.95409 435.7266 208.59409 439.45109 197.453 443.1756 211.69707 446.9001 209.61707 450.6246 207.35263 454.3491 211.61934 458.0736 210.47734 461.7981 199.98818 465.5226 207.1926 469.2471 213.31867H472.97163L476.6961 210.47734 480.42063 191.8904V212.34961L476.6961 217.68267 472.97163 216.92133H469.2471L465.5226 213.6874 461.7981 215.69184 458.0736 217.68267 454.3491 213.42067 450.6246 215.60738 446.9001 214.38294 443.1756 216.46294 439.45109 218.22699 435.7266 216.4459 432.00209 212.80591 428.2776 216.4459 424.5531 216.43444 420.82859 217.5347 417.1041 216.84667 413.37959 216.43854 409.6551 211.0874 405.93058 209.92 402.2061 211.66606 398.48158 216.43444 394.75709 214.15976 391.03257 208.70334 387.30809 204.44133 383.58357 217.34003 379.85908 210.037 376.13456 227.2856 372.41007 212.32865 368.68556 209.22351 364.96107 212.82808 361.23655 204.05213 357.51206 213.88614 353.78755 209.54872 350.06306 192.64168 346.33854 196.73265 342.61405 168.98883 338.88954 204.85289 335.16505 180.33968 331.44053 187.9077 327.71604 131.18077 323.99153 164.7716 320.26704 150.68422 316.5425 138.16 312.81803 102.2404 309.0935 109.79476 305.36903 76.76737 301.6445 71.52533 297.92 60.16 294.1955 188.34867Z"/>
</g>
</g>
<g clip-path="url(#clip_42)">
<g>
<path transform="matrix(1,0,0,-1,0,253.84)" d="M294.1955 174.7653V158.7547L297.92 63.354669 301.6445 60.16 305.36903 65.7526 309.0935 63.47577 312.81803 63.945898 316.5425 68.908008 320.26704 78.3017 323.99153 87.35429 327.71604 74.99496 331.44053 98.59842 335.16505 108.585147 338.88954 113.22081 342.61405 131.38632 346.33854 149.52584 350.06306 125.820369 353.78755 141.77835 357.51206 134.85422 361.23655 150.64 364.96107 145.81118 368.68556 173.59467 372.41007 157.05678 376.13456 166.22595 379.85908 137.78739 383.58357 168.65235 387.30809 175.02817 391.03257 185.55074 394.75709 199.91384 398.48158 198.94457 402.2061 185.17223 405.93058 192.97222 409.6551 201.15074 413.37959 203.03383 417.1041 202.9784H420.82859L424.5531 183.5568 428.2776 206.74457 432.00209 199.21222 435.7266 187.9137 439.45109 194.8553 443.1756 202.9784 446.9001 196.73839 450.6246 204.86148 454.3491 210.51074 458.0736 209.27384 461.7981 196.09223 465.5226 201.0953 469.2471 198.94457 472.97163 210.51074H476.6961L480.42063 28.820603V242.8194L476.6961 217.12926H472.97163L469.2471 209.97544 465.5226 218.74469 461.7981 215.94779 458.0736 213.68618 454.3491 217.12926 450.6246 218.09853 446.9001 212.18161 443.1756 218.4216 439.45109 212.5047 435.7266 221.0063 432.00209 219.06778 428.2776 217.77544 424.5531 214.4432 420.82859 218.4216H417.1041L413.37959 207.44617 409.6551 207.76926 405.93058 212.82778 402.2061 205.02779 398.48158 209.97544 394.75709 204.32617 391.03257 192.16927 387.30809 190.73183 383.58357 210.62766 379.85908 216.53263 376.13456 204.73406 372.41007 218.06322 368.68556 188.00533 364.96107 209.54883 361.23655 197.44 357.51206 190.3458 353.78755 179.26166 350.06306 179.61963 346.33854 193.35416 342.61405 190.69368 338.88954 165.1792 335.16505 137.57486 331.44053 176.68158 327.71604 133.72504 323.99153 104.725719 320.26704 129.3783 316.5425 101.33199 312.81803 99.01411 309.0935 113.004238 305.36903 72.2474 301.6445 60.16 297.92 77.76533 294.1955 174.7653Z" fill="#4a5568" fill-opacity=".2"/>
<path transform="matrix(1,0,0,-1,0,253.84)" stroke-width="1" stroke-linecap="butt" stroke-linejoin="round" fill="none" stroke="#4a5568" stroke-opacity=".2" d="M294.1955 174.7653V158.7547L297.92 63.354669 301.6445 60.16 305.36903 65.7526 309.0935 63.47577 312.81803 63.945898 316.5425 68.908008 320.26704 78.3017 323.99153 87.35429 327.71604 74.99496 331.44053 98.59842 335.16505 108.585147 338.88954 113.22081 342.61405 131.38632 346.33854 149.52584 350.06306 125.820369 353.78755 141.77835 357.51206 134.85422 361.23655 150.64 364.96107 145.81118 368.68556 173.59467 372.41007 157.05678 376.13456 166.22595 379.85908 137.78739 383.58357 168.65235 387.30809 175.02817 391.03257 185.55074 394.75709 199.91384 398.48158 198.94457 402.2061 185.17223 405.93058 192.97222 409.6551 201.15074 413.37959 203.03383 417.1041 202.9784H420.82859L424.5531 183.5568 428.2776 206.74457 432.00209 199.21222 435.7266 187.9137 439.45109 194.8553 443.1756 202.9784 446.9001 196.73839 450.6246 204.86148 454.3491 210.51074 458.0736 209.27384 461.7981 196.09223 465.5226 201.0953 469.2471 198.94457 472.97163 210.51074H476.6961L480.42063 28.820603V242.8194L476.6961 217.12926H472.97163L469.2471 209.97544 465.5226 218.74469 461.7981 215.94779 458.0736 213.68618 454.3491 217.12926 450.6246 218.09853 446.9001 212.18161 443.1756 218.4216 439.45109 212.5047 435.7266 221.0063 432.00209 219.06778 428.2776 217.77544 424.5531 214.4432 420.82859 218.4216H417.1041L413.37959 207.44617 409.6551 207.76926 405.93058 212.82778 402.2061 205.02779 398.48158 209.97544 394.75709 204.32617 391.03257 192.16927 387.30809 190.73183 383.58357 210.62766 379.85908 216.53263 376.13456 204.73406 372.41007 218.06322 368.68556 188.00533 364.96107 209.54883 361.23655 197.44 357.51206 190.3458 353.78755 179.26166 350.06306 179.61963 346.33854 193.35416 342.61405 190.69368 338.88954 165.1792 335.16505 137.57486 331.44053 176.68158 327.71604 133.72504 323.99153 104.725719 320.26704 129.3783 316.5425 101.33199 312.81803 99.01411 309.0935 113.004238 305.36903 72.2474 301.6445 60.16 297.92 77.76533 294.1955 174.7653Z"/>
</g>
</g>
<g clip-path="url(#clip_43)">
<path transform="matrix(1,0,0,-1,0,253.84)" stroke-width=".8" stroke-linecap="square" stroke-linejoin="round" fill="none" stroke="#b0b0b0" stroke-opacity=".3" d="M294.1955 60.16V216.16"/>
</g>
<path transform="matrix(1,0,0,-1,0,253.84)" d="M294.1955 60.16V56.66"/>
<path transform="matrix(1,0,0,-1,0,253.84)" stroke-width=".8" stroke-linecap="butt" stroke-linejoin="round" fill="none" stroke="#000000" d="M294.1955 60.16V56.66"/>
<text xml:space="preserve" transform="matrix(1 0 -0 1 291.0158 208.27375)" font-size="10" font-family="DejaVuSans"><tspan y="0" x="0">0</tspan></text>
<g clip-path="url(#clip_44)">
<path transform="matrix(1,0,0,-1,0,253.84)" stroke-width=".8" stroke-linecap="square" stroke-linejoin="round" fill="none" stroke="#b0b0b0" stroke-opacity=".3" d="M331.44053 60.16V216.16"/>
</g>
<path transform="matrix(1,0,0,-1,0,253.84)" d="M331.44053 60.16V56.66"/>
<path transform="matrix(1,0,0,-1,0,253.84)" stroke-width=".8" stroke-linecap="butt" stroke-linejoin="round" fill="none" stroke="#000000" d="M331.44053 60.16V56.66"/>
<text xml:space="preserve" transform="matrix(1 0 -0 1 321.90147 208.27375)" font-size="10" font-family="DejaVuSans"><tspan y="0" x="0 6.3600008 12.720001">100</tspan></text>
<g clip-path="url(#clip_45)">
<path transform="matrix(1,0,0,-1,0,253.84)" stroke-width=".8" stroke-linecap="square" stroke-linejoin="round" fill="none" stroke="#b0b0b0" stroke-opacity=".3" d="M368.68556 60.16V216.16"/>
</g>
<path transform="matrix(1,0,0,-1,0,253.84)" d="M368.68556 60.16V56.66"/>
<path transform="matrix(1,0,0,-1,0,253.84)" stroke-width=".8" stroke-linecap="butt" stroke-linejoin="round" fill="none" stroke="#000000" d="M368.68556 60.16V56.66"/>
<text xml:space="preserve" transform="matrix(1 0 -0 1 359.14649 208.27375)" font-size="10" font-family="DejaVuSans"><tspan y="0" x="0 6.3600008 12.720001">200</tspan></text>
<g clip-path="url(#clip_46)">
<path transform="matrix(1,0,0,-1,0,253.84)" stroke-width=".8" stroke-linecap="square" stroke-linejoin="round" fill="none" stroke="#b0b0b0" stroke-opacity=".3" d="M405.93058 60.16V216.16"/>
</g>
<path transform="matrix(1,0,0,-1,0,253.84)" d="M405.93058 60.16V56.66"/>
<path transform="matrix(1,0,0,-1,0,253.84)" stroke-width=".8" stroke-linecap="butt" stroke-linejoin="round" fill="none" stroke="#000000" d="M405.93058 60.16V56.66"/>
<text xml:space="preserve" transform="matrix(1 0 -0 1 396.3915 208.27375)" font-size="10" font-family="DejaVuSans"><tspan y="0" x="0 6.3600008 12.720001">300</tspan></text>
<g clip-path="url(#clip_47)">
<path transform="matrix(1,0,0,-1,0,253.84)" stroke-width=".8" stroke-linecap="square" stroke-linejoin="round" fill="none" stroke="#b0b0b0" stroke-opacity=".3" d="M443.1756 60.16V216.16"/>
</g>
<path transform="matrix(1,0,0,-1,0,253.84)" d="M443.1756 60.16V56.66"/>
<path transform="matrix(1,0,0,-1,0,253.84)" stroke-width=".8" stroke-linecap="butt" stroke-linejoin="round" fill="none" stroke="#000000" d="M443.1756 60.16V56.66"/>
<text xml:space="preserve" transform="matrix(1 0 -0 1 433.63655 208.27375)" font-size="10" font-family="DejaVuSans"><tspan y="0" x="0 6.3600008 12.720001">400</tspan></text>
<g clip-path="url(#clip_48)">
<path transform="matrix(1,0,0,-1,0,253.84)" stroke-width=".8" stroke-linecap="square" stroke-linejoin="round" fill="none" stroke="#b0b0b0" stroke-opacity=".3" d="M480.42063 60.16V216.16"/>
</g>
<path transform="matrix(1,0,0,-1,0,253.84)" d="M480.42063 60.16V56.66"/>
<path transform="matrix(1,0,0,-1,0,253.84)" stroke-width=".8" stroke-linecap="butt" stroke-linejoin="round" fill="none" stroke="#000000" d="M480.42063 60.16V56.66"/>
<text xml:space="preserve" transform="matrix(1 0 -0 1 470.88157 208.27375)" font-size="10" font-family="DejaVuSans"><tspan y="0" x="0 6.3600008 12.720001">500</tspan></text>
<text xml:space="preserve" transform="matrix(1 0 -0 1 310.3862 222.71125)" font-size="11" font-family="DejaVuSans"><tspan y="0" x="0 6.952 13.926001 20.438 23.496 27.782626 34.514627 41.488626 52.202627 58.967626 65.94163 70.25363 73.75163 80.73663 85.04863 91.81363 98.79863 104.52963 108.02763 112.317638 121.53564 128.53163 135.52764 142.52364 149.51964">Environment Steps (&#x00d7;1000)</tspan></text>
<g clip-path="url(#clip_49)">
<path transform="matrix(1,0,0,-1,0,253.84)" stroke-width=".8" stroke-linecap="square" stroke-linejoin="round" fill="none" stroke="#b0b0b0" stroke-opacity=".3" d="M284.88426 60.16H489.73188"/>
</g>
<path transform="matrix(1,0,0,-1,0,253.84)" d="M284.88426 60.16H281.38426"/>
<path transform="matrix(1,0,0,-1,0,253.84)" stroke-width=".8" stroke-linecap="butt" stroke-linejoin="round" fill="none" stroke="#000000" d="M284.88426 60.16H281.38426"/>
<text xml:space="preserve" transform="matrix(1 0 -0 1 261.978 197.47687)" font-size="10" font-family="DejaVuSans"><tspan y="0" x="0 6.3600008 9.540001">0.0</tspan></text>
<g clip-path="url(#clip_50)">
<path transform="matrix(1,0,0,-1,0,253.84)" stroke-width=".8" stroke-linecap="square" stroke-linejoin="round" fill="none" stroke="#b0b0b0" stroke-opacity=".3" d="M284.88426 91.36H489.73188"/>
</g>
<path transform="matrix(1,0,0,-1,0,253.84)" d="M284.88426 91.36H281.38426"/>
<path transform="matrix(1,0,0,-1,0,253.84)" stroke-width=".8" stroke-linecap="butt" stroke-linejoin="round" fill="none" stroke="#000000" d="M284.88426 91.36H281.38426"/>
<text xml:space="preserve" transform="matrix(1 0 -0 1 261.978 166.27687)" font-size="10" font-family="DejaVuSans"><tspan y="0" x="0 6.3600008 9.540001">0.2</tspan></text>
<g clip-path="url(#clip_51)">
<path transform="matrix(1,0,0,-1,0,253.84)" stroke-width=".8" stroke-linecap="square" stroke-linejoin="round" fill="none" stroke="#b0b0b0" stroke-opacity=".3" d="M284.88426 122.56H489.73188"/>
</g>
<path transform="matrix(1,0,0,-1,0,253.84)" d="M284.88426 122.56H281.38426"/>
<path transform="matrix(1,0,0,-1,0,253.84)" stroke-width=".8" stroke-linecap="butt" stroke-linejoin="round" fill="none" stroke="#000000" d="M284.88426 122.56H281.38426"/>
<text xml:space="preserve" transform="matrix(1 0 -0 1 261.978 135.07688)" font-size="10" font-family="DejaVuSans"><tspan y="0" x="0 6.3600008 9.540001">0.4</tspan></text>
<g clip-path="url(#clip_52)">
<path transform="matrix(1,0,0,-1,0,253.84)" stroke-width=".8" stroke-linecap="square" stroke-linejoin="round" fill="none" stroke="#b0b0b0" stroke-opacity=".3" d="M284.88426 153.76H489.73188"/>
</g>
<path transform="matrix(1,0,0,-1,0,253.84)" d="M284.88426 153.76H281.38426"/>
<path transform="matrix(1,0,0,-1,0,253.84)" stroke-width=".8" stroke-linecap="butt" stroke-linejoin="round" fill="none" stroke="#000000" d="M284.88426 153.76H281.38426"/>
<text xml:space="preserve" transform="matrix(1 0 -0 1 261.978 103.87688)" font-size="10" font-family="DejaVuSans"><tspan y="0" x="0 6.3600008 9.540001">0.6</tspan></text>
<g clip-path="url(#clip_53)">
<path transform="matrix(1,0,0,-1,0,253.84)" stroke-width=".8" stroke-linecap="square" stroke-linejoin="round" fill="none" stroke="#b0b0b0" stroke-opacity=".3" d="M284.88426 184.96H489.73188"/>
</g>
<path transform="matrix(1,0,0,-1,0,253.84)" d="M284.88426 184.96H281.38426"/>
<path transform="matrix(1,0,0,-1,0,253.84)" stroke-width=".8" stroke-linecap="butt" stroke-linejoin="round" fill="none" stroke="#000000" d="M284.88426 184.96H281.38426"/>
<text xml:space="preserve" transform="matrix(1 0 -0 1 261.978 72.676868)" font-size="10" font-family="DejaVuSans"><tspan y="0" x="0 6.3600008 9.540001">0.8</tspan></text>
<g clip-path="url(#clip_54)">
<path transform="matrix(1,0,0,-1,0,253.84)" stroke-width=".8" stroke-linecap="square" stroke-linejoin="round" fill="none" stroke="#b0b0b0" stroke-opacity=".3" d="M284.88426 216.16H489.73188"/>
</g>
<path transform="matrix(1,0,0,-1,0,253.84)" d="M284.88426 216.16H281.38426"/>
<path transform="matrix(1,0,0,-1,0,253.84)" stroke-width=".8" stroke-linecap="butt" stroke-linejoin="round" fill="none" stroke="#000000" d="M284.88426 216.16H281.38426"/>
<text xml:space="preserve" transform="matrix(1 0 -0 1 261.978 41.476869)" font-size="10" font-family="DejaVuSans"><tspan y="0" x="0 6.3600008 9.540001">1.0</tspan></text>
<g clip-path="url(#clip_55)">
<path transform="matrix(1,0,0,-1,0,253.84)" stroke-width="2" stroke-linecap="butt" stroke-dasharray="12.8,3.2,2,3.2" stroke-linejoin="round" fill="none" stroke="#63c29d" d="M294.1955 188.6 297.92 60.94H301.6445 305.36903L309.0935 65.36 312.81803 60.94 316.5425 62.24 320.26704 69.52 323.99153 63.28 327.71604 64.32 331.44053 64.84 335.16505 72.12 338.88954 70.56 342.61405 83.56 346.33854 64.32 350.06306 105.92H353.78755L357.51206 77.32 361.23655 84.6 364.96107 76.8 368.68556 119.44 372.41007 120.48 376.13456 134 379.85908 131.92 383.58357 156.88 387.30809 162.08 391.03257 160.52 394.75709 147.52 398.48158 152.72 402.2061 167.28H405.93058L409.6551 191.72 413.37959 189.12 417.1041 188.6 420.82859 201.6 424.5531 197.96 428.2776 196.92 432.00209 202.64 435.7266 173.52 439.45109 201.6 443.1756 195.36 446.9001 197.44 450.6246 206.8 454.3491 200.04 458.0736 204.72 461.7981 209.92 465.5226 210.96 469.2471 197.44 472.97163 204.2 476.6961 207.32 480.42063 212"/>
<g clip-path="url(#clip_56)">
<path transform="matrix(1,0,0,-1,294.1955,65.23999)" d="M0 2-2-2H2Z" fill="#63c29d"/>
<path transform="matrix(1,0,0,-1,294.1955,65.23999)" stroke-width="1" stroke-linecap="butt" stroke-miterlimit="10" stroke-linejoin="miter" fill="none" stroke="#63c29d" d="M0 2-2-2H2Z"/>
</g>
<g clip-path="url(#clip_57)">
<path transform="matrix(1,0,0,-1,331.44053,189)" d="M0 2-2-2H2Z" fill="#63c29d"/>
<path transform="matrix(1,0,0,-1,331.44053,189)" stroke-width="1" stroke-linecap="butt" stroke-miterlimit="10" stroke-linejoin="miter" fill="none" stroke="#63c29d" d="M0 2-2-2H2Z"/>
</g>
<g clip-path="url(#clip_58)">
<path transform="matrix(1,0,0,-1,368.68556,134.4)" d="M0 2-2-2H2Z" fill="#63c29d"/>
<path transform="matrix(1,0,0,-1,368.68556,134.4)" stroke-width="1" stroke-linecap="butt" stroke-miterlimit="10" stroke-linejoin="miter" fill="none" stroke="#63c29d" d="M0 2-2-2H2Z"/>
</g>
<g clip-path="url(#clip_59)">
<path transform="matrix(1,0,0,-1,405.93058,86.56)" d="M0 2-2-2H2Z" fill="#63c29d"/>
<path transform="matrix(1,0,0,-1,405.93058,86.56)" stroke-width="1" stroke-linecap="butt" stroke-miterlimit="10" stroke-linejoin="miter" fill="none" stroke="#63c29d" d="M0 2-2-2H2Z"/>
</g>
<g clip-path="url(#clip_60)">
<path transform="matrix(1,0,0,-1,443.1756,58.479997)" d="M0 2-2-2H2Z" fill="#63c29d"/>
<path transform="matrix(1,0,0,-1,443.1756,58.479997)" stroke-width="1" stroke-linecap="butt" stroke-miterlimit="10" stroke-linejoin="miter" fill="none" stroke="#63c29d" d="M0 2-2-2H2Z"/>
</g>
<g clip-path="url(#clip_61)">
<path transform="matrix(1,0,0,-1,480.42063,41.839998)" d="M0 2-2-2H2Z" fill="#63c29d"/>
<path transform="matrix(1,0,0,-1,480.42063,41.839998)" stroke-width="1" stroke-linecap="butt" stroke-miterlimit="10" stroke-linejoin="miter" fill="none" stroke="#63c29d" d="M0 2-2-2H2Z"/>
</g>
</g>
<g clip-path="url(#clip_62)">
<path transform="matrix(1,0,0,-1,0,253.84)" stroke-width="2" stroke-linecap="square" stroke-linejoin="round" fill="none" stroke="#f16b6f" d="M294.1955 176.64 297.92 60.94 301.6445 64.32 305.36903 72.64 309.0935 92.4 312.81803 78.36 316.5425 108.52 320.26704 126.2 323.99153 138.16 327.71604 122.04 331.44053 158.96 335.16505 141.8 338.88954 137.64 342.61405 137.12 346.33854 150.64 350.06306 141.28 353.78755 155.84 357.51206 171.44 361.23655 192.24 364.96107 179.76 368.68556 190.16 372.41007 199 376.13456 184.44 379.85908 193.8 383.58357 197.96 387.30809 202.64 391.03257 204.2 394.75709 200.56 398.48158 209.4 402.2061 205.76 405.93058 208.36 409.6551 207.84 413.37959 210.96 417.1041 207.84 420.82859 212.52 424.5531 209.4 428.2776 212.52 432.00209 208.88 435.7266 212.52 439.45109 207.84 443.1756 214.08 446.9001 212 450.6246 211.48 454.3491 212.52 458.0736 214.08 461.7981 207.84 465.5226 210.44 469.2471 215.12H472.97163L476.6961 214.08 480.42063 202.12"/>
<g clip-path="url(#clip_63)">
<path transform="matrix(1,0,0,-1,294.1955,77.2)" d="M0-2 2 2H-2Z" fill="#f16b6f"/>
<path transform="matrix(1,0,0,-1,294.1955,77.2)" stroke-width="1" stroke-linecap="butt" stroke-miterlimit="10" stroke-linejoin="miter" fill="none" stroke="#f16b6f" d="M0-2 2 2H-2Z"/>
</g>
<g clip-path="url(#clip_64)">
<path transform="matrix(1,0,0,-1,331.44053,94.88)" d="M0-2 2 2H-2Z" fill="#f16b6f"/>
<path transform="matrix(1,0,0,-1,331.44053,94.88)" stroke-width="1" stroke-linecap="butt" stroke-miterlimit="10" stroke-linejoin="miter" fill="none" stroke="#f16b6f" d="M0-2 2 2H-2Z"/>
</g>
<g clip-path="url(#clip_65)">
<path transform="matrix(1,0,0,-1,368.68556,63.679998)" d="M0-2 2 2H-2Z" fill="#f16b6f"/>
<path transform="matrix(1,0,0,-1,368.68556,63.679998)" stroke-width="1" stroke-linecap="butt" stroke-miterlimit="10" stroke-linejoin="miter" fill="none" stroke="#f16b6f" d="M0-2 2 2H-2Z"/>
</g>
<g clip-path="url(#clip_66)">
<path transform="matrix(1,0,0,-1,405.93058,45.479997)" d="M0-2 2 2H-2Z" fill="#f16b6f"/>
<path transform="matrix(1,0,0,-1,405.93058,45.479997)" stroke-width="1" stroke-linecap="butt" stroke-miterlimit="10" stroke-linejoin="miter" fill="none" stroke="#f16b6f" d="M0-2 2 2H-2Z"/>
</g>
<g clip-path="url(#clip_67)">
<path transform="matrix(1,0,0,-1,443.1756,39.759996)" d="M0-2 2 2H-2Z" fill="#f16b6f"/>
<path transform="matrix(1,0,0,-1,443.1756,39.759996)" stroke-width="1" stroke-linecap="butt" stroke-miterlimit="10" stroke-linejoin="miter" fill="none" stroke="#f16b6f" d="M0-2 2 2H-2Z"/>
</g>
<g clip-path="url(#clip_68)">
<path transform="matrix(1,0,0,-1,480.42063,51.719995)" d="M0-2 2 2H-2Z" fill="#f16b6f"/>
<path transform="matrix(1,0,0,-1,480.42063,51.719995)" stroke-width="1" stroke-linecap="butt" stroke-miterlimit="10" stroke-linejoin="miter" fill="none" stroke="#f16b6f" d="M0-2 2 2H-2Z"/>
</g>
</g>
<g clip-path="url(#clip_69)">
<path transform="matrix(1,0,0,-1,0,253.84)" stroke-width="2" stroke-linecap="butt" stroke-dasharray="7.4,3.2" stroke-linejoin="round" fill="none" stroke="#4a5568" d="M294.1955 166.76 297.92 70.56 301.6445 60.94 305.36903 69 309.0935 88.24 312.81803 81.48 316.5425 85.12 320.26704 103.84 323.99153 96.04 327.71604 104.36 331.44053 137.64 335.16505 123.08 338.88954 139.2 342.61405 161.04 346.33854 171.44 350.06306 152.72 353.78755 160.52 357.51206 162.6 361.23655 174.04 364.96107 177.68 368.68556 180.8 372.41007 187.56 376.13456 185.48 379.85908 177.16 383.58357 189.64 387.30809 182.88 391.03257 188.86 394.75709 202.12 398.48158 204.46 402.2061 195.1 405.93058 202.9 409.6551 204.46 413.37959 205.24 417.1041 210.7H420.82859L424.5531 199 428.2776 212.26 432.00209 209.14 435.7266 204.46 439.45109 203.68 443.1756 210.7 446.9001 204.46 450.6246 211.48 454.3491 213.82 458.0736 211.48 461.7981 206.02 465.5226 209.92 469.2471 204.46 472.97163 213.82H476.6961L480.42063 135.82"/>
<g clip-path="url(#clip_70)">
<path transform="matrix(1,0,0,-1,294.1955,87.08)" d="M-.666667-2H.666667V-.666667H2V.666667H.666667V2H-.666667V.666667H-2V-.666667H-.666667Z" fill="#4a5568"/>
<path transform="matrix(1,0,0,-1,294.1955,87.08)" stroke-width="1" stroke-linecap="butt" stroke-miterlimit="10" stroke-linejoin="miter" fill="none" stroke="#4a5568" d="M-.666667-2H.666667V-.666667H2V.666667H.666667V2H-.666667V.666667H-2V-.666667H-.666667Z"/>
</g>
<g clip-path="url(#clip_71)">
<path transform="matrix(1,0,0,-1,331.44053,116.200008)" d="M-.666667-2H.666667V-.666667H2V.666667H.666667V2H-.666667V.666667H-2V-.666667H-.666667Z" fill="#4a5568"/>
<path transform="matrix(1,0,0,-1,331.44053,116.200008)" stroke-width="1" stroke-linecap="butt" stroke-miterlimit="10" stroke-linejoin="miter" fill="none" stroke="#4a5568" d="M-.666667-2H.666667V-.666667H2V.666667H.666667V2H-.666667V.666667H-2V-.666667H-.666667Z"/>
</g>
<g clip-path="url(#clip_72)">
<path transform="matrix(1,0,0,-1,368.68556,73.04001)" d="M-.666667-2H.666667V-.666667H2V.666667H.666667V2H-.666667V.666667H-2V-.666667H-.666667Z" fill="#4a5568"/>
<path transform="matrix(1,0,0,-1,368.68556,73.04001)" stroke-width="1" stroke-linecap="butt" stroke-miterlimit="10" stroke-linejoin="miter" fill="none" stroke="#4a5568" d="M-.666667-2H.666667V-.666667H2V.666667H.666667V2H-.666667V.666667H-2V-.666667H-.666667Z"/>
</g>
<g clip-path="url(#clip_73)">
<path transform="matrix(1,0,0,-1,405.93058,50.94001)" d="M-.666667-2H.666667V-.666667H2V.666667H.666667V2H-.666667V.666667H-2V-.666667H-.666667Z" fill="#4a5568"/>
<path transform="matrix(1,0,0,-1,405.93058,50.94001)" stroke-width="1" stroke-linecap="butt" stroke-miterlimit="10" stroke-linejoin="miter" fill="none" stroke="#4a5568" d="M-.666667-2H.666667V-.666667H2V.666667H.666667V2H-.666667V.666667H-2V-.666667H-.666667Z"/>
</g>
<g clip-path="url(#clip_74)">
<path transform="matrix(1,0,0,-1,443.1756,43.14001)" d="M-.666667-2H.666667V-.666667H2V.666667H.666667V2H-.666667V.666667H-2V-.666667H-.666667Z" fill="#4a5568"/>
<path transform="matrix(1,0,0,-1,443.1756,43.14001)" stroke-width="1" stroke-linecap="butt" stroke-miterlimit="10" stroke-linejoin="miter" fill="none" stroke="#4a5568" d="M-.666667-2H.666667V-.666667H2V.666667H.666667V2H-.666667V.666667H-2V-.666667H-.666667Z"/>
</g>
<g clip-path="url(#clip_75)">
<path transform="matrix(1,0,0,-1,480.42063,118.020008)" d="M-.666667-2H.666667V-.666667H2V.666667H.666667V2H-.666667V.666667H-2V-.666667H-.666667Z" fill="#4a5568"/>
<path transform="matrix(1,0,0,-1,480.42063,118.020008)" stroke-width="1" stroke-linecap="butt" stroke-miterlimit="10" stroke-linejoin="miter" fill="none" stroke="#4a5568" d="M-.666667-2H.666667V-.666667H2V.666667H.666667V2H-.666667V.666667H-2V-.666667H-.666667Z"/>
</g>
</g>
<path transform="matrix(1,0,0,-1,0,253.84)" stroke-width=".8" stroke-linecap="square" stroke-miterlimit="10" stroke-linejoin="miter" fill="none" stroke="#000000" d="M284.88426 60.16V216.16"/>
<path transform="matrix(1,0,0,-1,0,253.84)" stroke-width=".8" stroke-linecap="square" stroke-miterlimit="10" stroke-linejoin="miter" fill="none" stroke="#000000" d="M489.73188 60.16V216.16"/>
<path transform="matrix(1,0,0,-1,0,253.84)" stroke-width=".8" stroke-linecap="square" stroke-miterlimit="10" stroke-linejoin="miter" fill="none" stroke="#000000" d="M284.88426 60.16H489.73188"/>
<path transform="matrix(1,0,0,-1,0,253.84)" stroke-width=".8" stroke-linecap="square" stroke-miterlimit="10" stroke-linejoin="miter" fill="none" stroke="#000000" d="M284.88426 216.16H489.73188"/>
<text xml:space="preserve" transform="matrix(1 0 -0 1 365.65184 31.679993)" font-size="12" font-family="DejaVuSansMono"><tspan y="0" x="0 7.224001 14.448002 21.672003 28.896004 36.120004">Coffee</tspan></text>
<text xml:space="preserve" transform="matrix(1 0 -0 1 189.60219 17.840622)" font-size="14" font-family="DejaVuSans"><tspan y="0" x="0 10.248001 18.802002 29.582003 34.034006 43.806005 52.374006 66.01 74.9 83.482 89.236 93.128 100.422 108.99">UTD Comparison</tspan></text>
<path transform="matrix(1,0,0,-1,0,253.84)" stroke-width="2" stroke-linecap="square" stroke-linejoin="round" fill="none" stroke="#9b8afb" d="M19.305314 16.778126H29.305314 39.305315"/>
<path transform="matrix(1,0,0,-1,0,253.84)" d="M29.305314 14.778125C29.835719 14.778125 30.344473 14.988858 30.719527 15.363911 31.09458 15.738965 31.305314 16.247719 31.305314 16.778126 31.305314 17.30853 31.09458 17.817286 30.719527 18.192339 30.344473 18.567393 29.835719 18.778126 29.305314 18.778126 28.774907 18.778126 28.266154 18.567393 27.8911 18.192339 27.516045 17.817286 27.305314 17.30853 27.305314 16.778126 27.305314 16.247719 27.516045 15.738965 27.8911 15.363911 28.266154 14.988858 28.774907 14.778125 29.305314 14.778125Z" fill="#9b8afb"/>
<path transform="matrix(1,0,0,-1,0,253.84)" stroke-width="1" stroke-linecap="butt" stroke-linejoin="round" fill="none" stroke="#9b8afb" d="M29.305314 14.778125C29.835719 14.778125 30.344473 14.988858 30.719527 15.363911 31.09458 15.738965 31.305314 16.247719 31.305314 16.778126 31.305314 17.30853 31.09458 17.817286 30.719527 18.192339 30.344473 18.567393 29.835719 18.778126 29.305314 18.778126 28.774907 18.778126 28.266154 18.567393 27.8911 18.192339 27.516045 17.817286 27.305314 17.30853 27.305314 16.778126 27.305314 16.247719 27.516045 15.738965 27.8911 15.363911 28.266154 14.988858 28.774907 14.778125 29.305314 14.778125Z"/>
<text xml:space="preserve" transform="matrix(1 0 -0 1 47.305315 240.56188)" font-size="10" font-family="DejaVuSans"><tspan y="0" x="0 7.3200008 13.43 21.130002 27.490002 30.670002 37.030004">UTD0.25</tspan></text>
<path transform="matrix(1,0,0,-1,0,253.84)" stroke-width="2" stroke-linecap="butt" stroke-dasharray="7.4,3.2" stroke-linejoin="round" fill="none" stroke="#7db8ff" d="M110.71156 16.778126H120.71156 130.71157"/>
<path transform="matrix(1,0,0,-1,0,253.84)" d="M118.71156 14.778125H122.71156V18.778126H118.71156Z" fill="#7db8ff"/>
<path transform="matrix(1,0,0,-1,0,253.84)" stroke-width="1" stroke-linecap="butt" stroke-miterlimit="10" stroke-linejoin="miter" fill="none" stroke="#7db8ff" d="M118.71156 14.778125H122.71156V18.778126H118.71156Z"/>
<text xml:space="preserve" transform="matrix(1 0 -0 1 138.71157 240.56188)" font-size="10" font-family="DejaVuSans"><tspan y="0" x="0 7.3200008 13.43 21.130002 27.490002 30.670002">UTD0.5</tspan></text>
<path transform="matrix(1,0,0,-1,0,253.84)" stroke-width="2" stroke-linecap="butt" stroke-dasharray="12.8,3.2,2,3.2" stroke-linejoin="round" fill="none" stroke="#63c29d" d="M195.75844 16.778126H205.75844 215.75844"/>
<path transform="matrix(1,0,0,-1,0,253.84)" d="M205.75844 18.778126 203.75844 14.778125H207.75844Z" fill="#63c29d"/>
<path transform="matrix(1,0,0,-1,0,253.84)" stroke-width="1" stroke-linecap="butt" stroke-miterlimit="10" stroke-linejoin="miter" fill="none" stroke="#63c29d" d="M205.75844 18.778126 203.75844 14.778125H207.75844Z"/>
<text xml:space="preserve" transform="matrix(1 0 -0 1 223.75844 240.56188)" font-size="10" font-family="DejaVuSans"><tspan y="0" x="0 7.3200008 13.43 21.130002">UTD1</tspan></text>
<path transform="matrix(1,0,0,-1,0,253.84)" stroke-width="2" stroke-linecap="butt" stroke-dasharray="2,3.3" stroke-linejoin="round" fill="none" stroke="#f4a259" d="M271.25843 16.778126H281.25843 291.25843"/>
<path transform="matrix(1,0,0,-1,0,253.84)" d="M281.25843 13.949698 284.08686 16.778126 281.25843 19.606553 278.43003 16.778126Z" fill="#f4a259"/>
<path transform="matrix(1,0,0,-1,0,253.84)" stroke-width="1" stroke-linecap="butt" stroke-miterlimit="10" stroke-linejoin="miter" fill="none" stroke="#f4a259" d="M281.25843 13.949698 284.08686 16.778126 281.25843 19.606553 278.43003 16.778126Z"/>
<text xml:space="preserve" transform="matrix(1 0 -0 1 299.25843 240.56188)" font-size="10" font-family="DejaVuSans"><tspan y="0" x="0 7.3200008 13.43 21.130002">UTD2</tspan></text>
<path transform="matrix(1,0,0,-1,0,253.84)" stroke-width="2" stroke-linecap="square" stroke-linejoin="round" fill="none" stroke="#f16b6f" d="M346.75843 16.778126H356.75843 366.75843"/>
<path transform="matrix(1,0,0,-1,0,253.84)" d="M356.75843 14.778125 358.75843 18.778126H354.75843Z" fill="#f16b6f"/>
<path transform="matrix(1,0,0,-1,0,253.84)" stroke-width="1" stroke-linecap="butt" stroke-miterlimit="10" stroke-linejoin="miter" fill="none" stroke="#f16b6f" d="M356.75843 14.778125 358.75843 18.778126H354.75843Z"/>
<text xml:space="preserve" transform="matrix(1 0 -0 1 374.75843 240.56188)" font-size="10" font-family="DejaVuSans"><tspan y="0" x="0 7.3200008 13.43 21.130002">UTD4</tspan></text>
<path transform="matrix(1,0,0,-1,0,253.84)" stroke-width="2" stroke-linecap="butt" stroke-dasharray="7.4,3.2" stroke-linejoin="round" fill="none" stroke="#4a5568" d="M422.25843 16.778126H432.25843 442.25843"/>
<path transform="matrix(1,0,0,-1,0,253.84)" d="M431.59178 14.778125H432.9251V16.111458H434.25843V17.444792H432.9251V18.778126H431.59178V17.444792H430.25843V16.111458H431.59178Z" fill="#4a5568"/>
<path transform="matrix(1,0,0,-1,0,253.84)" stroke-width="1" stroke-linecap="butt" stroke-miterlimit="10" stroke-linejoin="miter" fill="none" stroke="#4a5568" d="M431.59178 14.778125H432.9251V16.111458H434.25843V17.444792H432.9251V18.778126H431.59178V17.444792H430.25843V16.111458H431.59178Z"/>
<text xml:space="preserve" transform="matrix(1 0 -0 1 450.25843 240.56188)" font-size="10" font-family="DejaVuSans"><tspan y="0" x="0 7.3200008 13.43 21.130002">UTD8</tspan></text>
</svg>
