<svg xmlns="http://www.w3.org/2000/svg" xmlns:xlink="http://www.w3.org/1999/xlink" xmlns:inkscape="http://www.inkscape.org/namespaces/inkscape" version="1.1" width="497.15968" height="253.84" viewBox="0 0 497.15968 253.84">
<defs>
<clipPath id="clip_0">
<path transform="matrix(1,0,0,-1,0,253.84)" d="M44.746877 60.16H249.5945V214.72H44.746877Z"/>
</clipPath>
<clipPath id="clip_1">
<path transform="matrix(1,0,0,-1,0,253.84)" d="M44.746877 60.16H249.5945V214.72H44.746877Z"/>
</clipPath>
<clipPath id="clip_2">
<path transform="matrix(1,0,0,-1,0,253.84)" d="M44.746877 60.16H249.5945V214.72H44.746877Z"/>
</clipPath>
<clipPath id="clip_3">
<path transform="matrix(1,0,0,-1,0,253.84)" d="M44.746877 60.16H249.5945V214.72H44.746877Z"/>
</clipPath>
<clipPath id="clip_4">
<path transform="matrix(1,0,0,-1,0,253.84)" d="M44.746877 60.16H249.5945V214.72H44.746877Z"/>
</clipPath>
<clipPath id="clip_5">
<path transform="matrix(1,0,0,-1,0,253.84)" d="M44.746877 60.16H249.5945V214.72H44.746877Z"/>
</clipPath>
<clipPath id="clip_6">
<path transform="matrix(1,0,0,-1,0,253.84)" d="M44.746877 60.16H249.5945V214.72H44.746877Z"/>
</clipPath>
<clipPath id="clip_7">
<path transform="matrix(1,0,0,-1,0,253.84)" d="M44.746877 60.16H249.5945V214.72H44.746877Z"/>
</clipPath>
<clipPath id="clip_8">
<path transform="matrix(1,0,0,-1,0,253.84)" d="M44.746877 60.16H249.5945V214.72H44.746877Z"/>
</clipPath>
<clipPath id="clip_9">
<path transform="matrix(1,0,0,-1,0,253.84)" d="M44.746877 60.16H249.5945V214.72H44.746877Z"/>
</clipPath>
<clipPath id="clip_10">
<path transform="matrix(1,0,0,-1,0,253.84)" d="M44.746877 60.16H249.5945V214.72H44.746877Z"/>
</clipPath>
<clipPath id="clip_11">
<path transform="matrix(1,0,0,-1,0,253.84)" d="M44.746877 60.16H249.5945V214.72H44.746877Z"/>
</clipPath>
<clipPath id="clip_12">
<path transform="matrix(1,0,0,-1,0,253.84)" d="M44.746877 60.16H249.5945V214.72H44.746877Z"/>
</clipPath>
<clipPath id="clip_13">
<path transform="matrix(1,0,0,-1,0,253.84)" d="M44.746877 60.16H249.5945V214.72H44.746877Z"/>
</clipPath>
<clipPath id="clip_14">
<path transform="matrix(1,0,0,-1,0,253.84)" d="M44.746877 60.16H249.5945V214.72H44.746877Z"/>
</clipPath>
<clipPath id="clip_15">
<path transform="matrix(1,0,0,-1,54.058134,79.8208)" d="M-7-7H7V7H-7Z"/>
</clipPath>
<clipPath id="clip_16">
<path transform="matrix(1,0,0,-1,116.13317,158.1312)" d="M-7-7H7V7H-7Z"/>
</clipPath>
<clipPath id="clip_17">
<path transform="matrix(1,0,0,-1,178.2082,156.07039)" d="M-7-7H7V7H-7Z"/>
</clipPath>
<clipPath id="clip_18">
<path transform="matrix(1,0,0,-1,240.28325,97.337589)" d="M-7-7H7V7H-7Z"/>
</clipPath>
<clipPath id="clip_19">
<path transform="matrix(1,0,0,-1,0,253.84)" d="M44.746877 60.16H249.5945V214.72H44.746877Z"/>
</clipPath>
<clipPath id="clip_20">
<path transform="matrix(1,0,0,-1,54.058134,80.8512)" d="M-7-7H7V7H-7Z"/>
</clipPath>
<clipPath id="clip_21">
<path transform="matrix(1,0,0,-1,116.13317,57.6672)" d="M-7-7H7V7H-7Z"/>
</clipPath>
<clipPath id="clip_22">
<path transform="matrix(1,0,0,-1,178.2082,43.2416)" d="M-7-7H7V7H-7Z"/>
</clipPath>
<clipPath id="clip_23">
<path transform="matrix(1,0,0,-1,240.28325,41.696)" d="M-7-7H7V7H-7Z"/>
</clipPath>
<clipPath id="clip_24">
<path transform="matrix(1,0,0,-1,0,253.84)" d="M44.746877 60.16H249.5945V214.72H44.746877Z"/>
</clipPath>
<clipPath id="clip_25">
<path transform="matrix(1,0,0,-1,54.058134,83.4272)" d="M-7-7H7V7H-7Z"/>
</clipPath>
<clipPath id="clip_26">
<path transform="matrix(1,0,0,-1,116.13317,56.1216)" d="M-7-7H7V7H-7Z"/>
</clipPath>
<clipPath id="clip_27">
<path transform="matrix(1,0,0,-1,178.2082,48.908803)" d="M-7-7H7V7H-7Z"/>
</clipPath>
<clipPath id="clip_28">
<path transform="matrix(1,0,0,-1,240.28325,43.7568)" d="M-7-7H7V7H-7Z"/>
</clipPath>
<clipPath id="clip_29">
<path transform="matrix(1,0,0,-1,0,253.84)" d="M44.746877 60.16H249.5945V214.72H44.746877Z"/>
</clipPath>
<clipPath id="clip_30">
<path transform="matrix(1,0,0,-1,54.058134,76.7296)" d="M-7-7H7V7H-7Z"/>
</clipPath>
<clipPath id="clip_31">
<path transform="matrix(1,0,0,-1,116.13317,104.5504)" d="M-7-7H7V7H-7Z"/>
</clipPath>
<clipPath id="clip_32">
<path transform="matrix(1,0,0,-1,178.2082,50.9696)" d="M-7-7H7V7H-7Z"/>
</clipPath>
<clipPath id="clip_33">
<path transform="matrix(1,0,0,-1,240.28325,53.0304)" d="M-7-7H7V7H-7Z"/>
</clipPath>
<clipPath id="clip_34">
<path transform="matrix(1,0,0,-1,0,253.84)" d="M284.88426 60.16H489.73188V214.72H284.88426Z"/>
</clipPath>
<clipPath id="clip_35">
<path transform="matrix(1,0,0,-1,0,253.84)" d="M284.88426 60.16H489.73188V214.72H284.88426Z"/>
</clipPath>
<clipPath id="clip_36">
<path transform="matrix(1,0,0,-1,0,253.84)" d="M284.88426 60.16H489.73188V214.72H284.88426Z"/>
</clipPath>
<clipPath id="clip_37">
<path transform="matrix(1,0,0,-1,0,253.84)" d="M284.88426 60.16H489.73188V214.72H284.88426Z"/>
</clipPath>
<clipPath id="clip_38">
<path transform="matrix(1,0,0,-1,0,253.84)" d="M284.88426 60.16H489.73188V214.72H284.88426Z"/>
</clipPath>
<clipPath id="clip_39">
<path transform="matrix(1,0,0,-1,0,253.84)" d="M284.88426 60.16H489.73188V214.72H284.88426Z"/>
</clipPath>
<clipPath id="clip_40">
<path transform="matrix(1,0,0,-1,0,253.84)" d="M284.88426 60.16H489.73188V214.72H284.88426Z"/>
</clipPath>
<clipPath id="clip_41">
<path transform="matrix(1,0,0,-1,0,253.84)" d="M284.88426 60.16H489.73188V214.72H284.88426Z"/>
</clipPath>
<clipPath id="clip_42">
<path transform="matrix(1,0,0,-1,0,253.84)" d="M284.88426 60.16H489.73188V214.72H284.88426Z"/>
</clipPath>
<clipPath id="clip_43">
<path transform="matrix(1,0,0,-1,0,253.84)" d="M284.88426 60.16H489.73188V214.72H284.88426Z"/>
</clipPath>
<clipPath id="clip_44">
<path transform="matrix(1,0,0,-1,0,253.84)" d="M284.88426 60.16H489.73188V214.72H284.88426Z"/>
</clipPath>
<clipPath id="clip_45">
<path transform="matrix(1,0,0,-1,0,253.84)" d="M284.88426 60.16H489.73188V214.72H284.88426Z"/>
</clipPath>
<clipPath id="clip_46">
<path transform="matrix(1,0,0,-1,0,253.84)" d="M284.88426 60.16H489.73188V214.72H284.88426Z"/>
</clipPath>
<clipPath id="clip_47">
<path transform="matrix(1,0,0,-1,0,253.84)" d="M284.88426 60.16H489.73188V214.72H284.88426Z"/>
</clipPath>
<clipPath id="clip_48">
<path transform="matrix(1,0,0,-1,0,253.84)" d="M284.88426 60.16H489.73188V214.72H284.88426Z"/>
</clipPath>
<clipPath id="clip_49">
<path transform="matrix(1,0,0,-1,0,253.84)" d="M284.88426 60.16H489.73188V214.72H284.88426Z"/>
</clipPath>
<clipPath id="clip_50">
<path transform="matrix(1,0,0,-1,0,253.84)" d="M284.88426 60.16H489.73188V214.72H284.88426Z"/>
</clipPath>
<clipPath id="clip_51">
<path transform="matrix(1,0,0,-1,294.1955,80.8512)" d="M-7-7H7V7H-7Z"/>
</clipPath>
<clipPath id="clip_52">
<path transform="matrix(1,0,0,-1,331.44053,190.5888)" d="M-7-7H7V7H-7Z"/>
</clipPath>
<clipPath id="clip_53">
<path transform="matrix(1,0,0,-1,368.68556,181.3152)" d="M-7-7H7V7H-7Z"/>
</clipPath>
<clipPath id="clip_54">
<path transform="matrix(1,0,0,-1,405.93058,188.0128)" d="M-7-7H7V7H-7Z"/>
</clipPath>
<clipPath id="clip_55">
<path transform="matrix(1,0,0,-1,443.1756,192.9072)" d="M-7-7H7V7H-7Z"/>
</clipPath>
<clipPath id="clip_56">
<path transform="matrix(1,0,0,-1,480.42063,179.2544)" d="M-7-7H7V7H-7Z"/>
</clipPath>
<clipPath id="clip_57">
<path transform="matrix(1,0,0,-1,0,253.84)" d="M284.88426 60.16H489.73188V214.72H284.88426Z"/>
</clipPath>
<clipPath id="clip_58">
<path transform="matrix(1,0,0,-1,294.1955,75.6992)" d="M-7-7H7V7H-7Z"/>
</clipPath>
<clipPath id="clip_59">
<path transform="matrix(1,0,0,-1,331.44053,163.2832)" d="M-7-7H7V7H-7Z"/>
</clipPath>
<clipPath id="clip_60">
<path transform="matrix(1,0,0,-1,368.68556,106.611209)" d="M-7-7H7V7H-7Z"/>
</clipPath>
<clipPath id="clip_61">
<path transform="matrix(1,0,0,-1,405.93058,73.638408)" d="M-7-7H7V7H-7Z"/>
</clipPath>
<clipPath id="clip_62">
<path transform="matrix(1,0,0,-1,443.1756,53.030405)" d="M-7-7H7V7H-7Z"/>
</clipPath>
<clipPath id="clip_63">
<path transform="matrix(1,0,0,-1,480.42063,41.696004)" d="M-7-7H7V7H-7Z"/>
</clipPath>
<clipPath id="clip_64">
<path transform="matrix(1,0,0,-1,0,253.84)" d="M284.88426 60.16H489.73188V214.72H284.88426Z"/>
</clipPath>
<clipPath id="clip_65">
<path transform="matrix(1,0,0,-1,294.1955,78.27519)" d="M-7-7H7V7H-7Z"/>
</clipPath>
<clipPath id="clip_66">
<path transform="matrix(1,0,0,-1,331.44053,95.79199)" d="M-7-7H7V7H-7Z"/>
</clipPath>
<clipPath id="clip_67">
<path transform="matrix(1,0,0,-1,368.68556,64.87999)" d="M-7-7H7V7H-7Z"/>
</clipPath>
<clipPath id="clip_68">
<path transform="matrix(1,0,0,-1,405.93058,46.847993)" d="M-7-7H7V7H-7Z"/>
</clipPath>
<clipPath id="clip_69">
<path transform="matrix(1,0,0,-1,443.1756,41.180795)" d="M-7-7H7V7H-7Z"/>
</clipPath>
<clipPath id="clip_70">
<path transform="matrix(1,0,0,-1,480.42063,53.030397)" d="M-7-7H7V7H-7Z"/>
</clipPath>
<clipPath id="clip_71">
<path transform="matrix(1,0,0,-1,0,253.84)" d="M284.88426 60.16H489.73188V214.72H284.88426Z"/>
</clipPath>
<clipPath id="clip_72">
<path transform="matrix(1,0,0,-1,294.1955,78.27519)" d="M-7-7H7V7H-7Z"/>
</clipPath>
<clipPath id="clip_73">
<path transform="matrix(1,0,0,-1,331.44053,157.616)" d="M-7-7H7V7H-7Z"/>
</clipPath>
<clipPath id="clip_74">
<path transform="matrix(1,0,0,-1,368.68556,75.184)" d="M-7-7H7V7H-7Z"/>
</clipPath>
<clipPath id="clip_75">
<path transform="matrix(1,0,0,-1,405.93058,43.2416)" d="M-7-7H7V7H-7Z"/>
</clipPath>
<clipPath id="clip_76">
<path transform="matrix(1,0,0,-1,443.1756,45.3024)" d="M-7-7H7V7H-7Z"/>
</clipPath>
<clipPath id="clip_77">
<path transform="matrix(1,0,0,-1,480.42063,42.211198)" d="M-7-7H7V7H-7Z"/>
</clipPath>
</defs>
<path transform="matrix(1,0,0,-1,0,253.84)" d="M0 0H497.15968V253.84H0Z" fill="#ffffff"/>
<path transform="matrix(1,0,0,-1,0,253.84)" d="M44.746877 60.16H249.5945V214.72H44.746877Z" fill="#ffffff"/>
<g clip-path="url(#clip_0)">
<g>
<path transform="matrix(1,0,0,-1,0,253.84)" d="M54.058134 180.26567V167.77274L60.265634 59.405698 66.47314 60.16 72.68064 56.011323 78.888149 57.897085 85.09565 59.78285 91.303157 58.65139 97.51066 63.527296 103.71816 59.161928 109.92567 64.34625 116.13317 80.964717 122.340679 62.62198 128.54817 61.247766 134.75568 60.204885 140.96318 78.939128 147.17069 63.653959 153.37819 62.030447 159.5857 80.7446 165.7932 83.73298 172.0007 70.61084 178.2082 82.52107 184.41571 61.032346 190.62322 70.87398 196.83072 77.420528 203.03823 136.00279 209.24573 97.36537 215.45323 125.79767 221.66074 127.61336 227.86824 117.3472 234.07575 81.66238 240.28325 127.49065V185.51416L234.07575 134.48482 227.86824 123.5296 221.66074 162.72264 215.45323 161.44713 209.24573 118.78183 203.03823 167.72841 196.83072 127.39227 190.62322 139.09082 184.41571 114.92926 178.2082 113.01813 172.0007 115.65476 165.7932 90.16782 159.5857 114.7946 153.37819 98.47516 147.17069 113.33804 140.96318 86.718479 134.75568 83.814319 128.54817 88.953838 122.340679 90.67082 116.13317 110.45288 109.92567 80.70335 103.71816 67.34047 97.51066 67.0967 91.303157 65.79021 85.09565 61.567556 78.888149 68.605319 72.68064 75.64308 66.47314 60.16 60.265634 62.975107 54.058134 180.26567Z" fill="#9b8afb" fill-opacity=".2"/>
<path transform="matrix(1,0,0,-1,0,253.84)" stroke-width="1" stroke-linecap="butt" stroke-linejoin="round" fill="none" stroke="#9b8afb" stroke-opacity=".2" d="M54.058134 180.26567V167.77274L60.265634 59.405698 66.47314 60.16 72.68064 56.011323 78.888149 57.897085 85.09565 59.78285 91.303157 58.65139 97.51066 63.527296 103.71816 59.161928 109.92567 64.34625 116.13317 80.964717 122.340679 62.62198 128.54817 61.247766 134.75568 60.204885 140.96318 78.939128 147.17069 63.653959 153.37819 62.030447 159.5857 80.7446 165.7932 83.73298 172.0007 70.61084 178.2082 82.52107 184.41571 61.032346 190.62322 70.87398 196.83072 77.420528 203.03823 136.00279 209.24573 97.36537 215.45323 125.79767 221.66074 127.61336 227.86824 117.3472 234.07575 81.66238 240.28325 127.49065V185.51416L234.07575 134.48482 227.86824 123.5296 221.66074 162.72264 215.45323 161.44713 209.24573 118.78183 203.03823 167.72841 196.83072 127.39227 190.62322 139.09082 184.41571 114.92926 178.2082 113.01813 172.0007 115.65476 165.7932 90.16782 159.5857 114.7946 153.37819 98.47516 147.17069 113.33804 140.96318 86.718479 134.75568 83.814319 128.54817 88.953838 122.340679 90.67082 116.13317 110.45288 109.92567 80.70335 103.71816 67.34047 97.51066 67.0967 91.303157 65.79021 85.09565 61.567556 78.888149 68.605319 72.68064 75.64308 66.47314 60.16 60.265634 62.975107 54.058134 180.26567Z"/>
</g>
</g>
<g clip-path="url(#clip_1)">
<g>
<path transform="matrix(1,0,0,-1,0,253.84)" d="M54.058134 177.1743V168.8033L60.265634 55.27238 66.47314 83.30631 72.68064 81.33783 78.888149 109.86019 85.09565 102.111988 91.303157 141.75293 97.51066 146.08667 103.71816 168.39499 109.92567 167.67922 116.13317 189.14641 122.340679 175.8853 128.54817 192.21257 134.75568 194.52663 140.96318 208.82123 147.17069 193.43585 153.37819 202.05095 159.5857 185.61394 165.7932 172.69066 172.0007 193.31212 178.2082 209.70604 184.41571 200.36838 190.62322 208.95174 196.83072 203.05399 203.03823 203.13315 209.24573 207.38098 215.45323 210.29827 221.66074 214.72 227.86824 207.68224 234.07575 201.65566 240.28325 210.3593V213.92871L234.07575 213.35875 227.86824 216.60576 221.66074 214.72 215.45323 215.02014 209.24573 213.81583 203.03823 216.00286 196.83072 212.99082 190.62322 214.30587 184.41571 214.64603 178.2082 211.49076 172.0007 212.94388 165.7932 210.38134 159.5857 209.82286 153.37819 213.47864 147.17069 212.04735 140.96318 211.34519 134.75568 210.95658 128.54817 217.13463 122.340679 217.23311 116.13317 203.19919 109.92567 206.89199 103.71816 205.40341 97.51066 193.70854 91.303157 192.63268 85.09565 182.8144 78.888149 141.83582 72.68064 121.67177 66.47314 105.792888 60.265634 94.41402 54.058134 177.1743Z" fill="#7db8ff" fill-opacity=".2"/>
<path transform="matrix(1,0,0,-1,0,253.84)" stroke-width="1" stroke-linecap="butt" stroke-linejoin="round" fill="none" stroke="#7db8ff" stroke-opacity=".2" d="M54.058134 177.1743V168.8033L60.265634 55.27238 66.47314 83.30631 72.68064 81.33783 78.888149 109.86019 85.09565 102.111988 91.303157 141.75293 97.51066 146.08667 103.71816 168.39499 109.92567 167.67922 116.13317 189.14641 122.340679 175.8853 128.54817 192.21257 134.75568 194.52663 140.96318 208.82123 147.17069 193.43585 153.37819 202.05095 159.5857 185.61394 165.7932 172.69066 172.0007 193.31212 178.2082 209.70604 184.41571 200.36838 190.62322 208.95174 196.83072 203.05399 203.03823 203.13315 209.24573 207.38098 215.45323 210.29827 221.66074 214.72 227.86824 207.68224 234.07575 201.65566 240.28325 210.3593V213.92871L234.07575 213.35875 227.86824 216.60576 221.66074 214.72 215.45323 215.02014 209.24573 213.81583 203.03823 216.00286 196.83072 212.99082 190.62322 214.30587 184.41571 214.64603 178.2082 211.49076 172.0007 212.94388 165.7932 210.38134 159.5857 209.82286 153.37819 213.47864 147.17069 212.04735 140.96318 211.34519 134.75568 210.95658 128.54817 217.13463 122.340679 217.23311 116.13317 203.19919 109.92567 206.89199 103.71816 205.40341 97.51066 193.70854 91.303157 192.63268 85.09565 182.8144 78.888149 141.83582 72.68064 121.67177 66.47314 105.792888 60.265634 94.41402 54.058134 177.1743Z"/>
</g>
</g>
<g clip-path="url(#clip_2)">
<g>
<path transform="matrix(1,0,0,-1,0,253.84)" d="M54.058134 180.70392V160.12169L60.265634 62.2677 66.47314 86.61879 72.68064 87.81388 78.888149 122.9706 85.09565 134.3488 91.303157 164.42711 97.51066 159.8083 103.71816 161.90785 109.92567 163.1598 116.13317 182.81317 122.340679 185.09835 128.54817 203.52365 134.75568 200.9932 140.96318 205.4464 147.17069 205.99393H153.37819L159.5857 194.47919 165.7932 199.50324 172.0007 198.85254 178.2082 196.4187 184.41571 179.8157 190.62322 208.5376 196.83072 198.9947 203.03823 196.14255 209.24573 200.091 215.45323 194.24854 221.66074 199.23693 227.86824 201.80049 234.07575 200.35906 240.28325 206.992V213.1744L234.07575 216.71614 227.86824 215.27472 221.66074 218.86869 215.45323 213.55307 209.24573 215.9538 203.03823 213.71985 196.83072 216.0197 190.62322 214.72 184.41571 212.52989 178.2082 213.4437 172.0007 214.10106 165.7932 210.35916 159.5857 214.35282 153.37819 214.17247H147.17069L140.96318 214.72 134.75568 210.93001 128.54817 205.30835 122.340679 213.42966 116.13317 212.62363 109.92567 196.213 103.71816 209.82976 97.51066 201.62529 91.303157 193.91529 85.09565 186.8992 78.888149 171.487 72.68064 167.48853 66.47314 96.55561 60.265634 96.1771 54.058134 180.70392Z" fill="#63c29d" fill-opacity=".2"/>
<path transform="matrix(1,0,0,-1,0,253.84)" stroke-width="1" stroke-linecap="butt" stroke-linejoin="round" fill="none" stroke="#63c29d" stroke-opacity=".2" d="M54.058134 180.70392V160.12169L60.265634 62.2677 66.47314 86.61879 72.68064 87.81388 78.888149 122.9706 85.09565 134.3488 91.303157 164.42711 97.51066 159.8083 103.71816 161.90785 109.92567 163.1598 116.13317 182.81317 122.340679 185.09835 128.54817 203.52365 134.75568 200.9932 140.96318 205.4464 147.17069 205.99393H153.37819L159.5857 194.47919 165.7932 199.50324 172.0007 198.85254 178.2082 196.4187 184.41571 179.8157 190.62322 208.5376 196.83072 198.9947 203.03823 196.14255 209.24573 200.091 215.45323 194.24854 221.66074 199.23693 227.86824 201.80049 234.07575 200.35906 240.28325 206.992V213.1744L234.07575 216.71614 227.86824 215.27472 221.66074 218.86869 215.45323 213.55307 209.24573 215.9538 203.03823 213.71985 196.83072 216.0197 190.62322 214.72 184.41571 212.52989 178.2082 213.4437 172.0007 214.10106 165.7932 210.35916 159.5857 214.35282 153.37819 214.17247H147.17069L140.96318 214.72 134.75568 210.93001 128.54817 205.30835 122.340679 213.42966 116.13317 212.62363 109.92567 196.213 103.71816 209.82976 97.51066 201.62529 91.303157 193.91529 85.09565 186.8992 78.888149 171.487 72.68064 167.48853 66.47314 96.55561 60.265634 96.1771 54.058134 180.70392Z"/>
</g>
</g>
<g clip-path="url(#clip_3)">
<g>
<path transform="matrix(1,0,0,-1,0,253.84)" d="M54.058134 184.73467V169.48613L60.265634 60.710775 66.47314 70.337779 72.68064 65.04011 78.888149 68.947498 85.09565 74.98836 91.303157 110.198947 97.51066 133.23937 103.71816 122.10215 109.92567 103.61596 116.13317 139.47373 122.340679 160.326 128.54817 165.54341 134.75568 172.7169 140.96318 191.92498 147.17069 185.58553 153.37819 186.60121 159.5857 198.50969 165.7932 194.6272 172.0007 195.56618 178.2082 197.01886 184.41571 192.80971 190.62322 203.60066 196.83072 188.17729 203.03823 202.05506 209.24573 204.28978 215.45323 198.65738 221.66074 206.69187 227.86824 193.31352 234.07575 198.16953 240.28325 199.264V202.3552L234.07575 210.66248 227.86824 201.09288 221.66074 211.41374 215.45323 213.26583 209.24573 210.72463 203.03823 206.77695 196.83072 208.2899 190.62322 208.32254 184.41571 206.7487 178.2082 208.72196 172.0007 210.17462 165.7932 206.992 159.5857 202.0791 153.37819 204.71399 147.17069 193.36487 140.96318 198.35982 134.75568 186.6559 128.54817 200.0118 122.340679 178.4388 116.13317 159.10549 109.92567 167.14244 103.71816 157.92986 97.51066 160.18782 91.303157 138.92105 85.09565 124.67245 78.888149 132.77411 72.68064 78.979099 66.47314 76.77262 60.265634 90.521228 54.058134 184.73467Z" fill="#4a5568" fill-opacity=".2"/>
<path transform="matrix(1,0,0,-1,0,253.84)" stroke-width="1" stroke-linecap="butt" stroke-linejoin="round" fill="none" stroke="#4a5568" stroke-opacity=".2" d="M54.058134 184.73467V169.48613L60.265634 60.710775 66.47314 70.337779 72.68064 65.04011 78.888149 68.947498 85.09565 74.98836 91.303157 110.198947 97.51066 133.23937 103.71816 122.10215 109.92567 103.61596 116.13317 139.47373 122.340679 160.326 128.54817 165.54341 134.75568 172.7169 140.96318 191.92498 147.17069 185.58553 153.37819 186.60121 159.5857 198.50969 165.7932 194.6272 172.0007 195.56618 178.2082 197.01886 184.41571 192.80971 190.62322 203.60066 196.83072 188.17729 203.03823 202.05506 209.24573 204.28978 215.45323 198.65738 221.66074 206.69187 227.86824 193.31352 234.07575 198.16953 240.28325 199.264V202.3552L234.07575 210.66248 227.86824 201.09288 221.66074 211.41374 215.45323 213.26583 209.24573 210.72463 203.03823 206.77695 196.83072 208.2899 190.62322 208.32254 184.41571 206.7487 178.2082 208.72196 172.0007 210.17462 165.7932 206.992 159.5857 202.0791 153.37819 204.71399 147.17069 193.36487 140.96318 198.35982 134.75568 186.6559 128.54817 200.0118 122.340679 178.4388 116.13317 159.10549 109.92567 167.14244 103.71816 157.92986 97.51066 160.18782 91.303157 138.92105 85.09565 124.67245 78.888149 132.77411 72.68064 78.979099 66.47314 76.77262 60.265634 90.521228 54.058134 184.73467Z"/>
</g>
</g>
<g clip-path="url(#clip_4)">
<path transform="matrix(1,0,0,-1,0,253.84)" stroke-width=".8" stroke-linecap="square" stroke-linejoin="round" fill="none" stroke="#b0b0b0" stroke-opacity=".3" d="M54.058134 60.16V214.72"/>
</g>
<path transform="matrix(1,0,0,-1,0,253.84)" d="M54.058134 60.16V56.66"/>
<path transform="matrix(1,0,0,-1,0,253.84)" stroke-width=".8" stroke-linecap="butt" stroke-linejoin="round" fill="none" stroke="#000000" d="M54.058134 60.16V56.66"/>
<text xml:space="preserve" transform="matrix(1 0 -0 1 50.878446 208.27375)" font-size="10" font-family="DejaVuSans"><tspan y="0" x="0">0</tspan></text>
<g clip-path="url(#clip_5)">
<path transform="matrix(1,0,0,-1,0,253.84)" stroke-width=".8" stroke-linecap="square" stroke-linejoin="round" fill="none" stroke="#b0b0b0" stroke-opacity=".3" d="M116.13317 60.16V214.72"/>
</g>
<path transform="matrix(1,0,0,-1,0,253.84)" d="M116.13317 60.16V56.66"/>
<path transform="matrix(1,0,0,-1,0,253.84)" stroke-width=".8" stroke-linecap="butt" stroke-linejoin="round" fill="none" stroke="#000000" d="M116.13317 60.16V56.66"/>
<text xml:space="preserve" transform="matrix(1 0 -0 1 106.59411 208.27375)" font-size="10" font-family="DejaVuSans"><tspan y="0" x="0 6.3600008 12.720001">100</tspan></text>
<g clip-path="url(#clip_6)">
<path transform="matrix(1,0,0,-1,0,253.84)" stroke-width=".8" stroke-linecap="square" stroke-linejoin="round" fill="none" stroke="#b0b0b0" stroke-opacity=".3" d="M178.2082 60.16V214.72"/>
</g>
<path transform="matrix(1,0,0,-1,0,253.84)" d="M178.2082 60.16V56.66"/>
<path transform="matrix(1,0,0,-1,0,253.84)" stroke-width=".8" stroke-linecap="butt" stroke-linejoin="round" fill="none" stroke="#000000" d="M178.2082 60.16V56.66"/>
<text xml:space="preserve" transform="matrix(1 0 -0 1 168.66915 208.27375)" font-size="10" font-family="DejaVuSans"><tspan y="0" x="0 6.3600008 12.720001">200</tspan></text>
<g clip-path="url(#clip_7)">
<path transform="matrix(1,0,0,-1,0,253.84)" stroke-width=".8" stroke-linecap="square" stroke-linejoin="round" fill="none" stroke="#b0b0b0" stroke-opacity=".3" d="M240.28325 60.16V214.72"/>
</g>
<path transform="matrix(1,0,0,-1,0,253.84)" d="M240.28325 60.16V56.66"/>
<path transform="matrix(1,0,0,-1,0,253.84)" stroke-width=".8" stroke-linecap="butt" stroke-linejoin="round" fill="none" stroke="#000000" d="M240.28325 60.16V56.66"/>
<text xml:space="preserve" transform="matrix(1 0 -0 1 230.74419 208.27375)" font-size="10" font-family="DejaVuSans"><tspan y="0" x="0 6.3600008 12.720001">300</tspan></text>
<text xml:space="preserve" transform="matrix(1 0 -0 1 70.24881 222.71125)" font-size="11" font-family="DejaVuSans"><tspan y="0" x="0 6.952 13.926001 20.438 23.496 27.782626 34.514627 41.488626 52.202627 58.967626 65.94163 70.25363 73.75163 80.73663 85.04863 91.81363 98.79863 104.52963 108.02763 112.317638 121.53564 128.53163 135.52764 142.52364 149.51964">Environment Steps (&#x00d7;1000)</tspan></text>
<g clip-path="url(#clip_8)">
<path transform="matrix(1,0,0,-1,0,253.84)" stroke-width=".8" stroke-linecap="square" stroke-linejoin="round" fill="none" stroke="#b0b0b0" stroke-opacity=".3" d="M44.746877 60.16H249.5945"/>
</g>
<path transform="matrix(1,0,0,-1,0,253.84)" d="M44.746877 60.16H41.246877"/>
<path transform="matrix(1,0,0,-1,0,253.84)" stroke-width=".8" stroke-linecap="butt" stroke-linejoin="round" fill="none" stroke="#000000" d="M44.746877 60.16H41.246877"/>
<text xml:space="preserve" transform="matrix(1 0 -0 1 21.840626 197.47687)" font-size="10" font-family="DejaVuSans"><tspan y="0" x="0 6.3600008 9.540001">0.0</tspan></text>
<g clip-path="url(#clip_9)">
<path transform="matrix(1,0,0,-1,0,253.84)" stroke-width=".8" stroke-linecap="square" stroke-linejoin="round" fill="none" stroke="#b0b0b0" stroke-opacity=".3" d="M44.746877 91.072H249.5945"/>
</g>
<path transform="matrix(1,0,0,-1,0,253.84)" d="M44.746877 91.072H41.246877"/>
<path transform="matrix(1,0,0,-1,0,253.84)" stroke-width=".8" stroke-linecap="butt" stroke-linejoin="round" fill="none" stroke="#000000" d="M44.746877 91.072H41.246877"/>
<text xml:space="preserve" transform="matrix(1 0 -0 1 21.840626 166.56488)" font-size="10" font-family="DejaVuSans"><tspan y="0" x="0 6.3600008 9.540001">0.2</tspan></text>
<g clip-path="url(#clip_10)">
<path transform="matrix(1,0,0,-1,0,253.84)" stroke-width=".8" stroke-linecap="square" stroke-linejoin="round" fill="none" stroke="#b0b0b0" stroke-opacity=".3" d="M44.746877 121.984H249.5945"/>
</g>
<path transform="matrix(1,0,0,-1,0,253.84)" d="M44.746877 121.984H41.246877"/>
<path transform="matrix(1,0,0,-1,0,253.84)" stroke-width=".8" stroke-linecap="butt" stroke-linejoin="round" fill="none" stroke="#000000" d="M44.746877 121.984H41.246877"/>
<text xml:space="preserve" transform="matrix(1 0 -0 1 21.840626 135.65287)" font-size="10" font-family="DejaVuSans"><tspan y="0" x="0 6.3600008 9.540001">0.4</tspan></text>
<g clip-path="url(#clip_11)">
<path transform="matrix(1,0,0,-1,0,253.84)" stroke-width=".8" stroke-linecap="square" stroke-linejoin="round" fill="none" stroke="#b0b0b0" stroke-opacity=".3" d="M44.746877 152.896H249.5945"/>
</g>
<path transform="matrix(1,0,0,-1,0,253.84)" d="M44.746877 152.896H41.246877"/>
<path transform="matrix(1,0,0,-1,0,253.84)" stroke-width=".8" stroke-linecap="butt" stroke-linejoin="round" fill="none" stroke="#000000" d="M44.746877 152.896H41.246877"/>
<text xml:space="preserve" transform="matrix(1 0 -0 1 21.840626 104.740879)" font-size="10" font-family="DejaVuSans"><tspan y="0" x="0 6.3600008 9.540001">0.6</tspan></text>
<g clip-path="url(#clip_12)">
<path transform="matrix(1,0,0,-1,0,253.84)" stroke-width=".8" stroke-linecap="square" stroke-linejoin="round" fill="none" stroke="#b0b0b0" stroke-opacity=".3" d="M44.746877 183.808H249.5945"/>
</g>
<path transform="matrix(1,0,0,-1,0,253.84)" d="M44.746877 183.808H41.246877"/>
<path transform="matrix(1,0,0,-1,0,253.84)" stroke-width=".8" stroke-linecap="butt" stroke-linejoin="round" fill="none" stroke="#000000" d="M44.746877 183.808H41.246877"/>
<text xml:space="preserve" transform="matrix(1 0 -0 1 21.840626 73.82887)" font-size="10" font-family="DejaVuSans"><tspan y="0" x="0 6.3600008 9.540001">0.8</tspan></text>
<g clip-path="url(#clip_13)">
<path transform="matrix(1,0,0,-1,0,253.84)" stroke-width=".8" stroke-linecap="square" stroke-linejoin="round" fill="none" stroke="#b0b0b0" stroke-opacity=".3" d="M44.746877 214.72H249.5945"/>
</g>
<path transform="matrix(1,0,0,-1,0,253.84)" d="M44.746877 214.72H41.246877"/>
<path transform="matrix(1,0,0,-1,0,253.84)" stroke-width=".8" stroke-linecap="butt" stroke-linejoin="round" fill="none" stroke="#000000" d="M44.746877 214.72H41.246877"/>
<text xml:space="preserve" transform="matrix(1 0 -0 1 21.840626 42.91687)" font-size="10" font-family="DejaVuSans"><tspan y="0" x="0 6.3600008 9.540001">1.0</tspan></text>
<text xml:space="preserve" transform="matrix(0 -1 1 0 15.559375 152.89218)" font-size="11" font-family="DejaVuSans"><tspan y="0" x="0 6.9850008 13.959001 20.009 26.059002 32.824 38.555 44.286 47.784 55.194627 61.937627 66.249629">Success Rate</tspan></text>
<g clip-path="url(#clip_14)">
<path transform="matrix(1,0,0,-1,0,253.84)" stroke-width="2" stroke-linecap="square" stroke-linejoin="round" fill="none" stroke="#9b8afb" d="M54.058134 174.0192 60.265634 61.1904 66.47314 60.9328 72.68064 65.8272 78.888149 63.2512 85.09565 60.6752 91.303157 62.2208 97.51066 65.312 103.71816 63.2512 109.92567 72.5248 116.13317 95.7088 122.340679 76.6464 128.54817 75.1008 134.75568 72.0096 140.96318 82.8288 147.17069 88.496 153.37819 80.2528 159.5857 97.7696 165.7932 86.9504 172.0007 93.1328 178.2082 97.7696 184.41571 87.9808 190.62322 104.9824 196.83072 102.4064 203.03823 151.8656 209.24573 108.0736 215.45323 143.6224 221.66074 145.168 227.86824 120.4384 234.07575 108.0736 240.28325 156.5024"/>
<g clip-path="url(#clip_15)">
<path transform="matrix(1,0,0,-1,54.058134,79.8208)" d="M0-2C.530406-2 1.03916-1.789267 1.414214-1.414214 1.789267-1.03916 2-.530406 2 0 2 .530406 1.789267 1.03916 1.414214 1.414214 1.03916 1.789267 .530406 2 0 2-.530406 2-1.03916 1.789267-1.414214 1.414214-1.789267 1.03916-2 .530406-2 0-2-.530406-1.789267-1.03916-1.414214-1.414214-1.03916-1.789267-.530406-2 0-2Z" fill="#9b8afb"/>
<path transform="matrix(1,0,0,-1,54.058134,79.8208)" stroke-width="1" stroke-linecap="butt" stroke-linejoin="round" fill="none" stroke="#9b8afb" d="M0-2C.530406-2 1.03916-1.789267 1.414214-1.414214 1.789267-1.03916 2-.530406 2 0 2 .530406 1.789267 1.03916 1.414214 1.414214 1.03916 1.789267 .530406 2 0 2-.530406 2-1.03916 1.789267-1.414214 1.414214-1.789267 1.03916-2 .530406-2 0-2-.530406-1.789267-1.03916-1.414214-1.414214-1.03916-1.789267-.530406-2 0-2Z"/>
</g>
<g clip-path="url(#clip_16)">
<path transform="matrix(1,0,0,-1,116.13317,158.1312)" d="M0-2C.530406-2 1.03916-1.789267 1.414214-1.414214 1.789267-1.03916 2-.530406 2 0 2 .530406 1.789267 1.03916 1.414214 1.414214 1.03916 1.789267 .530406 2 0 2-.530406 2-1.03916 1.789267-1.414214 1.414214-1.789267 1.03916-2 .530406-2 0-2-.530406-1.789267-1.03916-1.414214-1.414214-1.03916-1.789267-.530406-2 0-2Z" fill="#9b8afb"/>
<path transform="matrix(1,0,0,-1,116.13317,158.1312)" stroke-width="1" stroke-linecap="butt" stroke-linejoin="round" fill="none" stroke="#9b8afb" d="M0-2C.530406-2 1.03916-1.789267 1.414214-1.414214 1.789267-1.03916 2-.530406 2 0 2 .530406 1.789267 1.03916 1.414214 1.414214 1.03916 1.789267 .530406 2 0 2-.530406 2-1.03916 1.789267-1.414214 1.414214-1.789267 1.03916-2 .530406-2 0-2-.530406-1.789267-1.03916-1.414214-1.414214-1.03916-1.789267-.530406-2 0-2Z"/>
</g>
<g clip-path="url(#clip_17)">
<path transform="matrix(1,0,0,-1,178.2082,156.07039)" d="M0-2C.530406-2 1.03916-1.789267 1.414214-1.414214 1.789267-1.03916 2-.530406 2 0 2 .530406 1.789267 1.03916 1.414214 1.414214 1.03916 1.789267 .530406 2 0 2-.530406 2-1.03916 1.789267-1.414214 1.414214-1.789267 1.03916-2 .530406-2 0-2-.530406-1.789267-1.03916-1.414214-1.414214-1.03916-1.789267-.530406-2 0-2Z" fill="#9b8afb"/>
<path transform="matrix(1,0,0,-1,178.2082,156.07039)" stroke-width="1" stroke-linecap="butt" stroke-linejoin="round" fill="none" stroke="#9b8afb" d="M0-2C.530406-2 1.03916-1.789267 1.414214-1.414214 1.789267-1.03916 2-.530406 2 0 2 .530406 1.789267 1.03916 1.414214 1.414214 1.03916 1.789267 .530406 2 0 2-.530406 2-1.03916 1.789267-1.414214 1.414214-1.789267 1.03916-2 .530406-2 0-2-.530406-1.789267-1.03916-1.414214-1.414214-1.03916-1.789267-.530406-2 0-2Z"/>
</g>
<g clip-path="url(#clip_18)">
<path transform="matrix(1,0,0,-1,240.28325,97.337589)" d="M0-2C.530406-2 1.03916-1.789267 1.414214-1.414214 1.789267-1.03916 2-.530406 2 0 2 .530406 1.789267 1.03916 1.414214 1.414214 1.03916 1.789267 .530406 2 0 2-.530406 2-1.03916 1.789267-1.414214 1.414214-1.789267 1.03916-2 .530406-2 0-2-.530406-1.789267-1.03916-1.414214-1.414214-1.03916-1.789267-.530406-2 0-2Z" fill="#9b8afb"/>
<path transform="matrix(1,0,0,-1,240.28325,97.337589)" stroke-width="1" stroke-linecap="butt" stroke-linejoin="round" fill="none" stroke="#9b8afb" d="M0-2C.530406-2 1.03916-1.789267 1.414214-1.414214 1.789267-1.03916 2-.530406 2 0 2 .530406 1.789267 1.03916 1.414214 1.414214 1.03916 1.789267 .530406 2 0 2-.530406 2-1.03916 1.789267-1.414214 1.414214-1.789267 1.03916-2 .530406-2 0-2-.530406-1.789267-1.03916-1.414214-1.414214-1.03916-1.789267-.530406-2 0-2Z"/>
</g>
</g>
<g clip-path="url(#clip_19)">
<path transform="matrix(1,0,0,-1,0,253.84)" stroke-width="2" stroke-linecap="butt" stroke-dasharray="7.4,3.2" stroke-linejoin="round" fill="none" stroke="#7db8ff" d="M54.058134 172.9888 60.265634 74.8432 66.47314 94.5496 72.68064 101.5048 78.888149 125.848 85.09565 142.4632 91.303157 167.1928 97.51066 169.8976 103.71816 186.8992 109.92567 187.2856 116.13317 196.1728 122.340679 196.5592 128.54817 204.6736 134.75568 202.7416 140.96318 210.0832 147.17069 202.7416 153.37819 207.7648 159.5857 197.7184 165.7932 191.536 172.0007 203.128 178.2082 210.5984 184.41571 207.5072 190.62322 211.6288 196.83072 208.0224 203.03823 209.568 209.24573 210.5984 215.45323 212.6592 221.66074 214.72 227.86824 212.144 234.07575 207.5072 240.28325 212.144"/>
<g clip-path="url(#clip_20)">
<path transform="matrix(1,0,0,-1,54.058134,80.8512)" d="M-2-2H2V2H-2Z" fill="#7db8ff"/>
<path transform="matrix(1,0,0,-1,54.058134,80.8512)" stroke-width="1" stroke-linecap="butt" stroke-miterlimit="10" stroke-linejoin="miter" fill="none" stroke="#7db8ff" d="M-2-2H2V2H-2Z"/>
</g>
<g clip-path="url(#clip_21)">
<path transform="matrix(1,0,0,-1,116.13317,57.6672)" d="M-2-2H2V2H-2Z" fill="#7db8ff"/>
<path transform="matrix(1,0,0,-1,116.13317,57.6672)" stroke-width="1" stroke-linecap="butt" stroke-miterlimit="10" stroke-linejoin="miter" fill="none" stroke="#7db8ff" d="M-2-2H2V2H-2Z"/>
</g>
<g clip-path="url(#clip_22)">
<path transform="matrix(1,0,0,-1,178.2082,43.2416)" d="M-2-2H2V2H-2Z" fill="#7db8ff"/>
<path transform="matrix(1,0,0,-1,178.2082,43.2416)" stroke-width="1" stroke-linecap="butt" stroke-miterlimit="10" stroke-linejoin="miter" fill="none" stroke="#7db8ff" d="M-2-2H2V2H-2Z"/>
</g>
<g clip-path="url(#clip_23)">
<path transform="matrix(1,0,0,-1,240.28325,41.696)" d="M-2-2H2V2H-2Z" fill="#7db8ff"/>
<path transform="matrix(1,0,0,-1,240.28325,41.696)" stroke-width="1" stroke-linecap="butt" stroke-miterlimit="10" stroke-linejoin="miter" fill="none" stroke="#7db8ff" d="M-2-2H2V2H-2Z"/>
</g>
</g>
<g clip-path="url(#clip_24)">
<path transform="matrix(1,0,0,-1,0,253.84)" stroke-width="2" stroke-linecap="butt" stroke-dasharray="12.8,3.2,2,3.2" stroke-linejoin="round" fill="none" stroke="#63c29d" d="M54.058134 170.4128 60.265634 79.2224 66.47314 91.5872 72.68064 127.6512 78.888149 147.2288 85.09565 160.624 91.303157 179.1712 97.51066 180.7168 103.71816 185.8688 109.92567 179.6864 116.13317 197.7184 122.340679 199.264 128.54817 204.416 134.75568 205.9616 140.96318 210.0832H147.17069 153.37819L159.5857 204.416 165.7932 204.9312 172.0007 206.4768 178.2082 204.9312 184.41571 196.1728 190.62322 211.6288 196.83072 207.5072 203.03823 204.9312 209.24573 208.0224 215.45323 203.9008 221.66074 209.0528 227.86824 208.5376H234.07575L240.28325 210.0832"/>
<g clip-path="url(#clip_25)">
<path transform="matrix(1,0,0,-1,54.058134,83.4272)" d="M0 2-2-2H2Z" fill="#63c29d"/>
<path transform="matrix(1,0,0,-1,54.058134,83.4272)" stroke-width="1" stroke-linecap="butt" stroke-miterlimit="10" stroke-linejoin="miter" fill="none" stroke="#63c29d" d="M0 2-2-2H2Z"/>
</g>
<g clip-path="url(#clip_26)">
<path transform="matrix(1,0,0,-1,116.13317,56.1216)" d="M0 2-2-2H2Z" fill="#63c29d"/>
<path transform="matrix(1,0,0,-1,116.13317,56.1216)" stroke-width="1" stroke-linecap="butt" stroke-miterlimit="10" stroke-linejoin="miter" fill="none" stroke="#63c29d" d="M0 2-2-2H2Z"/>
</g>
<g clip-path="url(#clip_27)">
<path transform="matrix(1,0,0,-1,178.2082,48.908803)" d="M0 2-2-2H2Z" fill="#63c29d"/>
<path transform="matrix(1,0,0,-1,178.2082,48.908803)" stroke-width="1" stroke-linecap="butt" stroke-miterlimit="10" stroke-linejoin="miter" fill="none" stroke="#63c29d" d="M0 2-2-2H2Z"/>
</g>
<g clip-path="url(#clip_28)">
<path transform="matrix(1,0,0,-1,240.28325,43.7568)" d="M0 2-2-2H2Z" fill="#63c29d"/>
<path transform="matrix(1,0,0,-1,240.28325,43.7568)" stroke-width="1" stroke-linecap="butt" stroke-miterlimit="10" stroke-linejoin="miter" fill="none" stroke="#63c29d" d="M0 2-2-2H2Z"/>
</g>
</g>
<g clip-path="url(#clip_29)">
<path transform="matrix(1,0,0,-1,0,253.84)" stroke-width="2" stroke-linecap="butt" stroke-dasharray="7.4,3.2" stroke-linejoin="round" fill="none" stroke="#4a5568" d="M54.058134 177.1104 60.265634 75.616 66.47314 73.5552 72.68064 72.0096 78.888149 100.8608 85.09565 99.8304 91.303157 124.56 97.51066 146.7136 103.71816 140.016 109.92567 135.3792 116.13317 149.2896 122.340679 169.3824 128.54817 182.7776 134.75568 179.6864 140.96318 195.1424 147.17069 189.4752 153.37819 195.6576 159.5857 200.2944 165.7932 200.8096 172.0007 202.8704H178.2082L184.41571 199.7792 190.62322 205.9616 196.83072 198.2336 203.03823 204.416 209.24573 207.5072 215.45323 205.9616 221.66074 209.0528 227.86824 197.2032 234.07575 204.416 240.28325 200.8096"/>
<g clip-path="url(#clip_30)">
<path transform="matrix(1,0,0,-1,54.058134,76.7296)" d="M-.666667-2H.666667V-.666667H2V.666667H.666667V2H-.666667V.666667H-2V-.666667H-.666667Z" fill="#4a5568"/>
<path transform="matrix(1,0,0,-1,54.058134,76.7296)" stroke-width="1" stroke-linecap="butt" stroke-miterlimit="10" stroke-linejoin="miter" fill="none" stroke="#4a5568" d="M-.666667-2H.666667V-.666667H2V.666667H.666667V2H-.666667V.666667H-2V-.666667H-.666667Z"/>
</g>
<g clip-path="url(#clip_31)">
<path transform="matrix(1,0,0,-1,116.13317,104.5504)" d="M-.666667-2H.666667V-.666667H2V.666667H.666667V2H-.666667V.666667H-2V-.666667H-.666667Z" fill="#4a5568"/>
<path transform="matrix(1,0,0,-1,116.13317,104.5504)" stroke-width="1" stroke-linecap="butt" stroke-miterlimit="10" stroke-linejoin="miter" fill="none" stroke="#4a5568" d="M-.666667-2H.666667V-.666667H2V.666667H.666667V2H-.666667V.666667H-2V-.666667H-.666667Z"/>
</g>
<g clip-path="url(#clip_32)">
<path transform="matrix(1,0,0,-1,178.2082,50.9696)" d="M-.666667-2H.666667V-.666667H2V.666667H.666667V2H-.666667V.666667H-2V-.666667H-.666667Z" fill="#4a5568"/>
<path transform="matrix(1,0,0,-1,178.2082,50.9696)" stroke-width="1" stroke-linecap="butt" stroke-miterlimit="10" stroke-linejoin="miter" fill="none" stroke="#4a5568" d="M-.666667-2H.666667V-.666667H2V.666667H.666667V2H-.666667V.666667H-2V-.666667H-.666667Z"/>
</g>
<g clip-path="url(#clip_33)">
<path transform="matrix(1,0,0,-1,240.28325,53.0304)" d="M-.666667-2H.666667V-.666667H2V.666667H.666667V2H-.666667V.666667H-2V-.666667H-.666667Z" fill="#4a5568"/>
<path transform="matrix(1,0,0,-1,240.28325,53.0304)" stroke-width="1" stroke-linecap="butt" stroke-miterlimit="10" stroke-linejoin="miter" fill="none" stroke="#4a5568" d="M-.666667-2H.666667V-.666667H2V.666667H.666667V2H-.666667V.666667H-2V-.666667H-.666667Z"/>
</g>
</g>
<path transform="matrix(1,0,0,-1,0,253.84)" stroke-width=".8" stroke-linecap="square" stroke-miterlimit="10" stroke-linejoin="miter" fill="none" stroke="#000000" d="M44.746877 60.16V214.72"/>
<path transform="matrix(1,0,0,-1,0,253.84)" stroke-width=".8" stroke-linecap="square" stroke-miterlimit="10" stroke-linejoin="miter" fill="none" stroke="#000000" d="M249.5945 60.16V214.72"/>
<path transform="matrix(1,0,0,-1,0,253.84)" stroke-width=".8" stroke-linecap="square" stroke-miterlimit="10" stroke-linejoin="miter" fill="none" stroke="#000000" d="M44.746877 60.16H249.5945"/>
<path transform="matrix(1,0,0,-1,0,253.84)" stroke-width=".8" stroke-linecap="square" stroke-miterlimit="10" stroke-linejoin="miter" fill="none" stroke="#000000" d="M44.746877 214.72H249.5945"/>
<text xml:space="preserve" transform="matrix(1 0 -0 1 111.076938 33.119997)" font-size="12" font-family="DejaVuSansMono"><tspan y="0" x="0 7.224001 14.448002 21.672003 28.896004 36.120004 43.344 50.568 57.792 65.016">BoxCleanup</tspan></text>
<path transform="matrix(1,0,0,-1,0,253.84)" d="M284.88426 60.16H489.73188V214.72H284.88426Z" fill="#ffffff"/>
<g clip-path="url(#clip_34)">
<g>
<path transform="matrix(1,0,0,-1,0,253.84)" d="M294.1955 187.73288V158.24472L297.92 60.16H301.6445 305.36903 309.0935L312.81803 59.78285H316.5425L320.26704 60.16H323.99153L327.71604 59.78285 331.44053 60.16 335.16505 58.926198 338.88954 59.405698 342.61405 60.16H346.33854 350.06306L353.78755 60.988286 357.51206 53.9776 361.23655 54.879865 364.96107 59.894826 368.68556 51.108339 372.41007 62.967927 376.13456 59.559717 379.85908 61.496129 383.58357 48.46827 387.30809 64.65232 391.03257 59.58073 394.75709 68.75327 398.48158 41.691267 402.2061 44.66159 405.93058 61.365438 409.6551 57.14278H413.37959L417.1041 57.897085 420.82859 59.78285 424.5531 59.405698 428.2776 60.16 432.00209 50.354036 435.7266 60.16 439.45109 51.108339 443.1756 60.16H446.9001 450.6246L454.3491 53.748407 458.0736 56.388475 461.7981 60.16 465.5226 59.02854 469.2471 58.797994 472.97163 60.16 476.6961 56.388475 480.42063 49.599729V99.57147L476.6961 74.23553 472.97163 60.16 469.2471 68.73481 465.5226 64.38266 461.7981 60.16 458.0736 74.23553 454.3491 84.088397 450.6246 60.16H446.9001 443.1756L439.45109 93.94126 435.7266 60.16 432.00209 96.75637 428.2776 60.16 424.5531 62.975107 420.82859 61.567556 417.1041 68.605319 413.37959 71.42042H409.6551L405.93058 70.28896 402.2061 132.33042 398.48158 136.33113 394.75709 86.60033 391.03257 72.07367 387.30809 114.400478 383.58357 103.79413 379.85908 95.918277 376.13456 69.00349 372.41007 70.74728 368.68556 93.94126 364.96107 86.18517 361.23655 79.86574 357.51206 97.2544 353.78755 71.69652 350.06306 69.4336 346.33854 60.16H342.61405L338.88954 62.975107 335.16505 74.789 331.44053 66.3424 327.71604 61.567556 323.99153 60.16H320.26704L316.5425 61.567556H312.81803L309.0935 60.16H305.36903 301.6445 297.92L294.1955 187.73288Z" fill="#9b8afb" fill-opacity=".2"/>
<path transform="matrix(1,0,0,-1,0,253.84)" stroke-width="1" stroke-linecap="butt" stroke-linejoin="round" fill="none" stroke="#9b8afb" stroke-opacity=".2" d="M294.1955 187.73288V158.24472L297.92 60.16H301.6445 305.36903 309.0935L312.81803 59.78285H316.5425L320.26704 60.16H323.99153L327.71604 59.78285 331.44053 60.16 335.16505 58.926198 338.88954 59.405698 342.61405 60.16H346.33854 350.06306L353.78755 60.988286 357.51206 53.9776 361.23655 54.879865 364.96107 59.894826 368.68556 51.108339 372.41007 62.967927 376.13456 59.559717 379.85908 61.496129 383.58357 48.46827 387.30809 64.65232 391.03257 59.58073 394.75709 68.75327 398.48158 41.691267 402.2061 44.66159 405.93058 61.365438 409.6551 57.14278H413.37959L417.1041 57.897085 420.82859 59.78285 424.5531 59.405698 428.2776 60.16 432.00209 50.354036 435.7266 60.16 439.45109 51.108339 443.1756 60.16H446.9001 450.6246L454.3491 53.748407 458.0736 56.388475 461.7981 60.16 465.5226 59.02854 469.2471 58.797994 472.97163 60.16 476.6961 56.388475 480.42063 49.599729V99.57147L476.6961 74.23553 472.97163 60.16 469.2471 68.73481 465.5226 64.38266 461.7981 60.16 458.0736 74.23553 454.3491 84.088397 450.6246 60.16H446.9001 443.1756L439.45109 93.94126 435.7266 60.16 432.00209 96.75637 428.2776 60.16 424.5531 62.975107 420.82859 61.567556 417.1041 68.605319 413.37959 71.42042H409.6551L405.93058 70.28896 402.2061 132.33042 398.48158 136.33113 394.75709 86.60033 391.03257 72.07367 387.30809 114.400478 383.58357 103.79413 379.85908 95.918277 376.13456 69.00349 372.41007 70.74728 368.68556 93.94126 364.96107 86.18517 361.23655 79.86574 357.51206 97.2544 353.78755 71.69652 350.06306 69.4336 346.33854 60.16H342.61405L338.88954 62.975107 335.16505 74.789 331.44053 66.3424 327.71604 61.567556 323.99153 60.16H320.26704L316.5425 61.567556H312.81803L309.0935 60.16H305.36903 301.6445 297.92L294.1955 187.73288Z"/>
</g>
</g>
<g clip-path="url(#clip_35)">
<g>
<path transform="matrix(1,0,0,-1,0,253.84)" d="M294.1955 183.56877V172.71283L297.92 60.16 301.6445 59.593454 305.36903 63.292219 309.0935 59.78285 312.81803 52.247926 316.5425 64.16758 320.26704 67.25016 323.99153 49.74769 327.71604 62.76821 331.44053 44.438486 335.16505 70.542469 338.88954 43.352495 342.61405 51.097356 346.33854 54.93228 350.06306 56.41624 353.78755 58.312208 357.51206 68.37459 361.23655 60.16 364.96107 59.103185 368.68556 70.4087 372.41007 111.60511 376.13456 93.868289 379.85908 114.88209 383.58357 150.65645 387.30809 112.52766 391.03257 72.5248 394.75709 102.58451 398.48158 72.89225 402.2061 82.9628 405.93058 143.09647 409.6551 86.80643 413.37959 156.0163 417.1041 154.52913 420.82859 68.37237 424.5531 165.2386 428.2776 160.67887 432.00209 188.84598 435.7266 186.26998 439.45109 191.82929 443.1756 188.15833 446.9001 195.9035 450.6246 190.42658 454.3491 197.26786 458.0736 207.68224 461.7981 204.74686 465.5226 203.9008 469.2471 194.92047 472.97163 202.78531 476.6961 205.99393 480.42063 208.92658V215.36142L476.6961 214.17247 472.97163 212.22908 469.2471 219.06352 465.5226 213.1744 461.7981 216.44995 458.0736 216.60576 454.3491 213.62494 450.6246 217.37503 446.9001 212.9285 443.1756 213.46088 439.45109 215.97232 435.7266 214.31882 432.00209 216.89482 428.2776 208.99793 424.5531 225.0462 420.82859 214.75084 417.1041 212.05648 413.37959 219.8429 409.6551 234.44158 405.93058 217.30673 402.2061 239.3156 398.48158 240.11255 394.75709 232.05869 391.03257 223.9936 387.30809 230.35875 383.58357 222.11156 379.85908 217.70032 376.13456 220.16692 372.41007 225.09889 368.68556 224.0489 364.96107 179.71282 361.23655 202.3552 357.51206 179.71501 353.78755 110.43659 350.06306 100.99816 346.33854 177.70133 342.61405 157.83705 338.88954 159.3995 335.16505 165.18235 331.44053 136.67511 327.71604 169.86539 323.99153 128.27472 320.26704 156.10984 316.5425 92.21642 312.81803 107.22727 309.0935 61.567556 305.36903 108.54778 301.6445 75.152149 297.92 60.16 294.1955 183.56877Z" fill="#7db8ff" fill-opacity=".2"/>
<path transform="matrix(1,0,0,-1,0,253.84)" stroke-width="1" stroke-linecap="butt" stroke-linejoin="round" fill="none" stroke="#7db8ff" stroke-opacity=".2" d="M294.1955 183.56877V172.71283L297.92 60.16 301.6445 59.593454 305.36903 63.292219 309.0935 59.78285 312.81803 52.247926 316.5425 64.16758 320.26704 67.25016 323.99153 49.74769 327.71604 62.76821 331.44053 44.438486 335.16505 70.542469 338.88954 43.352495 342.61405 51.097356 346.33854 54.93228 350.06306 56.41624 353.78755 58.312208 357.51206 68.37459 361.23655 60.16 364.96107 59.103185 368.68556 70.4087 372.41007 111.60511 376.13456 93.868289 379.85908 114.88209 383.58357 150.65645 387.30809 112.52766 391.03257 72.5248 394.75709 102.58451 398.48158 72.89225 402.2061 82.9628 405.93058 143.09647 409.6551 86.80643 413.37959 156.0163 417.1041 154.52913 420.82859 68.37237 424.5531 165.2386 428.2776 160.67887 432.00209 188.84598 435.7266 186.26998 439.45109 191.82929 443.1756 188.15833 446.9001 195.9035 450.6246 190.42658 454.3491 197.26786 458.0736 207.68224 461.7981 204.74686 465.5226 203.9008 469.2471 194.92047 472.97163 202.78531 476.6961 205.99393 480.42063 208.92658V215.36142L476.6961 214.17247 472.97163 212.22908 469.2471 219.06352 465.5226 213.1744 461.7981 216.44995 458.0736 216.60576 454.3491 213.62494 450.6246 217.37503 446.9001 212.9285 443.1756 213.46088 439.45109 215.97232 435.7266 214.31882 432.00209 216.89482 428.2776 208.99793 424.5531 225.0462 420.82859 214.75084 417.1041 212.05648 413.37959 219.8429 409.6551 234.44158 405.93058 217.30673 402.2061 239.3156 398.48158 240.11255 394.75709 232.05869 391.03257 223.9936 387.30809 230.35875 383.58357 222.11156 379.85908 217.70032 376.13456 220.16692 372.41007 225.09889 368.68556 224.0489 364.96107 179.71282 361.23655 202.3552 357.51206 179.71501 353.78755 110.43659 350.06306 100.99816 346.33854 177.70133 342.61405 157.83705 338.88954 159.3995 335.16505 165.18235 331.44053 136.67511 327.71604 169.86539 323.99153 128.27472 320.26704 156.10984 316.5425 92.21642 312.81803 107.22727 309.0935 61.567556 305.36903 108.54778 301.6445 75.152149 297.92 60.16 294.1955 183.56877Z"/>
</g>
</g>
<g clip-path="url(#clip_36)">
<g>
<path transform="matrix(1,0,0,-1,0,253.84)" d="M294.1955 187.16539V163.96422L297.92 60.16 301.6445 57.14278 305.36903 68.435527 309.0935 74.86821 312.81803 54.532033 316.5425 78.7072 320.26704 101.33219 323.99153 111.074039 327.71604 112.41241 331.44053 129.36751 335.16505 102.862468 338.88954 70.33234 342.61405 104.834949 346.33854 104.13762 350.06306 89.64362 353.78755 101.74385 357.51206 128.35846 361.23655 179.3177 364.96107 145.89318 368.68556 170.07245 372.41007 184.51279 376.13456 140.8427 379.85908 176.47928 383.58357 177.48686 387.30809 199.5401 391.03257 198.40863 394.75709 185.78977 398.48158 201.0529 402.2061 198.56446 405.93058 205.4464 409.6551 203.25939 413.37959 204.14003 417.1041 197.55327 420.82859 206.14519 424.5531 201.0529 428.2776 207.22393 432.00209 203.61753 435.7266 207.22393 439.45109 196.18569 443.1756 210.29827 446.9001 208.23746 450.6246 205.99393 454.3491 210.22126 458.0736 209.08979 461.7981 198.69745 465.5226 205.83538 469.2471 211.90489H472.97163L476.6961 209.08979 480.42063 190.67443V210.94478L476.6961 216.2286 472.97163 215.4743H469.2471L465.5226 212.27022 461.7981 214.25615 458.0736 216.2286 454.3491 212.00595 450.6246 214.17247 446.9001 212.95935 443.1756 215.02014 439.45109 216.76792 435.7266 215.00328 432.00209 211.39688 428.2776 215.00328 424.5531 214.9919 420.82859 216.08202 417.1041 215.40033 413.37959 214.99597 409.6551 209.69423 405.93058 208.5376 402.2061 210.26755 398.48158 214.9919 394.75709 212.73824 391.03257 207.33217 387.30809 203.10951 383.58357 215.88915 379.85908 208.65352 376.13456 225.7429 372.41007 210.92401 368.68556 207.84755 364.96107 211.41884 361.23655 202.72389 357.51206 212.46714 353.78755 208.16976 350.06306 191.41878 346.33854 195.47199 342.61405 167.98426 338.88954 203.51726 335.16505 179.23033 331.44053 186.7285 327.71604 130.52519 323.99153 163.80596 320.26704 149.8486 316.5425 137.44 312.81803 101.85197 309.0935 109.33659 305.36903 76.614078 301.6445 71.42042 297.92 60.16 294.1955 187.16539Z" fill="#63c29d" fill-opacity=".2"/>
<path transform="matrix(1,0,0,-1,0,253.84)" stroke-width="1" stroke-linecap="butt" stroke-linejoin="round" fill="none" stroke="#63c29d" stroke-opacity=".2" d="M294.1955 187.16539V163.96422L297.92 60.16 301.6445 57.14278 305.36903 68.435527 309.0935 74.86821 312.81803 54.532033 316.5425 78.7072 320.26704 101.33219 323.99153 111.074039 327.71604 112.41241 331.44053 129.36751 335.16505 102.862468 338.88954 70.33234 342.61405 104.834949 346.33854 104.13762 350.06306 89.64362 353.78755 101.74385 357.51206 128.35846 361.23655 179.3177 364.96107 145.89318 368.68556 170.07245 372.41007 184.51279 376.13456 140.8427 379.85908 176.47928 383.58357 177.48686 387.30809 199.5401 391.03257 198.40863 394.75709 185.78977 398.48158 201.0529 402.2061 198.56446 405.93058 205.4464 409.6551 203.25939 413.37959 204.14003 417.1041 197.55327 420.82859 206.14519 424.5531 201.0529 428.2776 207.22393 432.00209 203.61753 435.7266 207.22393 439.45109 196.18569 443.1756 210.29827 446.9001 208.23746 450.6246 205.99393 454.3491 210.22126 458.0736 209.08979 461.7981 198.69745 465.5226 205.83538 469.2471 211.90489H472.97163L476.6961 209.08979 480.42063 190.67443V210.94478L476.6961 216.2286 472.97163 215.4743H469.2471L465.5226 212.27022 461.7981 214.25615 458.0736 216.2286 454.3491 212.00595 450.6246 214.17247 446.9001 212.95935 443.1756 215.02014 439.45109 216.76792 435.7266 215.00328 432.00209 211.39688 428.2776 215.00328 424.5531 214.9919 420.82859 216.08202 417.1041 215.40033 413.37959 214.99597 409.6551 209.69423 405.93058 208.5376 402.2061 210.26755 398.48158 214.9919 394.75709 212.73824 391.03257 207.33217 387.30809 203.10951 383.58357 215.88915 379.85908 208.65352 376.13456 225.7429 372.41007 210.92401 368.68556 207.84755 364.96107 211.41884 361.23655 202.72389 357.51206 212.46714 353.78755 208.16976 350.06306 191.41878 346.33854 195.47199 342.61405 167.98426 338.88954 203.51726 335.16505 179.23033 331.44053 186.7285 327.71604 130.52519 323.99153 163.80596 320.26704 149.8486 316.5425 137.44 312.81803 101.85197 309.0935 109.33659 305.36903 76.614078 301.6445 71.42042 297.92 60.16 294.1955 187.16539Z"/>
</g>
</g>
<g clip-path="url(#clip_37)">
<g>
<path transform="matrix(1,0,0,-1,0,253.84)" d="M294.1955 192.5898V158.5398L297.92 60.16 301.6445 59.405698 305.36903 56.388475 309.0935 54.879865 312.81803 60.16H316.5425L320.26704 60.638463 323.99153 65.44131 327.71604 58.478376 331.44053 47.120279 335.16505 125.90349 338.88954 100.3456 342.61405 78.7072 346.33854 67.21958 350.06306 142.25167 353.78755 119.75886 357.51206 162.59972 361.23655 162.1696 364.96107 172.3709 368.68556 150.10073 372.41007 190.42052 376.13456 193.51172 379.85908 168.65851 383.58357 158.00119 387.30809 207.7833 391.03257 188.78983 394.75709 211.6288 398.48158 208.5376 402.2061 208.81369H405.93058L409.6551 209.08979 413.37959 205.87651 417.1041 203.18349 420.82859 203.13315 424.5531 207.02899 428.2776 208.5376 432.00209 194.30092 435.7266 207.7833 439.45109 198.69745 443.1756 200.35906 446.9001 203.18349 450.6246 208.5376 454.3491 214.72 458.0736 207.7833 461.7981 203.18349 465.5226 208.5376 469.2471 199.264 472.97163 210.8745 476.6961 200.64447 480.42063 208.5376V214.72L476.6961 218.49153 472.97163 214.44391 469.2471 205.4464 465.5226 214.72 461.7981 213.89171 458.0736 211.3527 454.3491 214.72H450.6246L446.9001 213.89171 443.1756 216.71614 439.45109 214.25615 435.7266 211.3527 432.00209 216.59188 428.2776 214.72 424.5531 214.16782 420.82859 216.00286 417.1041 213.89171 413.37959 215.32028 409.6551 216.2286 405.93058 212.3831H402.2061L398.48158 214.72 394.75709 211.6288 391.03257 207.67737 387.30809 211.3527 383.58357 226.10121 379.85908 213.38309 376.13456 202.95549 372.41007 199.86429 368.68556 207.21129 364.96107 203.4883 361.23655 205.4464 357.51206 172.04349 353.78755 171.60755 350.06306 180.02675 346.33854 164.38362 342.61405 146.7136 338.88954 174.5344 335.16505 136.61171 331.44053 145.32773 327.71604 111.30083 323.99153 98.155498 320.26704 82.35034 316.5425 66.3424 312.81803 72.5248 309.0935 79.86574 305.36903 74.23553 301.6445 62.975107 297.92 60.16 294.1955 192.5898Z" fill="#4a5568" fill-opacity=".2"/>
<path transform="matrix(1,0,0,-1,0,253.84)" stroke-width="1" stroke-linecap="butt" stroke-linejoin="round" fill="none" stroke="#4a5568" stroke-opacity=".2" d="M294.1955 192.5898V158.5398L297.92 60.16 301.6445 59.405698 305.36903 56.388475 309.0935 54.879865 312.81803 60.16H316.5425L320.26704 60.638463 323.99153 65.44131 327.71604 58.478376 331.44053 47.120279 335.16505 125.90349 338.88954 100.3456 342.61405 78.7072 346.33854 67.21958 350.06306 142.25167 353.78755 119.75886 357.51206 162.59972 361.23655 162.1696 364.96107 172.3709 368.68556 150.10073 372.41007 190.42052 376.13456 193.51172 379.85908 168.65851 383.58357 158.00119 387.30809 207.7833 391.03257 188.78983 394.75709 211.6288 398.48158 208.5376 402.2061 208.81369H405.93058L409.6551 209.08979 413.37959 205.87651 417.1041 203.18349 420.82859 203.13315 424.5531 207.02899 428.2776 208.5376 432.00209 194.30092 435.7266 207.7833 439.45109 198.69745 443.1756 200.35906 446.9001 203.18349 450.6246 208.5376 454.3491 214.72 458.0736 207.7833 461.7981 203.18349 465.5226 208.5376 469.2471 199.264 472.97163 210.8745 476.6961 200.64447 480.42063 208.5376V214.72L476.6961 218.49153 472.97163 214.44391 469.2471 205.4464 465.5226 214.72 461.7981 213.89171 458.0736 211.3527 454.3491 214.72H450.6246L446.9001 213.89171 443.1756 216.71614 439.45109 214.25615 435.7266 211.3527 432.00209 216.59188 428.2776 214.72 424.5531 214.16782 420.82859 216.00286 417.1041 213.89171 413.37959 215.32028 409.6551 216.2286 405.93058 212.3831H402.2061L398.48158 214.72 394.75709 211.6288 391.03257 207.67737 387.30809 211.3527 383.58357 226.10121 379.85908 213.38309 376.13456 202.95549 372.41007 199.86429 368.68556 207.21129 364.96107 203.4883 361.23655 205.4464 357.51206 172.04349 353.78755 171.60755 350.06306 180.02675 346.33854 164.38362 342.61405 146.7136 338.88954 174.5344 335.16505 136.61171 331.44053 145.32773 327.71604 111.30083 323.99153 98.155498 320.26704 82.35034 316.5425 66.3424 312.81803 72.5248 309.0935 79.86574 305.36903 74.23553 301.6445 62.975107 297.92 60.16 294.1955 192.5898Z"/>
</g>
</g>
<g clip-path="url(#clip_38)">
<path transform="matrix(1,0,0,-1,0,253.84)" stroke-width=".8" stroke-linecap="square" stroke-linejoin="round" fill="none" stroke="#b0b0b0" stroke-opacity=".3" d="M294.1955 60.16V214.72"/>
</g>
<path transform="matrix(1,0,0,-1,0,253.84)" d="M294.1955 60.16V56.66"/>
<path transform="matrix(1,0,0,-1,0,253.84)" stroke-width=".8" stroke-linecap="butt" stroke-linejoin="round" fill="none" stroke="#000000" d="M294.1955 60.16V56.66"/>
<text xml:space="preserve" transform="matrix(1 0 -0 1 291.0158 208.27375)" font-size="10" font-family="DejaVuSans"><tspan y="0" x="0">0</tspan></text>
<g clip-path="url(#clip_39)">
<path transform="matrix(1,0,0,-1,0,253.84)" stroke-width=".8" stroke-linecap="square" stroke-linejoin="round" fill="none" stroke="#b0b0b0" stroke-opacity=".3" d="M331.44053 60.16V214.72"/>
</g>
<path transform="matrix(1,0,0,-1,0,253.84)" d="M331.44053 60.16V56.66"/>
<path transform="matrix(1,0,0,-1,0,253.84)" stroke-width=".8" stroke-linecap="butt" stroke-linejoin="round" fill="none" stroke="#000000" d="M331.44053 60.16V56.66"/>
<text xml:space="preserve" transform="matrix(1 0 -0 1 321.90147 208.27375)" font-size="10" font-family="DejaVuSans"><tspan y="0" x="0 6.3600008 12.720001">100</tspan></text>
<g clip-path="url(#clip_40)">
<path transform="matrix(1,0,0,-1,0,253.84)" stroke-width=".8" stroke-linecap="square" stroke-linejoin="round" fill="none" stroke="#b0b0b0" stroke-opacity=".3" d="M368.68556 60.16V214.72"/>
</g>
<path transform="matrix(1,0,0,-1,0,253.84)" d="M368.68556 60.16V56.66"/>
<path transform="matrix(1,0,0,-1,0,253.84)" stroke-width=".8" stroke-linecap="butt" stroke-linejoin="round" fill="none" stroke="#000000" d="M368.68556 60.16V56.66"/>
<text xml:space="preserve" transform="matrix(1 0 -0 1 359.14649 208.27375)" font-size="10" font-family="DejaVuSans"><tspan y="0" x="0 6.3600008 12.720001">200</tspan></text>
<g clip-path="url(#clip_41)">
<path transform="matrix(1,0,0,-1,0,253.84)" stroke-width=".8" stroke-linecap="square" stroke-linejoin="round" fill="none" stroke="#b0b0b0" stroke-opacity=".3" d="M405.93058 60.16V214.72"/>
</g>
<path transform="matrix(1,0,0,-1,0,253.84)" d="M405.93058 60.16V56.66"/>
<path transform="matrix(1,0,0,-1,0,253.84)" stroke-width=".8" stroke-linecap="butt" stroke-linejoin="round" fill="none" stroke="#000000" d="M405.93058 60.16V56.66"/>
<text xml:space="preserve" transform="matrix(1 0 -0 1 396.3915 208.27375)" font-size="10" font-family="DejaVuSans"><tspan y="0" x="0 6.3600008 12.720001">300</tspan></text>
<g clip-path="url(#clip_42)">
<path transform="matrix(1,0,0,-1,0,253.84)" stroke-width=".8" stroke-linecap="square" stroke-linejoin="round" fill="none" stroke="#b0b0b0" stroke-opacity=".3" d="M443.1756 60.16V214.72"/>
</g>
<path transform="matrix(1,0,0,-1,0,253.84)" d="M443.1756 60.16V56.66"/>
<path transform="matrix(1,0,0,-1,0,253.84)" stroke-width=".8" stroke-linecap="butt" stroke-linejoin="round" fill="none" stroke="#000000" d="M443.1756 60.16V56.66"/>
<text xml:space="preserve" transform="matrix(1 0 -0 1 433.63655 208.27375)" font-size="10" font-family="DejaVuSans"><tspan y="0" x="0 6.3600008 12.720001">400</tspan></text>
<g clip-path="url(#clip_43)">
<path transform="matrix(1,0,0,-1,0,253.84)" stroke-width=".8" stroke-linecap="square" stroke-linejoin="round" fill="none" stroke="#b0b0b0" stroke-opacity=".3" d="M480.42063 60.16V214.72"/>
</g>
<path transform="matrix(1,0,0,-1,0,253.84)" d="M480.42063 60.16V56.66"/>
<path transform="matrix(1,0,0,-1,0,253.84)" stroke-width=".8" stroke-linecap="butt" stroke-linejoin="round" fill="none" stroke="#000000" d="M480.42063 60.16V56.66"/>
<text xml:space="preserve" transform="matrix(1 0 -0 1 470.88157 208.27375)" font-size="10" font-family="DejaVuSans"><tspan y="0" x="0 6.3600008 12.720001">500</tspan></text>
<text xml:space="preserve" transform="matrix(1 0 -0 1 310.3862 222.71125)" font-size="11" font-family="DejaVuSans"><tspan y="0" x="0 6.952 13.926001 20.438 23.496 27.782626 34.514627 41.488626 52.202627 58.967626 65.94163 70.25363 73.75163 80.73663 85.04863 91.81363 98.79863 104.52963 108.02763 112.317638 121.53564 128.53163 135.52764 142.52364 149.51964">Environment Steps (&#x00d7;1000)</tspan></text>
<g clip-path="url(#clip_44)">
<path transform="matrix(1,0,0,-1,0,253.84)" stroke-width=".8" stroke-linecap="square" stroke-linejoin="round" fill="none" stroke="#b0b0b0" stroke-opacity=".3" d="M284.88426 60.16H489.73188"/>
</g>
<path transform="matrix(1,0,0,-1,0,253.84)" d="M284.88426 60.16H281.38426"/>
<path transform="matrix(1,0,0,-1,0,253.84)" stroke-width=".8" stroke-linecap="butt" stroke-linejoin="round" fill="none" stroke="#000000" d="M284.88426 60.16H281.38426"/>
<text xml:space="preserve" transform="matrix(1 0 -0 1 261.978 197.47687)" font-size="10" font-family="DejaVuSans"><tspan y="0" x="0 6.3600008 9.540001">0.0</tspan></text>
<g clip-path="url(#clip_45)">
<path transform="matrix(1,0,0,-1,0,253.84)" stroke-width=".8" stroke-linecap="square" stroke-linejoin="round" fill="none" stroke="#b0b0b0" stroke-opacity=".3" d="M284.88426 91.072H489.73188"/>
</g>
<path transform="matrix(1,0,0,-1,0,253.84)" d="M284.88426 91.072H281.38426"/>
<path transform="matrix(1,0,0,-1,0,253.84)" stroke-width=".8" stroke-linecap="butt" stroke-linejoin="round" fill="none" stroke="#000000" d="M284.88426 91.072H281.38426"/>
<text xml:space="preserve" transform="matrix(1 0 -0 1 261.978 166.56488)" font-size="10" font-family="DejaVuSans"><tspan y="0" x="0 6.3600008 9.540001">0.2</tspan></text>
<g clip-path="url(#clip_46)">
<path transform="matrix(1,0,0,-1,0,253.84)" stroke-width=".8" stroke-linecap="square" stroke-linejoin="round" fill="none" stroke="#b0b0b0" stroke-opacity=".3" d="M284.88426 121.984H489.73188"/>
</g>
<path transform="matrix(1,0,0,-1,0,253.84)" d="M284.88426 121.984H281.38426"/>
<path transform="matrix(1,0,0,-1,0,253.84)" stroke-width=".8" stroke-linecap="butt" stroke-linejoin="round" fill="none" stroke="#000000" d="M284.88426 121.984H281.38426"/>
<text xml:space="preserve" transform="matrix(1 0 -0 1 261.978 135.65287)" font-size="10" font-family="DejaVuSans"><tspan y="0" x="0 6.3600008 9.540001">0.4</tspan></text>
<g clip-path="url(#clip_47)">
<path transform="matrix(1,0,0,-1,0,253.84)" stroke-width=".8" stroke-linecap="square" stroke-linejoin="round" fill="none" stroke="#b0b0b0" stroke-opacity=".3" d="M284.88426 152.896H489.73188"/>
</g>
<path transform="matrix(1,0,0,-1,0,253.84)" d="M284.88426 152.896H281.38426"/>
<path transform="matrix(1,0,0,-1,0,253.84)" stroke-width=".8" stroke-linecap="butt" stroke-linejoin="round" fill="none" stroke="#000000" d="M284.88426 152.896H281.38426"/>
<text xml:space="preserve" transform="matrix(1 0 -0 1 261.978 104.740879)" font-size="10" font-family="DejaVuSans"><tspan y="0" x="0 6.3600008 9.540001">0.6</tspan></text>
<g clip-path="url(#clip_48)">
<path transform="matrix(1,0,0,-1,0,253.84)" stroke-width=".8" stroke-linecap="square" stroke-linejoin="round" fill="none" stroke="#b0b0b0" stroke-opacity=".3" d="M284.88426 183.808H489.73188"/>
</g>
<path transform="matrix(1,0,0,-1,0,253.84)" d="M284.88426 183.808H281.38426"/>
<path transform="matrix(1,0,0,-1,0,253.84)" stroke-width=".8" stroke-linecap="butt" stroke-linejoin="round" fill="none" stroke="#000000" d="M284.88426 183.808H281.38426"/>
<text xml:space="preserve" transform="matrix(1 0 -0 1 261.978 73.82887)" font-size="10" font-family="DejaVuSans"><tspan y="0" x="0 6.3600008 9.540001">0.8</tspan></text>
<g clip-path="url(#clip_49)">
<path transform="matrix(1,0,0,-1,0,253.84)" stroke-width=".8" stroke-linecap="square" stroke-linejoin="round" fill="none" stroke="#b0b0b0" stroke-opacity=".3" d="M284.88426 214.72H489.73188"/>
</g>
<path transform="matrix(1,0,0,-1,0,253.84)" d="M284.88426 214.72H281.38426"/>
<path transform="matrix(1,0,0,-1,0,253.84)" stroke-width=".8" stroke-linecap="butt" stroke-linejoin="round" fill="none" stroke="#000000" d="M284.88426 214.72H281.38426"/>
<text xml:space="preserve" transform="matrix(1 0 -0 1 261.978 42.91687)" font-size="10" font-family="DejaVuSans"><tspan y="0" x="0 6.3600008 9.540001">1.0</tspan></text>
<g clip-path="url(#clip_50)">
<path transform="matrix(1,0,0,-1,0,253.84)" stroke-width="2" stroke-linecap="square" stroke-linejoin="round" fill="none" stroke="#9b8afb" d="M294.1955 172.9888 297.92 60.9328H301.6445 305.36903 309.0935L312.81803 60.6752H316.5425L320.26704 60.9328H323.99153L327.71604 60.6752 331.44053 63.2512 335.16505 66.8576 338.88954 61.1904 342.61405 60.9328H346.33854L350.06306 64.7968 353.78755 66.3424 357.51206 75.616 361.23655 67.3728 364.96107 73.04 368.68556 72.5248 372.41007 66.8576 376.13456 64.2816 379.85908 78.7072 383.58357 76.1312 387.30809 89.5264 391.03257 65.8272 394.75709 77.6768 398.48158 89.0112 402.2061 88.496 405.93058 65.8272 409.6551 64.2816H413.37959L417.1041 63.2512 420.82859 60.6752 424.5531 61.1904 428.2776 60.9328 432.00209 73.5552 435.7266 60.9328 439.45109 72.5248 443.1756 60.9328H446.9001 450.6246L454.3491 68.9184 458.0736 65.312 461.7981 60.9328 465.5226 61.7056 469.2471 63.7664 472.97163 60.9328 476.6961 65.312 480.42063 74.5856"/>
<g clip-path="url(#clip_51)">
<path transform="matrix(1,0,0,-1,294.1955,80.8512)" d="M0-2C.530406-2 1.03916-1.789267 1.414214-1.414214 1.789267-1.03916 2-.530406 2 0 2 .530406 1.789267 1.03916 1.414214 1.414214 1.03916 1.789267 .530406 2 0 2-.530406 2-1.03916 1.789267-1.414214 1.414214-1.789267 1.03916-2 .530406-2 0-2-.530406-1.789267-1.03916-1.414214-1.414214-1.03916-1.789267-.530406-2 0-2Z" fill="#9b8afb"/>
<path transform="matrix(1,0,0,-1,294.1955,80.8512)" stroke-width="1" stroke-linecap="butt" stroke-linejoin="round" fill="none" stroke="#9b8afb" d="M0-2C.530406-2 1.03916-1.789267 1.414214-1.414214 1.789267-1.03916 2-.530406 2 0 2 .530406 1.789267 1.03916 1.414214 1.414214 1.03916 1.789267 .530406 2 0 2-.530406 2-1.03916 1.789267-1.414214 1.414214-1.789267 1.03916-2 .530406-2 0-2-.530406-1.789267-1.03916-1.414214-1.414214-1.03916-1.789267-.530406-2 0-2Z"/>
</g>
<g clip-path="url(#clip_52)">
<path transform="matrix(1,0,0,-1,331.44053,190.5888)" d="M0-2C.530406-2 1.03916-1.789267 1.414214-1.414214 1.789267-1.03916 2-.530406 2 0 2 .530406 1.789267 1.03916 1.414214 1.414214 1.03916 1.789267 .530406 2 0 2-.530406 2-1.03916 1.789267-1.414214 1.414214-1.789267 1.03916-2 .530406-2 0-2-.530406-1.789267-1.03916-1.414214-1.414214-1.03916-1.789267-.530406-2 0-2Z" fill="#9b8afb"/>
<path transform="matrix(1,0,0,-1,331.44053,190.5888)" stroke-width="1" stroke-linecap="butt" stroke-linejoin="round" fill="none" stroke="#9b8afb" d="M0-2C.530406-2 1.03916-1.789267 1.414214-1.414214 1.789267-1.03916 2-.530406 2 0 2 .530406 1.789267 1.03916 1.414214 1.414214 1.03916 1.789267 .530406 2 0 2-.530406 2-1.03916 1.789267-1.414214 1.414214-1.789267 1.03916-2 .530406-2 0-2-.530406-1.789267-1.03916-1.414214-1.414214-1.03916-1.789267-.530406-2 0-2Z"/>
</g>
<g clip-path="url(#clip_53)">
<path transform="matrix(1,0,0,-1,368.68556,181.3152)" d="M0-2C.530406-2 1.03916-1.789267 1.414214-1.414214 1.789267-1.03916 2-.530406 2 0 2 .530406 1.789267 1.03916 1.414214 1.414214 1.03916 1.789267 .530406 2 0 2-.530406 2-1.03916 1.789267-1.414214 1.414214-1.789267 1.03916-2 .530406-2 0-2-.530406-1.789267-1.03916-1.414214-1.414214-1.03916-1.789267-.530406-2 0-2Z" fill="#9b8afb"/>
<path transform="matrix(1,0,0,-1,368.68556,181.3152)" stroke-width="1" stroke-linecap="butt" stroke-linejoin="round" fill="none" stroke="#9b8afb" d="M0-2C.530406-2 1.03916-1.789267 1.414214-1.414214 1.789267-1.03916 2-.530406 2 0 2 .530406 1.789267 1.03916 1.414214 1.414214 1.03916 1.789267 .530406 2 0 2-.530406 2-1.03916 1.789267-1.414214 1.414214-1.789267 1.03916-2 .530406-2 0-2-.530406-1.789267-1.03916-1.414214-1.414214-1.03916-1.789267-.530406-2 0-2Z"/>
</g>
<g clip-path="url(#clip_54)">
<path transform="matrix(1,0,0,-1,405.93058,188.0128)" d="M0-2C.530406-2 1.03916-1.789267 1.414214-1.414214 1.789267-1.03916 2-.530406 2 0 2 .530406 1.789267 1.03916 1.414214 1.414214 1.03916 1.789267 .530406 2 0 2-.530406 2-1.03916 1.789267-1.414214 1.414214-1.789267 1.03916-2 .530406-2 0-2-.530406-1.789267-1.03916-1.414214-1.414214-1.03916-1.789267-.530406-2 0-2Z" fill="#9b8afb"/>
<path transform="matrix(1,0,0,-1,405.93058,188.0128)" stroke-width="1" stroke-linecap="butt" stroke-linejoin="round" fill="none" stroke="#9b8afb" d="M0-2C.530406-2 1.03916-1.789267 1.414214-1.414214 1.789267-1.03916 2-.530406 2 0 2 .530406 1.789267 1.03916 1.414214 1.414214 1.03916 1.789267 .530406 2 0 2-.530406 2-1.03916 1.789267-1.414214 1.414214-1.789267 1.03916-2 .530406-2 0-2-.530406-1.789267-1.03916-1.414214-1.414214-1.03916-1.789267-.530406-2 0-2Z"/>
</g>
<g clip-path="url(#clip_55)">
<path transform="matrix(1,0,0,-1,443.1756,192.9072)" d="M0-2C.530406-2 1.03916-1.789267 1.414214-1.414214 1.789267-1.03916 2-.530406 2 0 2 .530406 1.789267 1.03916 1.414214 1.414214 1.03916 1.789267 .530406 2 0 2-.530406 2-1.03916 1.789267-1.414214 1.414214-1.789267 1.03916-2 .530406-2 0-2-.530406-1.789267-1.03916-1.414214-1.414214-1.03916-1.789267-.530406-2 0-2Z" fill="#9b8afb"/>
<path transform="matrix(1,0,0,-1,443.1756,192.9072)" stroke-width="1" stroke-linecap="butt" stroke-linejoin="round" fill="none" stroke="#9b8afb" d="M0-2C.530406-2 1.03916-1.789267 1.414214-1.414214 1.789267-1.03916 2-.530406 2 0 2 .530406 1.789267 1.03916 1.414214 1.414214 1.03916 1.789267 .530406 2 0 2-.530406 2-1.03916 1.789267-1.414214 1.414214-1.789267 1.03916-2 .530406-2 0-2-.530406-1.789267-1.03916-1.414214-1.414214-1.03916-1.789267-.530406-2 0-2Z"/>
</g>
<g clip-path="url(#clip_56)">
<path transform="matrix(1,0,0,-1,480.42063,179.2544)" d="M0-2C.530406-2 1.03916-1.789267 1.414214-1.414214 1.789267-1.03916 2-.530406 2 0 2 .530406 1.789267 1.03916 1.414214 1.414214 1.03916 1.789267 .530406 2 0 2-.530406 2-1.03916 1.789267-1.414214 1.414214-1.789267 1.03916-2 .530406-2 0-2-.530406-1.789267-1.03916-1.414214-1.414214-1.03916-1.789267-.530406-2 0-2Z" fill="#9b8afb"/>
<path transform="matrix(1,0,0,-1,480.42063,179.2544)" stroke-width="1" stroke-linecap="butt" stroke-linejoin="round" fill="none" stroke="#9b8afb" d="M0-2C.530406-2 1.03916-1.789267 1.414214-1.414214 1.789267-1.03916 2-.530406 2 0 2 .530406 1.789267 1.03916 1.414214 1.414214 1.03916 1.789267 .530406 2 0 2-.530406 2-1.03916 1.789267-1.414214 1.414214-1.789267 1.03916-2 .530406-2 0-2-.530406-1.789267-1.03916-1.414214-1.414214-1.03916-1.789267-.530406-2 0-2Z"/>
</g>
</g>
<g clip-path="url(#clip_57)">
<path transform="matrix(1,0,0,-1,0,253.84)" stroke-width="2" stroke-linecap="butt" stroke-dasharray="7.4,3.2" stroke-linejoin="round" fill="none" stroke="#7db8ff" d="M294.1955 178.1408 297.92 60.9328 301.6445 67.3728 305.36903 85.92 309.0935 60.6752 312.81803 79.7376 316.5425 78.192 320.26704 111.68 323.99153 89.0112 327.71604 116.3168 331.44053 90.5568 335.16505 117.8624 338.88954 101.376 342.61405 104.4672 346.33854 116.3168 350.06306 78.7072 353.78755 84.3744 357.51206 124.0448 361.23655 131.2576 364.96107 119.408 368.68556 147.2288 372.41007 168.352 376.13456 157.0176 379.85908 166.2912 383.58357 186.384 387.30809 171.4432 391.03257 148.2592 394.75709 167.3216 398.48158 156.5024 402.2061 161.1392 405.93058 180.2016 409.6551 160.624 413.37959 187.9296 417.1041 183.2928 420.82859 141.5616 424.5531 195.1424 428.2776 184.8384 432.00209 202.8704 435.7266 200.2944 439.45109 203.9008 443.1756 200.8096 446.9001 204.416 450.6246 203.9008 454.3491 205.4464 458.0736 212.144 461.7981 210.5984 465.5226 208.5376 469.2471 206.992 472.97163 207.5072 476.6961 210.0832 480.42063 212.144"/>
<g clip-path="url(#clip_58)">
<path transform="matrix(1,0,0,-1,294.1955,75.6992)" d="M-2-2H2V2H-2Z" fill="#7db8ff"/>
<path transform="matrix(1,0,0,-1,294.1955,75.6992)" stroke-width="1" stroke-linecap="butt" stroke-miterlimit="10" stroke-linejoin="miter" fill="none" stroke="#7db8ff" d="M-2-2H2V2H-2Z"/>
</g>
<g clip-path="url(#clip_59)">
<path transform="matrix(1,0,0,-1,331.44053,163.2832)" d="M-2-2H2V2H-2Z" fill="#7db8ff"/>
<path transform="matrix(1,0,0,-1,331.44053,163.2832)" stroke-width="1" stroke-linecap="butt" stroke-miterlimit="10" stroke-linejoin="miter" fill="none" stroke="#7db8ff" d="M-2-2H2V2H-2Z"/>
</g>
<g clip-path="url(#clip_60)">
<path transform="matrix(1,0,0,-1,368.68556,106.611209)" d="M-2-2H2V2H-2Z" fill="#7db8ff"/>
<path transform="matrix(1,0,0,-1,368.68556,106.611209)" stroke-width="1" stroke-linecap="butt" stroke-miterlimit="10" stroke-linejoin="miter" fill="none" stroke="#7db8ff" d="M-2-2H2V2H-2Z"/>
</g>
<g clip-path="url(#clip_61)">
<path transform="matrix(1,0,0,-1,405.93058,73.638408)" d="M-2-2H2V2H-2Z" fill="#7db8ff"/>
<path transform="matrix(1,0,0,-1,405.93058,73.638408)" stroke-width="1" stroke-linecap="butt" stroke-miterlimit="10" stroke-linejoin="miter" fill="none" stroke="#7db8ff" d="M-2-2H2V2H-2Z"/>
</g>
<g clip-path="url(#clip_62)">
<path transform="matrix(1,0,0,-1,443.1756,53.030405)" d="M-2-2H2V2H-2Z" fill="#7db8ff"/>
<path transform="matrix(1,0,0,-1,443.1756,53.030405)" stroke-width="1" stroke-linecap="butt" stroke-miterlimit="10" stroke-linejoin="miter" fill="none" stroke="#7db8ff" d="M-2-2H2V2H-2Z"/>
</g>
<g clip-path="url(#clip_63)">
<path transform="matrix(1,0,0,-1,480.42063,41.696004)" d="M-2-2H2V2H-2Z" fill="#7db8ff"/>
<path transform="matrix(1,0,0,-1,480.42063,41.696004)" stroke-width="1" stroke-linecap="butt" stroke-miterlimit="10" stroke-linejoin="miter" fill="none" stroke="#7db8ff" d="M-2-2H2V2H-2Z"/>
</g>
</g>
<g clip-path="url(#clip_64)">
<path transform="matrix(1,0,0,-1,0,253.84)" stroke-width="2" stroke-linecap="butt" stroke-dasharray="12.8,3.2,2,3.2" stroke-linejoin="round" fill="none" stroke="#63c29d" d="M294.1955 175.5648 297.92 60.9328 301.6445 64.2816 305.36903 72.5248 309.0935 92.1024 312.81803 78.192 316.5425 108.0736 320.26704 125.5904 323.99153 137.44 327.71604 121.4688 331.44053 158.048 335.16505 141.0464 338.88954 136.9248 342.61405 136.4096 346.33854 149.8048 350.06306 140.5312 353.78755 154.9568 357.51206 170.4128 361.23655 191.0208 364.96107 178.656 368.68556 188.96 372.41007 197.7184 376.13456 183.2928 379.85908 192.5664 383.58357 196.688 387.30809 201.3248 391.03257 202.8704 394.75709 199.264 398.48158 208.0224 402.2061 204.416 405.93058 206.992 409.6551 206.4768 413.37959 209.568 417.1041 206.4768 420.82859 211.1136 424.5531 208.0224 428.2776 211.1136 432.00209 207.5072 435.7266 211.1136 439.45109 206.4768 443.1756 212.6592 446.9001 210.5984 450.6246 210.0832 454.3491 211.1136 458.0736 212.6592 461.7981 206.4768 465.5226 209.0528 469.2471 213.6896H472.97163L476.6961 212.6592 480.42063 200.8096"/>
<g clip-path="url(#clip_65)">
<path transform="matrix(1,0,0,-1,294.1955,78.27519)" d="M0 2-2-2H2Z" fill="#63c29d"/>
<path transform="matrix(1,0,0,-1,294.1955,78.27519)" stroke-width="1" stroke-linecap="butt" stroke-miterlimit="10" stroke-linejoin="miter" fill="none" stroke="#63c29d" d="M0 2-2-2H2Z"/>
</g>
<g clip-path="url(#clip_66)">
<path transform="matrix(1,0,0,-1,331.44053,95.79199)" d="M0 2-2-2H2Z" fill="#63c29d"/>
<path transform="matrix(1,0,0,-1,331.44053,95.79199)" stroke-width="1" stroke-linecap="butt" stroke-miterlimit="10" stroke-linejoin="miter" fill="none" stroke="#63c29d" d="M0 2-2-2H2Z"/>
</g>
<g clip-path="url(#clip_67)">
<path transform="matrix(1,0,0,-1,368.68556,64.87999)" d="M0 2-2-2H2Z" fill="#63c29d"/>
<path transform="matrix(1,0,0,-1,368.68556,64.87999)" stroke-width="1" stroke-linecap="butt" stroke-miterlimit="10" stroke-linejoin="miter" fill="none" stroke="#63c29d" d="M0 2-2-2H2Z"/>
</g>
<g clip-path="url(#clip_68)">
<path transform="matrix(1,0,0,-1,405.93058,46.847993)" d="M0 2-2-2H2Z" fill="#63c29d"/>
<path transform="matrix(1,0,0,-1,405.93058,46.847993)" stroke-width="1" stroke-linecap="butt" stroke-miterlimit="10" stroke-linejoin="miter" fill="none" stroke="#63c29d" d="M0 2-2-2H2Z"/>
</g>
<g clip-path="url(#clip_69)">
<path transform="matrix(1,0,0,-1,443.1756,41.180795)" d="M0 2-2-2H2Z" fill="#63c29d"/>
<path transform="matrix(1,0,0,-1,443.1756,41.180795)" stroke-width="1" stroke-linecap="butt" stroke-miterlimit="10" stroke-linejoin="miter" fill="none" stroke="#63c29d" d="M0 2-2-2H2Z"/>
</g>
<g clip-path="url(#clip_70)">
<path transform="matrix(1,0,0,-1,480.42063,53.030397)" d="M0 2-2-2H2Z" fill="#63c29d"/>
<path transform="matrix(1,0,0,-1,480.42063,53.030397)" stroke-width="1" stroke-linecap="butt" stroke-miterlimit="10" stroke-linejoin="miter" fill="none" stroke="#63c29d" d="M0 2-2-2H2Z"/>
</g>
</g>
<g clip-path="url(#clip_71)">
<path transform="matrix(1,0,0,-1,0,253.84)" stroke-width="2" stroke-linecap="butt" stroke-dasharray="7.4,3.2" stroke-linejoin="round" fill="none" stroke="#4a5568" d="M294.1955 175.5648 297.92 60.9328 301.6445 61.1904 305.36903 65.312 309.0935 67.3728 312.81803 66.3424 316.5425 63.2512 320.26704 71.4944 323.99153 81.7984 327.71604 84.8896 331.44053 96.224 335.16505 131.2576 338.88954 137.44 342.61405 112.7104 346.33854 115.8016 350.06306 161.1392 353.78755 145.6832 357.51206 167.3216 361.23655 183.808 364.96107 187.9296 368.68556 178.656 372.41007 195.1424 376.13456 198.2336 379.85908 191.0208 383.58357 192.0512 387.30809 209.568 391.03257 198.2336 394.75709 211.6288H398.48158L402.2061 210.5984H405.93058L409.6551 212.6592 413.37959 210.5984 417.1041 208.5376 420.82859 209.568 424.5531 210.5984 428.2776 211.6288 432.00209 205.4464 435.7266 209.568 439.45109 206.4768 443.1756 208.5376H446.9001L450.6246 211.6288 454.3491 214.72 458.0736 209.568 461.7981 208.5376 465.5226 211.6288 469.2471 202.3552 472.97163 212.6592 476.6961 209.568 480.42063 211.6288"/>
<g clip-path="url(#clip_72)">
<path transform="matrix(1,0,0,-1,294.1955,78.27519)" d="M-.666667-2H.666667V-.666667H2V.666667H.666667V2H-.666667V.666667H-2V-.666667H-.666667Z" fill="#4a5568"/>
<path transform="matrix(1,0,0,-1,294.1955,78.27519)" stroke-width="1" stroke-linecap="butt" stroke-miterlimit="10" stroke-linejoin="miter" fill="none" stroke="#4a5568" d="M-.666667-2H.666667V-.666667H2V.666667H.666667V2H-.666667V.666667H-2V-.666667H-.666667Z"/>
</g>
<g clip-path="url(#clip_73)">
<path transform="matrix(1,0,0,-1,331.44053,157.616)" d="M-.666667-2H.666667V-.666667H2V.666667H.666667V2H-.666667V.666667H-2V-.666667H-.666667Z" fill="#4a5568"/>
<path transform="matrix(1,0,0,-1,331.44053,157.616)" stroke-width="1" stroke-linecap="butt" stroke-miterlimit="10" stroke-linejoin="miter" fill="none" stroke="#4a5568" d="M-.666667-2H.666667V-.666667H2V.666667H.666667V2H-.666667V.666667H-2V-.666667H-.666667Z"/>
</g>
<g clip-path="url(#clip_74)">
<path transform="matrix(1,0,0,-1,368.68556,75.184)" d="M-.666667-2H.666667V-.666667H2V.666667H.666667V2H-.666667V.666667H-2V-.666667H-.666667Z" fill="#4a5568"/>
<path transform="matrix(1,0,0,-1,368.68556,75.184)" stroke-width="1" stroke-linecap="butt" stroke-miterlimit="10" stroke-linejoin="miter" fill="none" stroke="#4a5568" d="M-.666667-2H.666667V-.666667H2V.666667H.666667V2H-.666667V.666667H-2V-.666667H-.666667Z"/>
</g>
<g clip-path="url(#clip_75)">
<path transform="matrix(1,0,0,-1,405.93058,43.2416)" d="M-.666667-2H.666667V-.666667H2V.666667H.666667V2H-.666667V.666667H-2V-.666667H-.666667Z" fill="#4a5568"/>
<path transform="matrix(1,0,0,-1,405.93058,43.2416)" stroke-width="1" stroke-linecap="butt" stroke-miterlimit="10" stroke-linejoin="miter" fill="none" stroke="#4a5568" d="M-.666667-2H.666667V-.666667H2V.666667H.666667V2H-.666667V.666667H-2V-.666667H-.666667Z"/>
</g>
<g clip-path="url(#clip_76)">
<path transform="matrix(1,0,0,-1,443.1756,45.3024)" d="M-.666667-2H.666667V-.666667H2V.666667H.666667V2H-.666667V.666667H-2V-.666667H-.666667Z" fill="#4a5568"/>
<path transform="matrix(1,0,0,-1,443.1756,45.3024)" stroke-width="1" stroke-linecap="butt" stroke-miterlimit="10" stroke-linejoin="miter" fill="none" stroke="#4a5568" d="M-.666667-2H.666667V-.666667H2V.666667H.666667V2H-.666667V.666667H-2V-.666667H-.666667Z"/>
</g>
<g clip-path="url(#clip_77)">
<path transform="matrix(1,0,0,-1,480.42063,42.211198)" d="M-.666667-2H.666667V-.666667H2V.666667H.666667V2H-.666667V.666667H-2V-.666667H-.666667Z" fill="#4a5568"/>
<path transform="matrix(1,0,0,-1,480.42063,42.211198)" stroke-width="1" stroke-linecap="butt" stroke-miterlimit="10" stroke-linejoin="miter" fill="none" stroke="#4a5568" d="M-.666667-2H.666667V-.666667H2V.666667H.666667V2H-.666667V.666667H-2V-.666667H-.666667Z"/>
</g>
</g>
<path transform="matrix(1,0,0,-1,0,253.84)" stroke-width=".8" stroke-linecap="square" stroke-miterlimit="10" stroke-linejoin="miter" fill="none" stroke="#000000" d="M284.88426 60.16V214.72"/>
<path transform="matrix(1,0,0,-1,0,253.84)" stroke-width=".8" stroke-linecap="square" stroke-miterlimit="10" stroke-linejoin="miter" fill="none" stroke="#000000" d="M489.73188 60.16V214.72"/>
<path transform="matrix(1,0,0,-1,0,253.84)" stroke-width=".8" stroke-linecap="square" stroke-miterlimit="10" stroke-linejoin="miter" fill="none" stroke="#000000" d="M284.88426 60.16H489.73188"/>
<path transform="matrix(1,0,0,-1,0,253.84)" stroke-width=".8" stroke-linecap="square" stroke-miterlimit="10" stroke-linejoin="miter" fill="none" stroke="#000000" d="M284.88426 214.72H489.73188"/>
<text xml:space="preserve" transform="matrix(1 0 -0 1 365.65184 33.119997)" font-size="12" font-family="DejaVuSansMono"><tspan y="0" x="0 7.224001 14.448002 21.672003 28.896004 36.120004">Coffee</tspan></text>
<text xml:space="preserve" transform="matrix(1 0 -0 1 182.03188 18.199997)" font-size="14" font-family="DejaVuSans" font-style="italic"><tspan y="-.359375" x="0">n</tspan></text>
<text xml:space="preserve" transform="matrix(1 0 -0 1 182.03188 18.199997)" font-size="14" font-family="DejaVuSans"><tspan y="-.359375" x="8.873047 13.924805 21.21875 26.708008 35.32129 44.208009 48.658205 58.433595 66.99902 80.63672 89.52344 98.10254 103.8584 107.74805 115.04199 123.60742">-step Comparison</tspan></text>
<path transform="matrix(1,0,0,-1,0,253.84)" stroke-width="2" stroke-linecap="square" stroke-linejoin="round" fill="none" stroke="#9b8afb" d="M69.875629 16.778126H79.875629 89.875629"/>
<path transform="matrix(1,0,0,-1,0,253.84)" d="M79.875629 14.778125C80.40603 14.778125 80.91479 14.988858 81.28984 15.363911 81.664897 15.738965 81.875629 16.247719 81.875629 16.778126 81.875629 17.30853 81.664897 17.817286 81.28984 18.192339 80.91479 18.567393 80.40603 18.778126 79.875629 18.778126 79.34522 18.778126 78.836467 18.567393 78.46141 18.192339 78.08636 17.817286 77.875629 17.30853 77.875629 16.778126 77.875629 16.247719 78.08636 15.738965 78.46141 15.363911 78.836467 14.988858 79.34522 14.778125 79.875629 14.778125Z" fill="#9b8afb"/>
<path transform="matrix(1,0,0,-1,0,253.84)" stroke-width="1" stroke-linecap="butt" stroke-linejoin="round" fill="none" stroke="#9b8afb" d="M79.875629 14.778125C80.40603 14.778125 80.91479 14.988858 81.28984 15.363911 81.664897 15.738965 81.875629 16.247719 81.875629 16.778126 81.875629 17.30853 81.664897 17.817286 81.28984 18.192339 80.91479 18.567393 80.40603 18.778126 79.875629 18.778126 79.34522 18.778126 78.836467 18.567393 78.46141 18.192339 78.08636 17.817286 77.875629 17.30853 77.875629 16.778126 77.875629 16.247719 78.08636 15.738965 78.46141 15.363911 78.836467 14.988858 79.34522 14.778125 79.875629 14.778125Z"/>
<text xml:space="preserve" transform="matrix(1 0 -0 1 97.875629 240.56188)" font-size="10" font-family="DejaVuSans"><tspan y="0" x="0 6.34 9.950001 15.160001 19.080002 25.230002 31.580002 39.960004">n-step=1</tspan></text>
<path transform="matrix(1,0,0,-1,0,253.84)" stroke-width="2" stroke-linecap="butt" stroke-dasharray="7.4,3.2" stroke-linejoin="round" fill="none" stroke="#7db8ff" d="M164.20375 16.778126H174.20375 184.20375"/>
<path transform="matrix(1,0,0,-1,0,253.84)" d="M172.20375 14.778125H176.20375V18.778126H172.20375Z" fill="#7db8ff"/>
<path transform="matrix(1,0,0,-1,0,253.84)" stroke-width="1" stroke-linecap="butt" stroke-miterlimit="10" stroke-linejoin="miter" fill="none" stroke="#7db8ff" d="M172.20375 14.778125H176.20375V18.778126H172.20375Z"/>
<text xml:space="preserve" transform="matrix(1 0 -0 1 192.20375 240.56188)" font-size="10" font-family="DejaVuSans"><tspan y="0" x="0 6.34 9.950001 15.160001 19.080002 25.230002 31.580002 39.960004">n-step=3</tspan></text>
<path transform="matrix(1,0,0,-1,0,253.84)" stroke-width="2" stroke-linecap="butt" stroke-dasharray="12.8,3.2,2,3.2" stroke-linejoin="round" fill="none" stroke="#63c29d" d="M258.53187 16.778126H268.53187 278.53187"/>
<path transform="matrix(1,0,0,-1,0,253.84)" d="M268.53187 18.778126 266.53187 14.778125H270.53187Z" fill="#63c29d"/>
<path transform="matrix(1,0,0,-1,0,253.84)" stroke-width="1" stroke-linecap="butt" stroke-miterlimit="10" stroke-linejoin="miter" fill="none" stroke="#63c29d" d="M268.53187 18.778126 266.53187 14.778125H270.53187Z"/>
<text xml:space="preserve" transform="matrix(1 0 -0 1 286.53187 240.56188)" font-size="10" font-family="DejaVuSans"><tspan y="0" x="0 6.34 9.950001 15.160001 19.080002 25.230002 31.580002 39.960004">n-step=5</tspan></text>
<path transform="matrix(1,0,0,-1,0,253.84)" stroke-width="2" stroke-linecap="butt" stroke-dasharray="7.4,3.2" stroke-linejoin="round" fill="none" stroke="#4a5568" d="M352.86 16.778126H362.86 372.86"/>
<path transform="matrix(1,0,0,-1,0,253.84)" d="M362.19334 14.778125H363.52668V16.111458H364.86V17.444792H363.52668V18.778126H362.19334V17.444792H360.86V16.111458H362.19334Z" fill="#4a5568"/>
<path transform="matrix(1,0,0,-1,0,253.84)" stroke-width="1" stroke-linecap="butt" stroke-miterlimit="10" stroke-linejoin="miter" fill="none" stroke="#4a5568" d="M362.19334 14.778125H363.52668V16.111458H364.86V17.444792H363.52668V18.778126H362.19334V17.444792H360.86V16.111458H362.19334Z"/>
<text xml:space="preserve" transform="matrix(1 0 -0 1 380.86 240.56188)" font-size="10" font-family="DejaVuSans"><tspan y="0" x="0 6.34 9.950001 15.160001 19.080002 25.230002 31.580002 39.960004">n-step=9</tspan></text>
</svg>
