<svg xmlns="http://www.w3.org/2000/svg" xmlns:xlink="http://www.w3.org/1999/xlink" xmlns:inkscape="http://www.inkscape.org/namespaces/inkscape" version="1.1" width="244.93187" height="244.42" viewBox="0 0 244.93187 244.42">
<defs>
<clipPath id="clip_0">
<path transform="matrix(1,0,0,-1,0,244.42)" d="M44.746877 38.5125H237.73188V222.0325H44.746877Z"/>
</clipPath>
<clipPath id="clip_1">
<path transform="matrix(1,0,0,-1,0,244.42)" d="M44.746877 38.5125H237.73188V222.0325H44.746877Z"/>
</clipPath>
<clipPath id="clip_2">
<path transform="matrix(1,0,0,-1,0,244.42)" d="M44.746877 38.5125H237.73188V222.0325H44.746877Z"/>
</clipPath>
<clipPath id="clip_3">
<path transform="matrix(1,0,0,-1,0,244.42)" d="M44.746877 38.5125H237.73188V222.0325H44.746877Z"/>
</clipPath>
<clipPath id="clip_4">
<path transform="matrix(1,0,0,-1,0,244.42)" d="M44.746877 38.5125H237.73188V222.0325H44.746877Z"/>
</clipPath>
<clipPath id="clip_5">
<path transform="matrix(1,0,0,-1,0,244.42)" d="M44.746877 38.5125H237.73188V222.0325H44.746877Z"/>
</clipPath>
<clipPath id="clip_6">
<path transform="matrix(1,0,0,-1,0,244.42)" d="M44.746877 38.5125H237.73188V222.0325H44.746877Z"/>
</clipPath>
<clipPath id="clip_7">
<path transform="matrix(1,0,0,-1,0,244.42)" d="M44.746877 38.5125H237.73188V222.0325H44.746877Z"/>
</clipPath>
<clipPath id="clip_8">
<path transform="matrix(1,0,0,-1,0,244.42)" d="M44.746877 38.5125H237.73188V222.0325H44.746877Z"/>
</clipPath>
<clipPath id="clip_9">
<path transform="matrix(1,0,0,-1,0,244.42)" d="M44.746877 38.5125H237.73188V222.0325H44.746877Z"/>
</clipPath>
<clipPath id="clip_10">
<path transform="matrix(1,0,0,-1,0,244.42)" d="M44.746877 38.5125H237.73188V222.0325H44.746877Z"/>
</clipPath>
<clipPath id="clip_11">
<path transform="matrix(1,0,0,-1,0,244.42)" d="M44.746877 38.5125H237.73188V222.0325H44.746877Z"/>
</clipPath>
<clipPath id="clip_12">
<path transform="matrix(1,0,0,-1,0,244.42)" d="M44.746877 38.5125H237.73188V222.0325H44.746877Z"/>
</clipPath>
<clipPath id="clip_13">
<path transform="matrix(1,0,0,-1,0,244.42)" d="M44.746877 38.5125H237.73188V222.0325H44.746877Z"/>
</clipPath>
<clipPath id="clip_14">
<path transform="matrix(1,0,0,-1,0,244.42)" d="M44.746877 38.5125H237.73188V222.0325H44.746877Z"/>
</clipPath>
</defs>
<path transform="matrix(1,0,0,-1,0,244.42)" d="M0 0H244.93187V244.42H0Z" fill="#ffffff"/>
<path transform="matrix(1,0,0,-1,0,244.42)" d="M44.746877 38.5125H237.73188V222.0325H44.746877Z" fill="#ffffff"/>
<g clip-path="url(#clip_0)">
<g>
<path transform="matrix(1,0,0,-1,0,244.42)" d="M53.51892 105.9561V48.1473L53.539319 38.5125 53.55971 38.23722 53.58011 37.89312 53.600507 41.44882 53.620904 43.197996 53.641298 67.69218 53.661695 62.55362 53.68209 72.18842 53.702489 55.0293 53.722887 77.5105 53.74328 91.54978 53.763677 94.980197 53.784074 87.61116 53.80447 91.28862 53.824865 139.81554 53.84526 95.22018 53.865659 124.552219 53.886056 110.63586 53.90645 153.18732 53.926847 180.00643 53.947244 135.04402 53.96764 165.69187 53.988039 146.23874 54.00843 157.98403 54.028829 181.47458 54.049226 189.36594 54.069623 173.58322 54.090017 177.9877 54.110414 203.49698 54.13081 197.63153 54.151208 206.06626 54.1716 192.11875 54.191999 203.49698 54.212396 204.04755 54.23279 182.75922 54.25319 198.35842 54.273584 191.93523 54.29398 207.71794 54.314378 200.80065 54.334775 206.82913 54.355169 211.51789 54.375566 211.69185 54.39596 183.67682 54.41636 211.84714 54.436754 204.78162 54.45715 216.89394 54.477548 210.28722 54.497945 198.73986 54.51834 214.14115 54.538736 211.38834 54.55913 215.24227 54.57953 216.34339 54.599927 222.0325 54.62032 213.23793 54.640718 218.91266 54.661115 214.88962 54.68151 218.07422 54.701906 209.73667 54.7223 219.64675 54.7427 215.42578 54.763097 212.67298 54.783494 209.46872 54.803888 220.38082 54.824285 212.30594 54.84468 219.64675 54.865079 222.0325 54.88547 215.24227 54.90587 217.99506 54.926267 214.50818 54.946664 215.6093 54.96706 215.05875 54.987455 219.2797 55.00785 207.07563 55.028249 215.42578 55.048646 219.64675 55.06904 215.6093 55.089437 218.91266 55.109834 218.3621 55.13023 216.9857 55.150625 217.9033 55.17102 216.5269 55.191419 220.1973H55.211816L55.232213 222.0325H55.252607 55.273004 55.2934L55.313798 220.1973 55.2934 222.0325H55.273004 55.252607 55.232213L55.211816 220.1973H55.191419L55.17102 216.5269 55.150625 220.6561H55.13023L55.109834 222.0325 55.089437 220.74787 55.06904 221.1149 55.048646 221.48194 55.028249 222.76659 55.00785 217.16922 54.987455 221.1149 54.96706 222.39954 54.946664 221.1149 54.926267 220.01378 54.90587 221.66547 54.88547 220.74787 54.865079 222.0325 54.84468 221.48194 54.824285 217.81154 54.803888 222.21602 54.783494 218.64472 54.763097 218.17858 54.7427 219.09618 54.7223 221.48194 54.701906 218.91266 54.68151 221.67266 54.661115 220.39522 54.640718 220.74787 54.62032 220.57874 54.599927 222.0325 54.57953 221.84899 54.55913 220.74787 54.538736 218.72914 54.51834 219.64675 54.497945 222.59746 54.477548 217.62802 54.45715 220.56435 54.436754 219.46323 54.41636 218.27034 54.39596 218.54563 54.375566 219.95026 54.355169 218.71475 54.334775 219.67552 54.314378 215.48226 54.29398 218.72914 54.273584 210.28722 54.25319 218.54563 54.23279 204.78162 54.212396 215.05875 54.191999 216.34339 54.1716 208.63555 54.151208 211.57186 54.13081 210.19007 54.110414 216.34339 54.090017 207.3509 54.069623 199.27602 54.049226 207.71794 54.028829 197.99138 54.00843 192.85282 53.988039 210.47074 53.96764 211.57186 53.947244 182.75922 53.926847 200.19362 53.90645 191.9784 53.886056 163.85666 53.865659 159.45565 53.84526 148.44098 53.824865 158.16754 53.80447 116.06382 53.784074 146.33756 53.763677 142.69539 53.74328 126.41858 53.722887 113.2969 53.702489 80.7221 53.68209 102.46922 53.661695 101.09282 53.641298 91.54978 53.620904 66.539447 53.600507 56.13042 53.58011 64.50352 53.55971 40.99002 53.539319 38.5125 53.51892 105.9561Z" fill="#f16b6f" fill-opacity=".2"/>
<path transform="matrix(1,0,0,-1,0,244.42)" stroke-width="1" stroke-linecap="butt" stroke-linejoin="round" fill="none" stroke="#f16b6f" stroke-opacity=".2" d="M53.51892 105.9561V48.1473L53.539319 38.5125 53.55971 38.23722 53.58011 37.89312 53.600507 41.44882 53.620904 43.197996 53.641298 67.69218 53.661695 62.55362 53.68209 72.18842 53.702489 55.0293 53.722887 77.5105 53.74328 91.54978 53.763677 94.980197 53.784074 87.61116 53.80447 91.28862 53.824865 139.81554 53.84526 95.22018 53.865659 124.552219 53.886056 110.63586 53.90645 153.18732 53.926847 180.00643 53.947244 135.04402 53.96764 165.69187 53.988039 146.23874 54.00843 157.98403 54.028829 181.47458 54.049226 189.36594 54.069623 173.58322 54.090017 177.9877 54.110414 203.49698 54.13081 197.63153 54.151208 206.06626 54.1716 192.11875 54.191999 203.49698 54.212396 204.04755 54.23279 182.75922 54.25319 198.35842 54.273584 191.93523 54.29398 207.71794 54.314378 200.80065 54.334775 206.82913 54.355169 211.51789 54.375566 211.69185 54.39596 183.67682 54.41636 211.84714 54.436754 204.78162 54.45715 216.89394 54.477548 210.28722 54.497945 198.73986 54.51834 214.14115 54.538736 211.38834 54.55913 215.24227 54.57953 216.34339 54.599927 222.0325 54.62032 213.23793 54.640718 218.91266 54.661115 214.88962 54.68151 218.07422 54.701906 209.73667 54.7223 219.64675 54.7427 215.42578 54.763097 212.67298 54.783494 209.46872 54.803888 220.38082 54.824285 212.30594 54.84468 219.64675 54.865079 222.0325 54.88547 215.24227 54.90587 217.99506 54.926267 214.50818 54.946664 215.6093 54.96706 215.05875 54.987455 219.2797 55.00785 207.07563 55.028249 215.42578 55.048646 219.64675 55.06904 215.6093 55.089437 218.91266 55.109834 218.3621 55.13023 216.9857 55.150625 217.9033 55.17102 216.5269 55.191419 220.1973H55.211816L55.232213 222.0325H55.252607 55.273004 55.2934L55.313798 220.1973 55.2934 222.0325H55.273004 55.252607 55.232213L55.211816 220.1973H55.191419L55.17102 216.5269 55.150625 220.6561H55.13023L55.109834 222.0325 55.089437 220.74787 55.06904 221.1149 55.048646 221.48194 55.028249 222.76659 55.00785 217.16922 54.987455 221.1149 54.96706 222.39954 54.946664 221.1149 54.926267 220.01378 54.90587 221.66547 54.88547 220.74787 54.865079 222.0325 54.84468 221.48194 54.824285 217.81154 54.803888 222.21602 54.783494 218.64472 54.763097 218.17858 54.7427 219.09618 54.7223 221.48194 54.701906 218.91266 54.68151 221.67266 54.661115 220.39522 54.640718 220.74787 54.62032 220.57874 54.599927 222.0325 54.57953 221.84899 54.55913 220.74787 54.538736 218.72914 54.51834 219.64675 54.497945 222.59746 54.477548 217.62802 54.45715 220.56435 54.436754 219.46323 54.41636 218.27034 54.39596 218.54563 54.375566 219.95026 54.355169 218.71475 54.334775 219.67552 54.314378 215.48226 54.29398 218.72914 54.273584 210.28722 54.25319 218.54563 54.23279 204.78162 54.212396 215.05875 54.191999 216.34339 54.1716 208.63555 54.151208 211.57186 54.13081 210.19007 54.110414 216.34339 54.090017 207.3509 54.069623 199.27602 54.049226 207.71794 54.028829 197.99138 54.00843 192.85282 53.988039 210.47074 53.96764 211.57186 53.947244 182.75922 53.926847 200.19362 53.90645 191.9784 53.886056 163.85666 53.865659 159.45565 53.84526 148.44098 53.824865 158.16754 53.80447 116.06382 53.784074 146.33756 53.763677 142.69539 53.74328 126.41858 53.722887 113.2969 53.702489 80.7221 53.68209 102.46922 53.661695 101.09282 53.641298 91.54978 53.620904 66.539447 53.600507 56.13042 53.58011 64.50352 53.55971 40.99002 53.539319 38.5125 53.51892 105.9561Z"/>
</g>
</g>
<g clip-path="url(#clip_1)">
<g>
<path transform="matrix(1,0,0,-1,0,244.42)" d="M53.51892 172.63576V166.54825L54.354356 171.78961 55.189786 172.43308 56.02522 165.88355 56.860654 168.4272 57.696088 172.146 58.531518 176.21889 59.36695 176.46462 60.202386 179.0584 61.037817 181.14385 61.87325 180.46277 62.708684 183.15418 63.544115 180.54109 64.37955 181.18132 65.21498 181.47475 66.050418 179.16483 66.88585 193.89652 67.72128 189.7791 68.55671 185.09528 69.39214 187.30066 70.22758 194.06241 71.06301 196.52211 71.898448 186.29683 72.73388 189.72699 73.56931 190.81099 74.40474 189.44353 75.24017 189.4773 76.07561 202.50804 76.91104 198.73447 77.746479 198.50504 78.58191 196.11328 79.41734 195.87166 80.25277 194.29215 81.0882 192.7197 81.92364 194.89104 82.75907 199.7161 83.594509 197.65503 84.42994 196.79228 85.26537 202.43791 86.10081 194.76665 86.93623 202.4453 87.77167 198.6315 88.6071 198.6809 89.442539 201.75406 90.27797 204.33444 91.1134 201.65293 91.94884 202.53678 92.78426 196.46012 93.6197 203.01921 94.45513 202.22765 95.290569 197.1753 96.126 198.8275 96.96143 199.73418 97.79687 203.94519 98.63229 203.92325 99.46773 201.03008 100.30316 203.20156 101.138599 202.34336 101.97403 199.1185 102.80946 202.42168 103.6449 205.48773 104.48032 200.75148 105.31576 196.0052 106.15119 204.19982 106.986629 209.12435 107.82206 197.91172 108.65749 200.14438 109.49293 205.24497 110.32836 204.02951 111.16379 202.58103 111.99922 197.14946 112.834659 199.49729 113.67009 200.4495 114.50552 204.53044 115.34096 203.02648 116.17639 205.97386 117.01182 204.2549 117.84725 213.33119 118.682689 206.89948 119.51812 203.46642 120.35355 207.91872 121.18899 203.73619 122.02442 204.82558 122.85985 211.04694 123.69528 207.16826 124.530719 207.0077 125.36615 211.30142 126.201587 214.12216 127.03702 201.87355 127.87245 208.2317 128.70789 204.10454 129.54332 205.08176 130.37876 209.27092 131.21419 210.38368 132.0496 204.64858 132.88504 204.33324 133.72048 211.0504 134.55591 208.58324 135.39134 208.57541 136.22678 211.98912 137.06221 208.28562 137.89765 206.4613 138.73308 205.44733 139.56851 210.3302 140.40395 211.38715 141.23938 209.07073 142.07482 213.04114 142.91025 211.26654 143.74567 209.89359 144.5811 205.45355 145.41654 209.23574 146.25197 209.7403 147.0874 210.59433 147.92284 213.15766 148.75827 214.3636 149.5937 210.4745 150.42914 211.68622 151.26457 211.37419 152.1 210.04376 152.93544 207.42395 153.77088 209.1861 154.60631 205.4327 155.44173 213.97553 156.27716 212.03884 157.1126 214.6917 157.94803 211.13033 158.78347 208.40477 159.6189 212.18509 160.45433 213.12377 161.28977 214.72823 162.1252 216.68726 162.96063 209.56027 163.79607 207.70899 164.6315 209.25002 165.46694 212.37355 166.30237 213.29346 167.1378 211.54564 167.97322 211.18402 168.80866 214.87075 169.64409 212.03884 170.47953 218.45162 171.31496 217.46733 172.15039 209.37595 172.98583 213.64833 173.82126 216.73865 174.6567 212.13681 175.49213 213.93604 176.32756 209.85582 177.163 210.85363 177.99843 213.29346 178.83386 205.67923 179.66928 214.93994 180.50472 213.7741 181.34015 213.1668 182.17559 212.2329 183.01102 213.1668 183.84645 210.45114 184.68189 212.18509 185.51732 213.12377 186.35276 212.13681 187.18819 211.23722 188.02362 214.01464 188.85906 210.3376 189.69449 214.90552 190.52993 211.0213 191.36536 213.33487 192.20078 217.74465 193.03621 213.97553 193.87165 214.12973 194.70708 216.68726 195.54251 212.55495 196.37795 213.4568 197.21338 218.58612 198.04882 215.00782 198.88425 215.70423 199.71968 216.83853 200.55512 214.72823 201.39055 216.05744 202.22599 215.94416 203.06142 215.91516 203.89685 213.1668 204.73227 215.00782 205.5677 215.04126 206.40314 215.85634 207.23857 217.66298 208.074 214.97405 208.90944 219.38558 209.74488 216.68726 210.5803 215.76596 211.41574 213.12377 212.25118 214.83563 213.08661 218.53688 213.92205 217.48993 214.75748 212.99211 215.5929 217.46733 216.42833 221.13289 217.26377 218.48622 218.0992 221.13289 218.93463 216.5269 219.77007 219.2797 220.6055 218.38036 221.44094 218.41634 222.27637 213.7741 223.1118 218.43407 223.94724 214.90552 224.78267 218.45162 225.6181 215.76596 226.45354 217.42145 227.28897 216.5814 228.12439 214.90552 228.95983 216.66118 228.12439 214.90552 227.28897 216.5814 226.45354 217.42145 225.6181 215.76596 224.78267 218.45162 223.94724 214.90552 223.1118 218.43407 222.27637 213.7741 221.44094 218.41634 220.6055 218.38036 219.77007 219.2797 218.93463 216.5269 218.0992 221.13289 217.26377 218.48622 216.42833 221.13289 215.5929 217.46733 214.75748 212.99211 213.92205 217.48993 213.08661 218.53688 212.25118 214.83563 211.41574 213.12377 210.5803 215.76596 209.74488 216.68726 208.90944 219.38558 208.074 214.97405 207.23857 217.66298 206.40314 215.85634 205.5677 215.04126 204.73227 215.00782 203.89685 213.1668 203.06142 215.91516 202.22599 215.94416 201.39055 216.05744 200.55512 214.72823 199.71968 216.83853 198.88425 215.70423 198.04882 215.00782 197.21338 218.58612 196.37795 213.4568 195.54251 212.55495 194.70708 216.68726 193.87165 214.12973 193.03621 213.97553 192.20078 217.74465 191.36536 213.33487 190.52993 211.0213 189.69449 214.90552 188.85906 210.3376 188.02362 214.01464 187.18819 211.23722 186.35276 212.13681 185.51732 213.12377 184.68189 212.18509 183.84645 210.45114 183.01102 213.1668 182.17559 212.2329 181.34015 213.1668 180.50472 213.7741 179.66928 214.93994 178.83386 205.67923 177.99843 213.29346 177.163 210.85363 176.32756 209.85582 175.49213 213.93604 174.6567 212.13681 173.82126 216.73865 172.98583 213.64833 172.15039 209.37595 171.31496 217.46733 170.47953 218.45162 169.64409 212.03884 168.80866 214.87075 167.97322 211.18402 167.1378 211.54564 166.30237 213.29346 165.46694 212.37355 164.6315 209.25002 163.79607 207.70899 162.96063 209.56027 162.1252 216.68726 161.28977 214.72823 160.45433 213.12377 159.6189 212.18509 158.78347 208.40477 157.94803 211.13033 157.1126 214.6917 156.27716 212.03884 155.44173 213.97553 154.60631 205.4327 153.77088 209.1861 152.93544 207.42395 152.1 210.04376 151.26457 213.10842 150.42914 213.2385 149.5937 212.18245 148.75827 215.29851 147.92284 215.59517 147.0874 211.4569 146.25197 210.5943 145.41654 210.4988 144.5811 211.82306 143.74567 210.68192 142.91025 213.12442 142.07482 214.75325 141.23938 211.65514 140.40395 211.68701 139.56851 211.63022 138.73308 205.81363 137.89765 208.52729 137.06221 208.31986 136.22678 215.64125 135.39134 209.4673 134.55591 211.0479 133.72048 212.70761 132.88504 207.09236 132.0496 206.0423 131.21419 212.15218 130.37876 212.53522 129.54332 205.53379 128.70789 206.78783 127.87245 208.43616 127.03702 207.66619 126.201587 214.57418 125.36615 213.81674 124.530719 209.82738 123.69528 209.9852 122.85985 211.2089 122.02442 210.3864 121.18899 208.32366 120.35355 208.76364 119.51812 210.60037 118.682689 210.48665 117.84725 214.44895 117.01182 208.67436 116.17639 206.24246 115.34096 205.60059 114.50552 204.74732 113.67009 205.97246 112.834659 202.8687 111.99922 202.99552 111.16379 204.85819 110.32836 204.21057 109.49293 205.5231 108.65749 200.41295 107.82206 203.7014 106.986629 209.77725 106.15119 207.7329 105.31576 199.56275 104.48032 204.29999 103.6449 206.92176 102.80946 204.582 101.97403 199.40103 101.138599 204.34703 100.30316 208.39206 99.46773 203.29135 98.63229 207.8783 97.79687 205.41571 96.96143 205.18845 96.126 202.12082 95.290569 202.51688 94.45513 203.0099 93.6197 203.08168 92.78426 202.0741 91.94884 203.0727 91.1134 203.24454 90.27797 206.72187 89.442539 202.55382 88.6071 201.03749 87.77167 200.76819 86.93623 205.69261 86.10081 199.85564 85.26537 204.03098 84.42994 200.02503 83.594509 204.23276 82.75907 201.19382 81.92364 200.22882 81.0882 195.57793 80.25277 198.73635 79.41734 197.07665 78.58191 196.70912 77.746479 201.2495 76.91104 201.6888 76.07561 204.03639 75.24017 196.71614 74.40474 191.49567 73.56931 193.36464 72.73388 193.3596 71.898448 192.2912 71.06301 196.67516 70.22758 197.7888 69.39214 190.87975 68.55671 187.91573 67.72128 190.48244 66.88585 197.58652 66.050418 184.2626 65.21498 182.56093 64.37955 181.65212 63.544115 185.0393 62.708684 185.10825 61.87325 180.56949 61.037817 182.1858 60.202386 183.4869 59.36695 186.45209 58.531518 184.35126 57.696088 180.21465 56.860654 173.42055 56.02522 172.72953 55.189786 173.33606 54.354356 172.82555 53.51892 172.63576Z" fill="#36454f" fill-opacity=".2"/>
<path transform="matrix(1,0,0,-1,0,244.42)" stroke-width="1" stroke-linecap="butt" stroke-linejoin="round" fill="none" stroke="#36454f" stroke-opacity=".2" d="M53.51892 172.63576V166.54825L54.354356 171.78961 55.189786 172.43308 56.02522 165.88355 56.860654 168.4272 57.696088 172.146 58.531518 176.21889 59.36695 176.46462 60.202386 179.0584 61.037817 181.14385 61.87325 180.46277 62.708684 183.15418 63.544115 180.54109 64.37955 181.18132 65.21498 181.47475 66.050418 179.16483 66.88585 193.89652 67.72128 189.7791 68.55671 185.09528 69.39214 187.30066 70.22758 194.06241 71.06301 196.52211 71.898448 186.29683 72.73388 189.72699 73.56931 190.81099 74.40474 189.44353 75.24017 189.4773 76.07561 202.50804 76.91104 198.73447 77.746479 198.50504 78.58191 196.11328 79.41734 195.87166 80.25277 194.29215 81.0882 192.7197 81.92364 194.89104 82.75907 199.7161 83.594509 197.65503 84.42994 196.79228 85.26537 202.43791 86.10081 194.76665 86.93623 202.4453 87.77167 198.6315 88.6071 198.6809 89.442539 201.75406 90.27797 204.33444 91.1134 201.65293 91.94884 202.53678 92.78426 196.46012 93.6197 203.01921 94.45513 202.22765 95.290569 197.1753 96.126 198.8275 96.96143 199.73418 97.79687 203.94519 98.63229 203.92325 99.46773 201.03008 100.30316 203.20156 101.138599 202.34336 101.97403 199.1185 102.80946 202.42168 103.6449 205.48773 104.48032 200.75148 105.31576 196.0052 106.15119 204.19982 106.986629 209.12435 107.82206 197.91172 108.65749 200.14438 109.49293 205.24497 110.32836 204.02951 111.16379 202.58103 111.99922 197.14946 112.834659 199.49729 113.67009 200.4495 114.50552 204.53044 115.34096 203.02648 116.17639 205.97386 117.01182 204.2549 117.84725 213.33119 118.682689 206.89948 119.51812 203.46642 120.35355 207.91872 121.18899 203.73619 122.02442 204.82558 122.85985 211.04694 123.69528 207.16826 124.530719 207.0077 125.36615 211.30142 126.201587 214.12216 127.03702 201.87355 127.87245 208.2317 128.70789 204.10454 129.54332 205.08176 130.37876 209.27092 131.21419 210.38368 132.0496 204.64858 132.88504 204.33324 133.72048 211.0504 134.55591 208.58324 135.39134 208.57541 136.22678 211.98912 137.06221 208.28562 137.89765 206.4613 138.73308 205.44733 139.56851 210.3302 140.40395 211.38715 141.23938 209.07073 142.07482 213.04114 142.91025 211.26654 143.74567 209.89359 144.5811 205.45355 145.41654 209.23574 146.25197 209.7403 147.0874 210.59433 147.92284 213.15766 148.75827 214.3636 149.5937 210.4745 150.42914 211.68622 151.26457 211.37419 152.1 210.04376 152.93544 207.42395 153.77088 209.1861 154.60631 205.4327 155.44173 213.97553 156.27716 212.03884 157.1126 214.6917 157.94803 211.13033 158.78347 208.40477 159.6189 212.18509 160.45433 213.12377 161.28977 214.72823 162.1252 216.68726 162.96063 209.56027 163.79607 207.70899 164.6315 209.25002 165.46694 212.37355 166.30237 213.29346 167.1378 211.54564 167.97322 211.18402 168.80866 214.87075 169.64409 212.03884 170.47953 218.45162 171.31496 217.46733 172.15039 209.37595 172.98583 213.64833 173.82126 216.73865 174.6567 212.13681 175.49213 213.93604 176.32756 209.85582 177.163 210.85363 177.99843 213.29346 178.83386 205.67923 179.66928 214.93994 180.50472 213.7741 181.34015 213.1668 182.17559 212.2329 183.01102 213.1668 183.84645 210.45114 184.68189 212.18509 185.51732 213.12377 186.35276 212.13681 187.18819 211.23722 188.02362 214.01464 188.85906 210.3376 189.69449 214.90552 190.52993 211.0213 191.36536 213.33487 192.20078 217.74465 193.03621 213.97553 193.87165 214.12973 194.70708 216.68726 195.54251 212.55495 196.37795 213.4568 197.21338 218.58612 198.04882 215.00782 198.88425 215.70423 199.71968 216.83853 200.55512 214.72823 201.39055 216.05744 202.22599 215.94416 203.06142 215.91516 203.89685 213.1668 204.73227 215.00782 205.5677 215.04126 206.40314 215.85634 207.23857 217.66298 208.074 214.97405 208.90944 219.38558 209.74488 216.68726 210.5803 215.76596 211.41574 213.12377 212.25118 214.83563 213.08661 218.53688 213.92205 217.48993 214.75748 212.99211 215.5929 217.46733 216.42833 221.13289 217.26377 218.48622 218.0992 221.13289 218.93463 216.5269 219.77007 219.2797 220.6055 218.38036 221.44094 218.41634 222.27637 213.7741 223.1118 218.43407 223.94724 214.90552 224.78267 218.45162 225.6181 215.76596 226.45354 217.42145 227.28897 216.5814 228.12439 214.90552 228.95983 216.66118 228.12439 214.90552 227.28897 216.5814 226.45354 217.42145 225.6181 215.76596 224.78267 218.45162 223.94724 214.90552 223.1118 218.43407 222.27637 213.7741 221.44094 218.41634 220.6055 218.38036 219.77007 219.2797 218.93463 216.5269 218.0992 221.13289 217.26377 218.48622 216.42833 221.13289 215.5929 217.46733 214.75748 212.99211 213.92205 217.48993 213.08661 218.53688 212.25118 214.83563 211.41574 213.12377 210.5803 215.76596 209.74488 216.68726 208.90944 219.38558 208.074 214.97405 207.23857 217.66298 206.40314 215.85634 205.5677 215.04126 204.73227 215.00782 203.89685 213.1668 203.06142 215.91516 202.22599 215.94416 201.39055 216.05744 200.55512 214.72823 199.71968 216.83853 198.88425 215.70423 198.04882 215.00782 197.21338 218.58612 196.37795 213.4568 195.54251 212.55495 194.70708 216.68726 193.87165 214.12973 193.03621 213.97553 192.20078 217.74465 191.36536 213.33487 190.52993 211.0213 189.69449 214.90552 188.85906 210.3376 188.02362 214.01464 187.18819 211.23722 186.35276 212.13681 185.51732 213.12377 184.68189 212.18509 183.84645 210.45114 183.01102 213.1668 182.17559 212.2329 181.34015 213.1668 180.50472 213.7741 179.66928 214.93994 178.83386 205.67923 177.99843 213.29346 177.163 210.85363 176.32756 209.85582 175.49213 213.93604 174.6567 212.13681 173.82126 216.73865 172.98583 213.64833 172.15039 209.37595 171.31496 217.46733 170.47953 218.45162 169.64409 212.03884 168.80866 214.87075 167.97322 211.18402 167.1378 211.54564 166.30237 213.29346 165.46694 212.37355 164.6315 209.25002 163.79607 207.70899 162.96063 209.56027 162.1252 216.68726 161.28977 214.72823 160.45433 213.12377 159.6189 212.18509 158.78347 208.40477 157.94803 211.13033 157.1126 214.6917 156.27716 212.03884 155.44173 213.97553 154.60631 205.4327 153.77088 209.1861 152.93544 207.42395 152.1 210.04376 151.26457 213.10842 150.42914 213.2385 149.5937 212.18245 148.75827 215.29851 147.92284 215.59517 147.0874 211.4569 146.25197 210.5943 145.41654 210.4988 144.5811 211.82306 143.74567 210.68192 142.91025 213.12442 142.07482 214.75325 141.23938 211.65514 140.40395 211.68701 139.56851 211.63022 138.73308 205.81363 137.89765 208.52729 137.06221 208.31986 136.22678 215.64125 135.39134 209.4673 134.55591 211.0479 133.72048 212.70761 132.88504 207.09236 132.0496 206.0423 131.21419 212.15218 130.37876 212.53522 129.54332 205.53379 128.70789 206.78783 127.87245 208.43616 127.03702 207.66619 126.201587 214.57418 125.36615 213.81674 124.530719 209.82738 123.69528 209.9852 122.85985 211.2089 122.02442 210.3864 121.18899 208.32366 120.35355 208.76364 119.51812 210.60037 118.682689 210.48665 117.84725 214.44895 117.01182 208.67436 116.17639 206.24246 115.34096 205.60059 114.50552 204.74732 113.67009 205.97246 112.834659 202.8687 111.99922 202.99552 111.16379 204.85819 110.32836 204.21057 109.49293 205.5231 108.65749 200.41295 107.82206 203.7014 106.986629 209.77725 106.15119 207.7329 105.31576 199.56275 104.48032 204.29999 103.6449 206.92176 102.80946 204.582 101.97403 199.40103 101.138599 204.34703 100.30316 208.39206 99.46773 203.29135 98.63229 207.8783 97.79687 205.41571 96.96143 205.18845 96.126 202.12082 95.290569 202.51688 94.45513 203.0099 93.6197 203.08168 92.78426 202.0741 91.94884 203.0727 91.1134 203.24454 90.27797 206.72187 89.442539 202.55382 88.6071 201.03749 87.77167 200.76819 86.93623 205.69261 86.10081 199.85564 85.26537 204.03098 84.42994 200.02503 83.594509 204.23276 82.75907 201.19382 81.92364 200.22882 81.0882 195.57793 80.25277 198.73635 79.41734 197.07665 78.58191 196.70912 77.746479 201.2495 76.91104 201.6888 76.07561 204.03639 75.24017 196.71614 74.40474 191.49567 73.56931 193.36464 72.73388 193.3596 71.898448 192.2912 71.06301 196.67516 70.22758 197.7888 69.39214 190.87975 68.55671 187.91573 67.72128 190.48244 66.88585 197.58652 66.050418 184.2626 65.21498 182.56093 64.37955 181.65212 63.544115 185.0393 62.708684 185.10825 61.87325 180.56949 61.037817 182.1858 60.202386 183.4869 59.36695 186.45209 58.531518 184.35126 57.696088 180.21465 56.860654 173.42055 56.02522 172.72953 55.189786 173.33606 54.354356 172.82555 53.51892 172.63576Z"/>
</g>
</g>
<g clip-path="url(#clip_2)">
<path transform="matrix(1,0,0,-1,0,244.42)" stroke-width=".8" stroke-linecap="square" stroke-linejoin="round" fill="none" stroke="#b0b0b0" stroke-opacity=".3" d="M53.51892 38.5125V222.0325"/>
</g>
<path transform="matrix(1,0,0,-1,0,244.42)" d="M53.51892 38.5125V35.0125"/>
<path transform="matrix(1,0,0,-1,0,244.42)" stroke-width=".8" stroke-linecap="butt" stroke-linejoin="round" fill="none" stroke="#000000" d="M53.51892 38.5125V35.0125"/>
<text xml:space="preserve" transform="matrix(1 0 -0 1 50.339235 220.50125)" font-size="10" font-family="DejaVuSans"><tspan y="0" x="0">0</tspan></text>
<g clip-path="url(#clip_3)">
<path transform="matrix(1,0,0,-1,0,244.42)" stroke-width=".8" stroke-linecap="square" stroke-linejoin="round" fill="none" stroke="#b0b0b0" stroke-opacity=".3" d="M94.31155 38.5125V222.0325"/>
</g>
<path transform="matrix(1,0,0,-1,0,244.42)" d="M94.31155 38.5125V35.0125"/>
<path transform="matrix(1,0,0,-1,0,244.42)" stroke-width=".8" stroke-linecap="butt" stroke-linejoin="round" fill="none" stroke="#000000" d="M94.31155 38.5125V35.0125"/>
<text xml:space="preserve" transform="matrix(1 0 -0 1 87.95216 220.50125)" font-size="10" font-family="DejaVuSans"><tspan y="0" x="0 6.3600008">10</tspan></text>
<g clip-path="url(#clip_4)">
<path transform="matrix(1,0,0,-1,0,244.42)" stroke-width=".8" stroke-linecap="square" stroke-linejoin="round" fill="none" stroke="#b0b0b0" stroke-opacity=".3" d="M135.10417 38.5125V222.0325"/>
</g>
<path transform="matrix(1,0,0,-1,0,244.42)" d="M135.10417 38.5125V35.0125"/>
<path transform="matrix(1,0,0,-1,0,244.42)" stroke-width=".8" stroke-linecap="butt" stroke-linejoin="round" fill="none" stroke="#000000" d="M135.10417 38.5125V35.0125"/>
<text xml:space="preserve" transform="matrix(1 0 -0 1 128.74478 220.50125)" font-size="10" font-family="DejaVuSans"><tspan y="0" x="0 6.3600008">20</tspan></text>
<g clip-path="url(#clip_5)">
<path transform="matrix(1,0,0,-1,0,244.42)" stroke-width=".8" stroke-linecap="square" stroke-linejoin="round" fill="none" stroke="#b0b0b0" stroke-opacity=".3" d="M175.89679 38.5125V222.0325"/>
</g>
<path transform="matrix(1,0,0,-1,0,244.42)" d="M175.89679 38.5125V35.0125"/>
<path transform="matrix(1,0,0,-1,0,244.42)" stroke-width=".8" stroke-linecap="butt" stroke-linejoin="round" fill="none" stroke="#000000" d="M175.89679 38.5125V35.0125"/>
<text xml:space="preserve" transform="matrix(1 0 -0 1 169.53742 220.50125)" font-size="10" font-family="DejaVuSans"><tspan y="0" x="0 6.3600008">30</tspan></text>
<g clip-path="url(#clip_6)">
<path transform="matrix(1,0,0,-1,0,244.42)" stroke-width=".8" stroke-linecap="square" stroke-linejoin="round" fill="none" stroke="#b0b0b0" stroke-opacity=".3" d="M216.6894 38.5125V222.0325"/>
</g>
<path transform="matrix(1,0,0,-1,0,244.42)" d="M216.6894 38.5125V35.0125"/>
<path transform="matrix(1,0,0,-1,0,244.42)" stroke-width=".8" stroke-linecap="butt" stroke-linejoin="round" fill="none" stroke="#000000" d="M216.6894 38.5125V35.0125"/>
<text xml:space="preserve" transform="matrix(1 0 -0 1 210.33003 220.50125)" font-size="10" font-family="DejaVuSans"><tspan y="0" x="0 6.3600008">40</tspan></text>
<text xml:space="preserve" transform="matrix(1 0 -0 1 70.07531 234.93875)" font-size="11" font-family="DejaVuSans"><tspan y="0" x="0 6.952 13.926001 20.438 23.496 27.782626 34.514627 41.488626 52.202627 58.967626 65.94163 70.25363 73.75163 80.73663 85.04863 91.81363 98.79863 104.52963 108.02763 112.317638 121.53564 128.53163 138.02463">Environment Steps (&#x00d7;1M)</tspan></text>
<g clip-path="url(#clip_7)">
<path transform="matrix(1,0,0,-1,0,244.42)" stroke-width=".8" stroke-linecap="square" stroke-linejoin="round" fill="none" stroke="#b0b0b0" stroke-opacity=".3" d="M44.746877 38.5125H237.73188"/>
</g>
<path transform="matrix(1,0,0,-1,0,244.42)" d="M44.746877 38.5125H41.246877"/>
<path transform="matrix(1,0,0,-1,0,244.42)" stroke-width=".8" stroke-linecap="butt" stroke-linejoin="round" fill="none" stroke="#000000" d="M44.746877 38.5125H41.246877"/>
<text xml:space="preserve" transform="matrix(1 0 -0 1 21.840626 209.70438)" font-size="10" font-family="DejaVuSans"><tspan y="0" x="0 6.3600008 9.540001">0.0</tspan></text>
<g clip-path="url(#clip_8)">
<path transform="matrix(1,0,0,-1,0,244.42)" stroke-width=".8" stroke-linecap="square" stroke-linejoin="round" fill="none" stroke="#b0b0b0" stroke-opacity=".3" d="M44.746877 75.2165H237.73188"/>
</g>
<path transform="matrix(1,0,0,-1,0,244.42)" d="M44.746877 75.2165H41.246877"/>
<path transform="matrix(1,0,0,-1,0,244.42)" stroke-width=".8" stroke-linecap="butt" stroke-linejoin="round" fill="none" stroke="#000000" d="M44.746877 75.2165H41.246877"/>
<text xml:space="preserve" transform="matrix(1 0 -0 1 21.840626 173.00037)" font-size="10" font-family="DejaVuSans"><tspan y="0" x="0 6.3600008 9.540001">0.2</tspan></text>
<g clip-path="url(#clip_9)">
<path transform="matrix(1,0,0,-1,0,244.42)" stroke-width=".8" stroke-linecap="square" stroke-linejoin="round" fill="none" stroke="#b0b0b0" stroke-opacity=".3" d="M44.746877 111.9205H237.73188"/>
</g>
<path transform="matrix(1,0,0,-1,0,244.42)" d="M44.746877 111.9205H41.246877"/>
<path transform="matrix(1,0,0,-1,0,244.42)" stroke-width=".8" stroke-linecap="butt" stroke-linejoin="round" fill="none" stroke="#000000" d="M44.746877 111.9205H41.246877"/>
<text xml:space="preserve" transform="matrix(1 0 -0 1 21.840626 136.29637)" font-size="10" font-family="DejaVuSans"><tspan y="0" x="0 6.3600008 9.540001">0.4</tspan></text>
<g clip-path="url(#clip_10)">
<path transform="matrix(1,0,0,-1,0,244.42)" stroke-width=".8" stroke-linecap="square" stroke-linejoin="round" fill="none" stroke="#b0b0b0" stroke-opacity=".3" d="M44.746877 148.6245H237.73188"/>
</g>
<path transform="matrix(1,0,0,-1,0,244.42)" d="M44.746877 148.6245H41.246877"/>
<path transform="matrix(1,0,0,-1,0,244.42)" stroke-width=".8" stroke-linecap="butt" stroke-linejoin="round" fill="none" stroke="#000000" d="M44.746877 148.6245H41.246877"/>
<text xml:space="preserve" transform="matrix(1 0 -0 1 21.840626 99.59238)" font-size="10" font-family="DejaVuSans"><tspan y="0" x="0 6.3600008 9.540001">0.6</tspan></text>
<g clip-path="url(#clip_11)">
<path transform="matrix(1,0,0,-1,0,244.42)" stroke-width=".8" stroke-linecap="square" stroke-linejoin="round" fill="none" stroke="#b0b0b0" stroke-opacity=".3" d="M44.746877 185.3285H237.73188"/>
</g>
<path transform="matrix(1,0,0,-1,0,244.42)" d="M44.746877 185.3285H41.246877"/>
<path transform="matrix(1,0,0,-1,0,244.42)" stroke-width=".8" stroke-linecap="butt" stroke-linejoin="round" fill="none" stroke="#000000" d="M44.746877 185.3285H41.246877"/>
<text xml:space="preserve" transform="matrix(1 0 -0 1 21.840626 62.888368)" font-size="10" font-family="DejaVuSans"><tspan y="0" x="0 6.3600008 9.540001">0.8</tspan></text>
<g clip-path="url(#clip_12)">
<path transform="matrix(1,0,0,-1,0,244.42)" stroke-width=".8" stroke-linecap="square" stroke-linejoin="round" fill="none" stroke="#b0b0b0" stroke-opacity=".3" d="M44.746877 222.0325H237.73188"/>
</g>
<path transform="matrix(1,0,0,-1,0,244.42)" d="M44.746877 222.0325H41.246877"/>
<path transform="matrix(1,0,0,-1,0,244.42)" stroke-width=".8" stroke-linecap="butt" stroke-linejoin="round" fill="none" stroke="#000000" d="M44.746877 222.0325H41.246877"/>
<text xml:space="preserve" transform="matrix(1 0 -0 1 21.840626 26.184372)" font-size="10" font-family="DejaVuSans"><tspan y="0" x="0 6.3600008 9.540001">1.0</tspan></text>
<text xml:space="preserve" transform="matrix(0 -1 1 0 15.559375 150.63968)" font-size="11" font-family="DejaVuSans"><tspan y="0" x="0 6.9850008 13.959001 20.009 26.059002 32.824 38.555 44.286 47.784 55.194627 61.937627 66.249629">Success Rate</tspan></text>
<g clip-path="url(#clip_13)">
<path transform="matrix(1,0,0,-1,0,244.42)" stroke-width="2" stroke-linecap="square" stroke-linejoin="round" fill="none" stroke="#f16b6f" d="M53.51892 77.0517 53.539319 39.4301 53.55971 39.61362 53.58011 51.19832 53.600507 48.78962 53.620904 54.86872 53.641298 79.62098 53.661695 81.82322 53.68209 87.32882 53.702489 67.8757 53.722887 95.4037 53.74328 108.98418 53.763677 118.83779 53.784074 116.97436 53.80447 103.676219 53.824865 148.99155 53.84526 121.83058 53.865659 142.00392 53.886056 137.24626 53.90645 172.58286 53.926847 190.10002 53.947244 158.90163 53.96764 188.63187 53.988039 178.35474 54.00843 175.41843 54.028829 189.73299 54.049226 198.54195 54.069623 186.42963 54.090017 192.6693 54.110414 209.92018 54.13081 203.9108 54.151208 208.81906 54.1716 200.37714 54.191999 209.92018 54.212396 209.55315 54.23279 193.77042 54.25319 208.45203 54.273584 201.11122 54.29398 213.22354 54.314378 208.14145 54.334775 213.25234 54.355169 215.11632 54.375566 215.82106 54.39596 201.11122 54.41636 215.05875 54.436754 212.12242 54.45715 218.72914 54.477548 213.95763 54.497945 210.66866 54.51834 216.89394 54.538736 215.05875 54.55913 217.99506 54.57953 219.09618 54.599927 222.0325 54.62032 216.90834 54.640718 219.83026 54.661115 217.64241 54.68151 219.87345 54.701906 214.32466 54.7223 220.56435 54.7427 217.26099 54.763097 215.42578 54.783494 214.05672 54.803888 221.29842 54.824285 215.05875 54.84468 220.56435 54.865079 222.0325 54.88547 217.99506 54.90587 219.83026 54.926267 217.26099 54.946664 218.3621 54.96706 218.72914 54.987455 220.1973 55.00785 212.12242 55.028249 219.09618 55.048646 220.56435 55.06904 218.3621 55.089437 219.83026 55.109834 220.1973 55.13023 218.8209 55.150625 219.2797 55.17102 216.5269 55.191419 220.1973H55.211816L55.232213 222.0325H55.252607 55.273004 55.2934L55.313798 220.1973"/>
</g>
<g clip-path="url(#clip_14)">
<path transform="matrix(1,0,0,-1,0,244.42)" stroke-width="2" stroke-linecap="square" stroke-linejoin="round" fill="none" stroke="#36454f" d="M53.51892 169.59201 54.354356 172.30759 55.189786 172.88457 56.02522 169.30654 56.860654 170.92388 57.696088 176.18033 58.531518 180.28508 59.36695 181.45835 60.202386 181.27265 61.037817 181.66483 61.87325 180.51613 62.708684 184.13121 64.37955 181.41672 65.21498 182.01784 66.050418 181.71372 66.88585 195.74152 67.72128 190.13077 68.55671 186.50551 69.39214 189.09021 70.22758 195.92562 71.06301 196.59864 71.898448 189.294 72.73388 191.5433 73.56931 192.08782 74.40474 190.4696 75.24017 193.09673 76.07561 203.27222 76.91104 200.21163 77.746479 199.87728 78.58191 196.4112 80.25277 196.51424 81.0882 194.1488 81.92364 197.55994 82.75907 200.45496 83.594509 200.9439 84.42994 198.40865 85.26537 203.23445 86.10081 197.31114 86.93623 204.06896 87.77167 199.69985 88.6071 199.85919 89.442539 202.15395 90.27797 205.52816 91.1134 202.44873 91.94884 202.80474 92.78426 199.2671 93.6197 203.05045 94.45513 202.61878 95.290569 199.84609 96.126 200.47415 97.79687 204.68045 98.63229 205.90077 99.46773 202.16072 100.30316 205.79682 101.138599 203.3452 101.97403 199.25977 102.80946 203.50185 103.6449 206.20475 104.48032 202.52573 105.31576 197.78398 106.15119 205.96636 106.986629 209.45079 107.82206 200.80655 108.65749 200.27867 109.49293 205.38404 110.32836 204.12004 111.16379 203.7196 111.99922 200.0725 112.834659 201.183 113.67009 203.21099 114.50552 204.63887 115.34096 204.31354 116.17639 206.10817 117.01182 206.46463 117.84725 213.89006 118.682689 208.69307 119.51812 207.0334 120.35355 208.34119 121.18899 206.02993 122.02442 207.60599 122.85985 211.12792 123.69528 208.57672 124.530719 208.41754 125.36615 212.55908 126.201587 214.34816 127.03702 204.76987 127.87245 208.33393 128.70789 205.44618 129.54332 205.30777 130.37876 210.90306 131.21419 211.26793 132.0496 205.34545 132.88504 205.7128 133.72048 211.879 134.55591 209.81557 135.39134 209.02136 136.22678 213.81519 137.06221 208.30274 137.89765 207.4943 138.73308 205.63048 139.56851 210.98021 140.40395 211.53708 141.23938 210.36293 142.07482 213.89719 144.5811 208.6383 145.41654 209.86727 146.25197 210.1673 147.0874 211.02562 147.92284 214.3764 148.75827 214.83106 149.5937 211.32848 150.42914 212.46236 151.26457 212.2413 152.1 210.04376 152.93544 207.42395 153.77088 209.1861 154.60631 205.4327 155.44173 213.97553 156.27716 212.03884 157.1126 214.6917 157.94803 211.13033 158.78347 208.40477 159.6189 212.18509 160.45433 213.12377 161.28977 214.72823 162.1252 216.68726 162.96063 209.56027 163.79607 207.70899 164.6315 209.25002 165.46694 212.37355 166.30237 213.29346 167.1378 211.54564 167.97322 211.18402 168.80866 214.87075 169.64409 212.03884 170.47953 218.45162 171.31496 217.46733 172.15039 209.37595 172.98583 213.64833 173.82126 216.73865 174.6567 212.13681 175.49213 213.93604 176.32756 209.85582 177.163 210.85363 177.99843 213.29346 178.83386 205.67923 179.66928 214.93994 180.50472 213.7741 181.34015 213.1668 182.17559 212.2329 183.01102 213.1668 183.84645 210.45114 184.68189 212.18509 185.51732 213.12377 187.18819 211.23722 188.02362 214.01464 188.85906 210.3376 189.69449 214.90552 190.52993 211.0213 191.36536 213.33487 192.20078 217.74465 193.03621 213.97553 193.87165 214.12973 194.70708 216.68726 195.54251 212.55495 196.37795 213.4568 197.21338 218.58612 198.04882 215.00782 198.88425 215.70423 199.71968 216.83853 200.55512 214.72823 201.39055 216.05744 203.06142 215.91516 203.89685 213.1668 204.73227 215.00782 205.5677 215.04126 206.40314 215.85634 207.23857 217.66298 208.074 214.97405 208.90944 219.38558 209.74488 216.68726 210.5803 215.76596 211.41574 213.12377 212.25118 214.83563 213.08661 218.53688 213.92205 217.48993 214.75748 212.99211 215.5929 217.46733 216.42833 221.13289 217.26377 218.48622 218.0992 221.13289 218.93463 216.5269 219.77007 219.2797 220.6055 218.38036 221.44094 218.41634 222.27637 213.7741 223.1118 218.43407 223.94724 214.90552 224.78267 218.45162 225.6181 215.76596 226.45354 217.42145 227.28897 216.5814 228.12439 214.90552 228.95983 216.66118"/>
</g>
<path transform="matrix(1,0,0,-1,0,244.42)" stroke-width=".8" stroke-linecap="square" stroke-miterlimit="10" stroke-linejoin="miter" fill="none" stroke="#000000" d="M44.746877 38.5125V222.0325"/>
<path transform="matrix(1,0,0,-1,0,244.42)" stroke-width=".8" stroke-linecap="square" stroke-miterlimit="10" stroke-linejoin="miter" fill="none" stroke="#000000" d="M237.73188 38.5125V222.0325"/>
<path transform="matrix(1,0,0,-1,0,244.42)" stroke-width=".8" stroke-linecap="square" stroke-miterlimit="10" stroke-linejoin="miter" fill="none" stroke="#000000" d="M44.746877 38.5125H237.73188"/>
<path transform="matrix(1,0,0,-1,0,244.42)" stroke-width=".8" stroke-linecap="square" stroke-miterlimit="10" stroke-linejoin="miter" fill="none" stroke="#000000" d="M44.746877 222.0325H237.73188"/>
<text xml:space="preserve" transform="matrix(1 0 -0 1 112.36437 16.387497)" font-size="12" font-family="DejaVuSansMono"><tspan y="0" x="0 7.224001 14.448002 21.672003 28.896004 36.120004 43.344 50.568">BoxClean</tspan></text>
<path transform="matrix(1,0,0,-1,0,244.42)" stroke-width="2" stroke-linecap="square" stroke-linejoin="round" fill="none" stroke="#f16b6f" d="M93.86938 64.85625H102.86938 111.86938"/>
<text xml:space="preserve" transform="matrix(1 0 -0 1 119.069377 182.71375)" font-size="9" font-family="DejaVuSans"><tspan y="0" x="0 5.8643758 11.399376 16.088376 18.590376 24.305377 30.011376 35.528375 38.030374 40.892374 47.975374 51.14337 53.826997 57.075998 62.1905 67.6985 70.2005 72.7025 77.6525">Residual Off-Policy</tspan></text>
<path transform="matrix(1,0,0,-1,0,244.42)" stroke-width="2" stroke-linecap="square" stroke-linejoin="round" fill="none" stroke="#36454f" d="M93.86938 51.6375H102.86938 111.86938"/>
<text xml:space="preserve" transform="matrix(1 0 -0 1 119.069377 195.9325)" font-size="9" font-family="DejaVuSans"><tspan y="0" x="0 5.8643758 11.399376 16.088376 18.590376 24.305377 30.011376 35.528375 38.030374 40.892374 47.975374 53.681375 56.930376 62.044878 67.55288 70.05488 72.55688 77.506877 82.83488 85.69688 89.20688 94.63388 100.06088 107.14388">Residual On-Policy (PPO)</tspan></text>
</svg>
